<svg version="1.2" xmlns="http://www.w3.org/2000/svg" viewBox="0 0 512 512" width="512" height="512"><style></style><filter id="f0"><feFlood flood-color="#ffffff" flood-opacity="1" /><feBlend mode="normal" in2="SourceGraphic"/><feComposite in2="SourceAlpha" operator="in" /></filter><g filter="url(#f0)"><path fill-rule="evenodd" d="m465.2 31.4v392.9c0 15.8-12.1 31.4-33.2 31.4v32.6c0 13.1-10.6 23.7-23.7 23.7h-314.6c-13.1 0-23.7-10.6-23.7-23.7v-32.6c-21 0-33.2-15.4-33.2-31.4v-392.9c0-17.3 14.1-31.4 31.4-31.4h365.6c17.3 0 31.4 14.1 31.4 31.4zm-397 409.3c3.7 0 164.6 0 175.3 0v-112.2h-191.7v95.8c0 9 7.4 16.4 16.4 16.4zm382-16.4v-95.8h-191.7v112.2c9.9 0 170.4 0 175.3 0 9 0 16.4-7.4 16.4-16.4zm-16.4-409.3h-175.3v298.5h191.7v-282.1c0-9-7.4-16.4-16.4-16.4zm-382 16.4v282.1h191.7v-298.5h-175.3c-9 0-16.4 7.4-16.4 16.4zm53.5 322.8h84.7c9.9 0 9.9 15 0 15h-84.7c-9.9 0-9.9-15 0-15zm311.7 101.5h-332v32.6c0 4.8 3.9 8.7 8.7 8.7h314.6c4.8 0 8.7-3.9 8.7-8.7zm-20.3-86.5h-84.7c-9.9 0-9.9-15 0-15h84.7c9.9 0 9.9 15 0 15zm-122.5-158.1v-108.1c0-10 15-9.9 15 0v108.1c0 9.9-15 9.9-15 0zm-61.4 0v-108.1c0-10 15-9.9 15 0v108.1c0 9.9-15 9.9-15 0zm110.6 48.8c0-11.1 0-207.8 0-218.9 0-4.2 3.4-7.5 7.5-7.5h93.6c4.2 0 7.5 3.3 7.5 7.5 0 11.1 0 207.8 0 218.9 0 4.2-3.3 7.5-7.5 7.5h-93.6c-4.1 0-7.5-3.3-7.5-7.5zm61.8-61.8v20.7h31.8v-20.7zm-15 0h-31.8v20.7h31.8zm46.8 35.8c-24.4 0-54.2 0-78.6 0v18.6h78.6zm-78.6-50.8c24.5 0 54.2 0 78.6 0v-134.6h-78.6zm-268.4 90.9v-56.2c0-4.1 3.3-7.5 7.5-7.5h100.5c4.1 0 7.5 3.4 7.5 7.5v56.2c0 4.2-3.4 7.5-7.5 7.5h-100.5c-4.2 0-7.5-3.3-7.5-7.5zm15-7.5h85.5v-41.2h-85.5z"/></g></svg>