<svg version="1.2" xmlns="http://www.w3.org/2000/svg" viewBox="0 0 92 92" width="92" height="92"><style></style><filter id="f0"><feFlood flood-color="#ffffff" flood-opacity="1" /><feBlend mode="normal" in2="SourceGraphic"/><feComposite in2="SourceAlpha" operator="in" /></filter><g filter="url(#f0)"><path fill-rule="evenodd" d="m91.8 29.6v32.7c0 3.7-3 6.8-6.8 6.8h-78c-3.7 0-6.8-3-6.8-6.8v-32.8c0-3.7 3-6.8 6.8-6.8h78c3.8 0 6.9 3.1 6.8 6.9zm-3.5 0c0-1.8-1.5-3.3-3.3-3.3h-78c-1.8 0-3.3 1.5-3.3 3.3v32.8c0 1.8 1.5 3.3 3.3 3.3h78c1.8 0 3.3-1.5 3.3-3.3z"/><path fill-rule="evenodd" d="m38.1 46c0 2.8-1 5.5-2.6 7.6l1 1c0.7 0.7 0.7 1.8 0 2.5-0.4 0.3-0.8 0.5-1.3 0.5-0.5 0-1-0.2-1.3-0.5l-1-1c-2.1 1.6-4.8 2.6-7.6 2.6-2.8 0-5.5-1-7.6-2.6l-1 1c-0.4 0.3-0.8 0.5-1.3 0.5-0.5 0-1-0.2-1.3-0.5-0.7-0.7-0.7-1.8 0-2.5l1-1c-1.6-2.1-2.6-4.7-2.6-7.6 0-2.8 1-5.5 2.6-7.6l-1-1c-0.7-0.7-0.7-1.8 0-2.5 0.7-0.7 1.8-0.7 2.5 0l1 1c2.1-1.6 4.8-2.6 7.6-2.6 2.8 0 5.5 1 7.6 2.6l1-1c0.7-0.7 1.8-0.7 2.5 0 0.7 0.7 0.7 1.8 0 2.5l-1 1c1.6 2.1 2.5 4.7 2.8 7.6zm-7.9 7.5l-0.7-0.7c-0.7-0.7-0.7-1.8 0-2.5 0.7-0.7 1.8-0.7 2.5 0l0.9 0.8c0.9-1.5 1.5-3.2 1.5-5.1q0-2.9-1.5-5.1l-0.7 0.7c-0.4 0.3-0.8 0.5-1.3 0.5-0.5 0-1-0.2-1.3-0.5-0.7-0.7-0.7-1.8 0-2.5l0.7-0.7c-1.5-0.9-3.2-1.5-5.1-1.5q-2.8 0-5.1 1.5l0.7 0.7c0.7 0.7 0.7 1.8 0 2.5-0.4 0.3-0.8 0.5-1.3 0.5-0.5 0-1-0.2-1.3-0.5l-0.7-0.7c-0.9 1.5-1.5 3.2-1.5 5.1q0 2.9 1.5 5.1l0.7-0.7c0.7-0.7 1.8-0.7 2.5 0 0.7 0.7 0.7 1.8 0 2.5l-0.7 0.7c1.5 0.9 3.2 1.5 5.1 1.5 1.9 0 3.7-0.5 5.1-1.6z"/><path fill-rule="evenodd" d="m72.8 46c0 2.8-1 5.5-2.6 7.6l1 1c0.7 0.7 0.7 1.8 0 2.5-0.4 0.3-0.8 0.5-1.3 0.5-0.5 0-1-0.2-1.3-0.5l-1-1c-2.1 1.6-4.7 2.6-7.6 2.6-2.8 0-5.5-1-7.6-2.6l-1 1c-0.4 0.3-0.8 0.5-1.3 0.5-0.5 0-1-0.2-1.3-0.5-0.7-0.7-0.7-1.8 0-2.5l1-1c-1.6-2.1-2.6-4.7-2.6-7.6 0-2.8 1-5.5 2.6-7.6l-1-1c-0.7-0.7-0.7-1.8 0-2.5 0.7-0.7 1.8-0.7 2.5 0l1 1c2.1-1.6 4.7-2.6 7.6-2.6 2.8 0 5.5 1 7.6 2.6l1-1c0.7-0.7 1.8-0.7 2.5 0 0.7 0.7 0.7 1.8 0 2.5l-1 1c1.6 2.1 2.5 4.7 2.8 7.6zm-7.7 7.6l-0.7-0.7c-0.7-0.7-0.7-1.8 0-2.5 0.7-0.7 1.8-0.7 2.5 0l0.7 0.7c0.9-1.5 1.5-3.2 1.5-5.1q0-2.9-1.5-5.1l-0.7 0.7c-0.4 0.3-0.8 0.5-1.3 0.5-0.5 0-1-0.2-1.3-0.5-0.7-0.7-0.7-1.8 0-2.5l0.7-0.7c-1.5-0.9-3.2-1.5-5.1-1.5q-2.8 0-5.1 1.5l0.7 0.7c0.7 0.7 0.7 1.8 0 2.5-0.4 0.3-0.8 0.5-1.3 0.5-0.5 0-1-0.2-1.3-0.5l-0.7-0.7c-0.9 1.5-1.5 3.2-1.5 5.1q0 2.9 1.5 5.1l0.7-0.7c0.7-0.7 1.8-0.7 2.5 0 0.7 0.7 0.7 1.8 0 2.5l-0.7 0.7c1.5 0.9 3.2 1.5 5.1 1.5 1.9 0 3.6-0.5 5.3-1.5z"/><path  d="m81.9 40.4c-1.1 0-2-0.9-2-2 0-1.1 0.9-2 2-2 1.1 0 2 0.9 2 2 0 1.1-0.9 2-2 2z"/><path  d="m81.9 48c-1.1 0-2-0.9-2-2 0-1.1 0.9-2 2-2 1.1 0 2 0.9 2 2 0 1.1-0.9 2-2 2z"/><path  d="m81.9 55.6c-1.1 0-2-0.9-2-2 0-1.1 0.9-2 2-2 1.1 0 2 0.9 2 2 0 1.1-0.9 2-2 2z"/></g></svg>