<svg version="1.2" xmlns="http://www.w3.org/2000/svg" viewBox="0 0 100 100" width="100" height="100"><style></style><filter id="f0"><feFlood flood-color="#ffffff" flood-opacity="1" /><feBlend mode="normal" in2="SourceGraphic"/><feComposite in2="SourceAlpha" operator="in" /></filter><g filter="url(#f0)"><path fill-rule="evenodd" d="m99.7 24.3v31.2c0 2.6-2.1 4.7-4.6 4.7h-90.4c-2.6 0-4.7-2-4.7-4.6v-31.3c0-2.5 2.1-4.6 4.7-4.6h90.4c2.5 0 4.6 2.1 4.6 4.6zm-3.1 0c0-0.8-0.7-1.5-1.5-1.5h-90.4c-0.9 0-1.6 0.7-1.6 1.5v31.3c0 0.8 0.7 1.6 1.6 1.6h4.7v-11c0-0.9 0.7-1.6 1.5-1.6h78c0.8 0 1.5 0.7 1.5 1.6v10.9h4.7c0.9 0 1.5-0.8 1.5-1.5zm-84.1 29.6v3.1h74.8v-3.1zm0-6.3v3.1h74.8v-3.1z"/><path  d="m17.2 29c-0.9 0-1.6 0.7-1.6 1.6v3.1c0 0.9 0.7 1.6 1.6 1.6 0.8 0 1.5-0.7 1.5-1.6v-3.1c0-0.9-0.7-1.6-1.5-1.6z"/><path  d="m23.3 29c-0.8 0-1.5 0.7-1.5 1.6v3.1c0 0.9 0.7 1.6 1.5 1.6 0.9 0 1.6-0.7 1.6-1.6v-3.1c0-0.9-0.7-1.6-1.6-1.6z"/><path  d="m82.6 29c-0.9 0-1.6 0.7-1.6 1.6v3.1c0 0.9 0.7 1.6 1.6 1.6 0.9 0 1.6-0.7 1.6-1.6v-3.1c0-0.9-0.7-1.6-1.6-1.6z"/><path fill-rule="evenodd" d="m48.3 41.5c-2.5 0-4.6-2.1-4.6-4.6 0-2.6 2.1-4.7 4.6-4.7 2.6 0 4.7 2.1 4.7 4.7 0 2.5-2.1 4.6-4.7 4.6zm1.6-4.6c0-0.9-0.7-1.6-1.6-1.6-0.8 0-1.5 0.7-1.5 1.6 0 0.8 0.7 1.5 1.5 1.5 0.9 0 1.6-0.7 1.6-1.5z"/><path  d="m49.9 63.3c-0.9 0-1.6 0.7-1.6 1.6v15.6c0 0.9 0.7 1.6 1.6 1.6 0.9 0 1.6-0.7 1.6-1.6v-15.6c0-0.9-0.7-1.6-1.6-1.6z"/><path  d="m40.5 63.3c-0.8 0-1.5 0.7-1.5 1.6 0 4.9-2 11.4-11.4 14.1-0.8 0.2-1.3 1.1-1.1 1.9 0.2 0.7 0.8 1.2 1.5 1.2q0.2 0 0.5-0.1c5.2-1.5 8.9-4.2 11.2-8 2-3.3 2.4-6.8 2.4-9.1 0-0.9-0.7-1.6-1.6-1.6z"/><path  d="m72.1 79c-9.4-2.7-11.4-9.2-11.4-14.1 0-0.9-0.7-1.6-1.5-1.6-0.9 0-1.6 0.7-1.5 1.6 0 2.3 0.3 5.8 2.3 9.1 2.3 3.8 6.1 6.5 11.2 8q0.3 0 0.5 0.1c0.7 0 1.3-0.5 1.5-1.2 0.2-0.8-0.3-1.7-1.1-1.9z"/></g></svg>