<svg version="1.2" xmlns="http://www.w3.org/2000/svg" viewBox="0 0 60 60" width="60" height="60"><style></style><filter id="f0"><feFlood flood-color="#ffffff" flood-opacity="1" /><feBlend mode="normal" in2="SourceGraphic"/><feComposite in2="SourceAlpha" operator="in" /></filter><g filter="url(#f0)"><path fill-rule="evenodd" d="m48 1c1.5 0.6 3 1.6 4.2 2.8 1.2 1.2 2.2 2.7 2.8 4.2 0.7 1.6 1 3.3 1 5v40q0 0.6-0.2 1.1-0.3 0.6-0.7 1-0.4 0.4-1 0.7-0.5 0.2-1.1 0.2h-1v3q0 0.2-0.1 0.4-0.1 0.2-0.2 0.3-0.1 0.1-0.3 0.2-0.2 0.1-0.4 0.1c-0.1 0-6.2 0-6.3 0q-0.1-0.1-0.2-0.1-0.1-0.1-0.2-0.2-0.1-0.1-0.2-0.2l-1.7-3.5h-26.8l-1.7 3.5q-0.1 0.1-0.2 0.2-0.1 0.1-0.2 0.2-0.1 0-0.2 0.1-0.2 0-0.3 0h-6q-0.2 0-0.4-0.1-0.2-0.1-0.3-0.2-0.1-0.1-0.2-0.3-0.1-0.2-0.1-0.4v-3h-1q-0.6 0-1.1-0.2-0.6-0.3-1-0.7-0.4-0.4-0.7-1-0.2-0.5-0.2-1.1v-40c0-1.7 0.3-3.4 1-5 0.6-1.5 1.6-3 2.8-4.2 1.2-1.2 2.7-2.2 4.2-2.8 1.6-0.7 3.3-1 5-1h28c1.7 0 3.4 0.3 5 1zm-34.6 55h-5.4v2h4.4zm36.6 0h-5.4l1 2h4.4zm4-26h-16v3q0 0.6-0.2 1.1-0.3 0.6-0.7 1-0.4 0.4-1 0.7-0.5 0.2-1.1 0.2h-1v9c0 1.3-0.5 2.6-1.5 3.5-0.9 1-2.2 1.5-3.5 1.5-1.3 0-2.6-0.5-3.5-1.5-1-0.9-1.5-2.2-1.5-3.5v-9h-1q-0.6 0-1.1-0.2-0.6-0.3-1-0.7-0.4-0.4-0.7-1-0.2-0.5-0.2-1.1v-3h-16v23q0 0.2 0.1 0.4 0.1 0.2 0.2 0.3 0.1 0.1 0.3 0.2 0.2 0.1 0.4 0.1h48q0.2 0 0.4-0.1 0.2-0.1 0.3-0.2 0.1-0.1 0.2-0.3 0.1-0.2 0.1-0.4zm-21.9-3.8q0.6 0.3 1 0.7 0.4 0.4 0.7 1 0.2 0.5 0.2 1.1v5h1q0.2 0 0.4-0.1 0.2-0.1 0.3-0.2 0.1-0.1 0.2-0.3 0.1-0.2 0.1-0.4v-8q0-0.2-0.1-0.4-0.1-0.2-0.2-0.3-0.1-0.1-0.3-0.2-0.2-0.1-0.4-0.1h-12q-0.2 0-0.4 0.1-0.2 0.1-0.3 0.2-0.1 0.1-0.2 0.3-0.1 0.2-0.1 0.4v8q0 0.2 0.1 0.4 0.1 0.2 0.2 0.3 0.1 0.1 0.3 0.2 0.2 0.1 0.4 0.1h1v-5q0-0.6 0.2-1.1 0.3-0.6 0.7-1 0.4-0.4 1-0.7 0.5-0.2 1.1-0.2h4q0.6 0 1.1 0.2zm-0.2 2.4q-0.1-0.2-0.2-0.3-0.1-0.1-0.3-0.2-0.2-0.1-0.4-0.1h-4q-0.2 0-0.4 0.1-0.2 0.1-0.3 0.2-0.1 0.1-0.2 0.3-0.1 0.2-0.1 0.4v16c0 0.8 0.3 1.6 0.9 2.1 0.5 0.6 1.3 0.9 2.1 0.9 0.8 0 1.6-0.3 2.1-0.9 0.6-0.5 0.9-1.3 0.9-2.1v-16q0-0.2-0.1-0.4zm22.1-15.6c0-1.4-0.3-2.9-0.8-4.2-0.6-1.3-1.4-2.6-2.4-3.6-1-1-2.3-1.8-3.6-2.4-1.3-0.5-2.8-0.8-4.2-0.8h-28c-1.4 0-2.9 0.3-4.2 0.8-1.3 0.6-2.6 1.4-3.6 2.4-1 1-1.8 2.3-2.4 3.6-0.5 1.3-0.8 2.8-0.8 4.2v15h16v-3q0-0.6 0.2-1.1 0.3-0.6 0.7-1 0.4-0.4 1-0.7 0.5-0.2 1.1-0.2h12q0.6 0 1.1 0.2 0.6 0.3 1 0.7 0.4 0.4 0.7 1 0.2 0.5 0.2 1.1v3h16z"/><path fill-rule="evenodd" d="m13.1 15.6q-0.9-0.4-1.6-1.1-0.7-0.7-1.1-1.6-0.4-0.9-0.4-1.9c0-2 1.2-3.8 3.1-4.6 1.9-0.8 4-0.4 5.4 1.1 1.5 1.4 1.9 3.5 1.1 5.4-0.8 1.9-2.6 3.1-4.6 3.1q-1 0-1.9-0.4zm0.8-7.4q-0.6 0.3-1 0.7-0.4 0.4-0.7 1-0.2 0.5-0.2 1.1c0 1.2 0.7 2.3 1.9 2.8 1.1 0.4 2.4 0.2 3.2-0.7 0.9-0.8 1.1-2.1 0.7-3.2-0.5-1.2-1.6-1.9-2.8-1.9q-0.6 0-1.1 0.2z"/><path fill-rule="evenodd" d="m47.1 8.9c0.6 0.5 0.9 1.3 0.9 2.1 0 0.8-0.3 1.6-0.9 2.1-0.5 0.6-1.3 0.9-2.1 0.9h-18c-0.8 0-1.6-0.3-2.1-0.9-0.6-0.5-0.9-1.3-0.9-2.1 0-0.8 0.3-1.6 0.9-2.1 0.5-0.6 1.3-0.9 2.1-0.9h18c0.8 0 1.6 0.3 2.1 0.9zm-11.1 2.6q0-0.2 0-0.5 0-0.3 0-0.5 0.1-0.3 0.2-0.5h-9.2q-0.4 0-0.7 0.3-0.3 0.3-0.3 0.7 0 0.4 0.3 0.7 0.3 0.3 0.7 0.3h9.2q-0.1-0.2-0.2-0.5zm3.4 0.4q0.2-0.1 0.3-0.2 0.1-0.1 0.2-0.3 0.1-0.2 0.1-0.4c0-0.4-0.2-0.8-0.6-0.9-0.4-0.2-0.8-0.1-1.1 0.2-0.3 0.3-0.4 0.7-0.2 1.1 0.1 0.4 0.5 0.6 0.9 0.6q0.2 0 0.4-0.1zm6.3-0.2q0.3-0.3 0.3-0.7 0-0.4-0.3-0.7-0.3-0.3-0.7-0.3h-3.2q0.1 0.2 0.2 0.5 0 0.2 0 0.5 0 0.3 0 0.5-0.1 0.3-0.2 0.5h3.2q0.4 0 0.7-0.3z"/></g></svg>