<svg version="1.2" xmlns="http://www.w3.org/2000/svg" viewBox="0 0 110 135" width="110" height="135"><style></style><filter id="f0"><feFlood flood-color="#ffffff" flood-opacity="1" /><feBlend mode="normal" in2="SourceGraphic"/><feComposite in2="SourceAlpha" operator="in" /></filter><g filter="url(#f0)"><path fill-rule="evenodd" d="m105 38.2v20.5c0 3.8-3.1 6.9-6.9 6.9h-86.2c-3.8 0-6.9-3.1-6.9-6.9v-20.5zm-11.4 19.5c0-0.9-0.7-1.6-1.6-1.6h-74c-0.9 0-1.7 0.7-1.7 1.6 0 0.8 0.8 1.6 1.7 1.6h74c0.9 0 1.7-0.8 1.6-1.6z"/><path  d="m105 33.4v1.6h-100v-1.6c0-3.8 3.1-6.9 6.9-6.9h86.2c3.8 0 6.9 3.1 6.9 6.9z"/><path  d="m32.4 82.3l-0.2-3.1c0-0.9-0.8-1.6-1.7-1.5-0.9 0-1.5 0.8-1.5 1.7l0.2 3.1c0 0.5-0.2 1-0.7 1.3-2.1 1.5-2.7 4.3-1.3 6.5l1.6 2.5c0.3 0.5 0.9 0.7 1.4 0.7q0.4 0 0.8-0.2c0.8-0.5 1-1.5 0.5-2.3l-1.6-2.5c-0.4-0.6-0.2-1.5 0.5-2 1.3-0.9 2.1-2.5 2-4.2z"/><path  d="m49.4 82.3l-0.1-3.1c-0.1-0.9-0.9-1.6-1.7-1.5-0.9 0-1.6 0.8-1.6 1.7l0.2 3.1c0.1 0.5-0.2 1-0.6 1.3-2.1 1.5-2.7 4.3-1.3 6.5l1.6 2.5c0.3 0.5 0.8 0.7 1.3 0.7q0.5 0 0.9-0.2c0.7-0.5 0.9-1.5 0.5-2.3l-1.6-2.5c-0.5-0.6-0.3-1.5 0.4-2 1.4-0.9 2.1-2.5 2-4.2z"/><path  d="m66.5 82.3l-0.2-3.1c0-0.9-0.8-1.6-1.7-1.5-0.9 0-1.6 0.8-1.5 1.7l0.2 3.1c0 0.5-0.3 1-0.7 1.3-2.1 1.5-2.7 4.3-1.3 6.5l1.6 2.5c0.3 0.5 0.8 0.7 1.4 0.7q0.4 0 0.8-0.2c0.8-0.5 1-1.5 0.5-2.3l-1.6-2.5c-0.4-0.6-0.2-1.5 0.4-2 1.4-0.9 2.2-2.5 2.1-4.2z"/><path  d="m83.5 82.3l-0.2-3.1c0-0.9-0.8-1.6-1.7-1.5-0.8 0-1.5 0.8-1.5 1.7l0.2 3.1c0 0.5-0.2 1-0.6 1.3-2.2 1.5-2.7 4.3-1.4 6.5l1.6 2.5c0.4 0.5 0.9 0.7 1.4 0.7q0.5 0 0.9-0.2c0.7-0.5 0.9-1.5 0.5-2.3l-1.7-2.5c-0.4-0.6-0.2-1.5 0.5-2 1.3-0.9 2.1-2.5 2-4.2z"/></g></svg>