<svg version="1.2" xmlns="http://www.w3.org/2000/svg" viewBox="0 0 90 90" width="90" height="90"><style></style><filter id="f0"><feFlood flood-color="#ffffff" flood-opacity="1" /><feBlend mode="normal" in2="SourceGraphic"/><feComposite in2="SourceAlpha" operator="in" /></filter><g filter="url(#f0)"><path fill-rule="evenodd" d="m88 5.3v77.4c0 2.5-1.7 4.5-4 5.1v1.1c0 0.6-0.5 1.1-1.1 1.1h-5.8c-0.6 0-1.1-0.5-1.1-1.1v-0.9h-60v0.9c0 0.6-0.5 1.1-1.1 1.1h-5.8c-0.6 0-1.1-0.5-1.1-1.1v-1.1c-2.3-0.6-4-2.6-4-5.1v-77.4c0-2.9 2.4-5.3 5.3-5.3h73.4c2.9 0 5.3 2.4 5.3 5.3zm-67.8-1.3c0.3 1.1 0.9 2.1 1.6 3 1.4 1.8 3.7 3 6.2 3h36c2.5 0 4.8-1.2 6.2-3 0.7-0.9 1.3-1.9 1.5-3zm-12.2 3h9.1q-0.7-1.4-0.9-3h-6.9c-0.7 0-1.3 0.6-1.3 1.3zm76 4h-12.1c-2.1 1.9-4.9 3-7.9 3h-36c-3 0-5.8-1.1-7.9-3h-12.1v71.7c0 0.7 0.6 1.3 1.3 1.3h73.4c0.7 0 1.3-0.6 1.3-1.3zm0-5.7c0-0.7-0.6-1.3-1.3-1.3h-6.9q-0.2 1.6-0.9 3h9.1z"/><path fill-rule="evenodd" d="m49 74h-6c-1.4 0-2.5-1.1-2.5-2.5 0-1.4 1.1-2.5 2.5-2.5h6c1.4 0 2.5 1.1 2.5 2.5 0 1.4-1.1 2.5-2.5 2.5z"/></g></svg>