<svg version="1.2" xmlns="http://www.w3.org/2000/svg" viewBox="0 0 84 84" width="84" height="84"><style></style><filter id="f0"><feFlood flood-color="#ffffff" flood-opacity="1" /><feBlend mode="normal" in2="SourceGraphic"/><feComposite in2="SourceAlpha" operator="in" /></filter><g filter="url(#f0)"><path fill-rule="evenodd" d="m74.8 26.4c0 1.4-0.6 2.6-1.6 3.5-0.1 12.1-7.2 22.6-17.5 27.6l6.2 24.7c0.2 0.9-0.3 1.7-1.1 1.9q-0.2 0.1-0.4 0.1c-0.7 0-1.3-0.5-1.5-1.2l-2.9-11.3h-28l-2.9 11.3c-0.2 0.7-0.8 1.2-1.5 1.2q-0.2 0-0.4-0.1c-0.8-0.2-1.3-1-1.1-1.9l6.2-24.7c-10-4.9-17-14.9-17.5-26.7-1.8-0.6-3.2-2.4-3.2-4.4 0-2.6 2.1-4.7 4.7-4.7h57.8c2.6 0 4.7 2.1 4.7 4.7zm-64.1 0c0 0.8 0.7 1.5 1.6 1.5h57.8c0.9 0 1.6-0.7 1.6-1.5 0-0.9-0.7-1.6-1.6-1.6h-57.8c-0.9 0-1.6 0.7-1.6 1.6zm44.6 42.2l-2.5-9.8c-3.4 1.2-7 2-10.8 2-3.8 0-7.4-0.8-10.8-2l-2.5 9.8zm14.8-37.5h-56.1c0.8 14.7 13.1 26.5 28.1 26.5 14.9 0 27.2-11.8 28-26.5z"/><path  d="m39.4 13.9c0 0.8 0.7 1.5 1.6 1.5 0.9 0 1.6-0.7 1.6-1.5 0-0.4 0.1-0.6 0.5-1 0.6-0.6 1.5-1.5 1.5-3.2 0-1.7-0.9-2.6-1.5-3.2-0.4-0.4-0.5-0.6-0.5-1 0-0.4 0.1-0.5 0.5-1 0.6-0.6 1.5-1.5 1.5-3.1 0-0.9-0.7-1.6-1.6-1.6-0.9 0-1.6 0.7-1.6 1.6 0 0.4-0.1 0.5-0.5 1-0.6 0.6-1.5 1.5-1.5 3.1 0 1.7 0.9 2.6 1.5 3.2 0.4 0.5 0.5 0.6 0.5 1 0 0.4-0.1 0.5-0.5 1-0.6 0.6-1.5 1.5-1.5 3.2z"/><path  d="m28.5 13.9c0 0.8 0.7 1.5 1.6 1.5 0.8 0 1.5-0.7 1.5-1.5 0-0.4 0.1-0.6 0.6-1 0.6-0.6 1.4-1.5 1.4-3.2 0-1.7-0.8-2.6-1.4-3.2-0.5-0.4-0.6-0.6-0.6-1 0-0.4 0.1-0.5 0.6-1 0.6-0.6 1.4-1.5 1.4-3.1 0-0.9-0.7-1.6-1.5-1.6-0.9 0-1.6 0.7-1.6 1.6 0 0.4-0.1 0.5-0.6 1-0.5 0.6-1.4 1.5-1.4 3.1 0 1.7 0.9 2.6 1.4 3.2 0.5 0.5 0.6 0.6 0.6 1 0 0.4-0.1 0.5-0.6 1-0.5 0.6-1.4 1.5-1.4 3.2z"/><path  d="m50.4 13.9c0 0.8 0.7 1.5 1.5 1.5 0.9 0 1.6-0.7 1.6-1.5 0-0.4 0.1-0.6 0.6-1 0.5-0.6 1.4-1.5 1.4-3.2 0-1.7-0.9-2.6-1.4-3.2-0.5-0.4-0.6-0.6-0.6-1 0-0.4 0.1-0.5 0.6-1 0.5-0.6 1.4-1.5 1.4-3.1 0-0.9-0.7-1.6-1.6-1.6-0.8 0-1.5 0.7-1.5 1.6 0 0.4-0.1 0.5-0.6 1-0.6 0.6-1.4 1.5-1.4 3.1 0 1.7 0.8 2.6 1.4 3.2 0.5 0.5 0.6 0.6 0.6 1 0 0.4-0.1 0.5-0.6 1-0.6 0.6-1.4 1.5-1.4 3.2z"/></g></svg>