<svg version="1.2" xmlns="http://www.w3.org/2000/svg" viewBox="0 0 370 370" width="370" height="370"><style></style><filter id="f0"><feFlood flood-color="#ffffff" flood-opacity="1" /><feBlend mode="normal" in2="SourceGraphic"/><feComposite in2="SourceAlpha" operator="in" /></filter><g filter="url(#f0)"><path fill-rule="evenodd" d="m363.8 301.5h-357.1c-3.2 0-5.8-2.6-5.8-5.8v-216.8c0-3.2 2.6-5.8 5.8-5.8h357.1c3.2 0 5.8 2.6 5.8 5.8v216.8c0 3.2-2.6 5.8-5.8 5.8zm-351.3-11.5h345.6v-205.3h-345.6z"/><path fill-rule="evenodd" d="m81.5 327h-31.9c-3.2 0-5.8-2.6-5.8-5.8v-25.5c0-3.2 2.6-5.8 5.8-5.8h31.9c3.2 0 5.8 2.6 5.8 5.8v25.5c-0.1 3.2-2.7 5.8-5.8 5.8zm-26.2-11.5h20.4v-14h-20.4z"/><path fill-rule="evenodd" d="m321 327h-31.9c-3.2 0-5.8-2.6-5.8-5.8v-25.5c0-3.2 2.6-5.8 5.8-5.8h31.9c3.2 0 5.8 2.6 5.8 5.8v25.5c-0.1 3.2-2.7 5.8-5.8 5.8zm-26.2-11.5h20.4v-14h-20.4z"/><path fill-rule="evenodd" d="m186.3 273.9c-3.2 0-5.8-2.6-5.8-5.8v-63.8c0-3.2 2.6-5.8 5.8-5.8 3.2 0 5.8 2.6 5.8 5.8v63.8c-0.1 3.2-2.7 5.8-5.8 5.8z"/><path fill-rule="evenodd" d="m186.3 176.2c-3.2 0-5.8-2.6-5.8-5.8v-63.9c0-3.2 2.6-5.8 5.8-5.8 3.2 0 5.8 2.6 5.8 5.8v63.9c-0.1 3.2-2.7 5.8-5.8 5.8z"/><path fill-rule="evenodd" d="m186.3 139.4c-1.5 0-3-0.6-4.1-1.7l-17.2-17.2c-2.2-2.2-2.2-5.9 0-8.1 2.2-2.2 5.9-2.2 8.1 0l13.1 13.1 13.1-13.1c2.2-2.2 5.9-2.2 8.1 0 2.2 2.2 2.2 5.9 0 8.1l-17.2 17.2c-0.9 1.1-2.4 1.7-3.9 1.7z"/><path fill-rule="evenodd" d="m169.1 266.8c-1.5 0-2.9-0.6-4.1-1.7-2.2-2.2-2.2-5.9 0-8.1l17.2-17.2c1.1-1.1 2.5-1.7 4.1-1.7 1.5 0 3 0.6 4.1 1.7l17.2 17.2c2.2 2.2 2.2 5.9 0 8.1-2.2 2.2-5.9 2.2-8.1 0l-13.2-13.1-13.1 13.1c-1.2 1.1-2.6 1.7-4.1 1.7z"/><path fill-rule="evenodd" d="m201 218.5c-1 0-2-0.3-2.9-0.8l-11.8-6.8-11.8 6.8c-1.8 1-4 1-5.8 0-1.8-1-2.9-2.9-2.9-5v-13.6l-11.8-6.8c-1.8-1-2.9-2.9-2.9-5 0-2.1 1.1-4 2.9-5l11.8-6.8v-13.5c0-2.1 1.1-4 2.9-5 1.8-1 4-1 5.8 0l11.8 6.8 11.8-6.8c1.8-1 4-1 5.8 0 1.8 1 2.9 2.9 2.9 5v13.6l11.8 6.8c1.8 1 2.9 2.9 2.9 5 0 2.1-1.1 4-2.9 5l-11.8 6.8v13.6c0 2.1-1.1 4-2.9 5-0.9 0.5-1.9 0.7-2.9 0.7zm-32.5-31.1l6 3.5c1.8 1 2.9 2.9 2.9 5v6.9l6-3.5c1.8-1 4-1 5.8 0l6 3.5v-6.9c0-2.1 1.1-4 2.9-5l6-3.5-6-3.5c-1.8-1-2.9-2.9-2.9-5v-6.9l-6 3.5c-1.8 1-4 1-5.8 0l-6-3.5v6.9c0 2.1-1.1 4-2.9 5z"/><path fill-rule="evenodd" d="m116.5 233.8c-2 0-3.9-1-5-2.9-1.6-2.7-0.7-6.3 2.1-7.9l55.1-32.1c2.7-1.6 6.3-0.7 7.9 2.1 1.6 2.7 0.7 6.3-2.1 7.9l-55.1 32.1c-0.9 0.5-1.9 0.8-2.9 0.8z"/><path fill-rule="evenodd" d="m201 184.5c-2 0-3.9-1-5-2.9-1.6-2.7-0.7-6.3 2.1-7.9l55-32.1c2.7-1.6 6.3-0.7 7.9 2.1 1.6 2.7 0.7 6.3-2.1 7.9l-23.4 13.6-31.7 18.5c-0.8 0.6-1.8 0.8-2.8 0.8z"/><path fill-rule="evenodd" d="m256.1 172.2c-0.5 0-1-0.1-1.5-0.2l-23.5-6.2c-1.5-0.4-2.7-1.3-3.5-2.7-0.8-1.3-1-2.9-0.6-4.4l6.2-23.5c0.8-3.1 4-4.9 7-4.1 3.1 0.8 4.9 4 4.1 7l-4.7 17.9 17.9 4.7c3.1 0.8 4.9 4 4.1 7-0.6 2.8-2.9 4.5-5.5 4.5z"/><path fill-rule="evenodd" d="m131.3 245.1c-0.5 0-1-0.1-1.5-0.2-3.1-0.8-4.9-4-4.1-7l4.7-17.9-17.9-4.7c-3.1-0.8-4.9-4-4.1-7 0.8-3.1 4-4.9 7-4.1l23.5 6.2c1.5 0.4 2.7 1.3 3.5 2.7 0.8 1.3 1 2.9 0.6 4.4l-6.2 23.5c-0.6 2.3-3 4.1-5.5 4.1z"/><path fill-rule="evenodd" d="m170.1 185.6c-0.9 0-1.9-0.2-2.8-0.7l-54.6-30c-2.8-1.5-3.8-5-2.3-7.8 1.5-2.8 5-3.8 7.8-2.3l54.6 30c2.8 1.5 3.8 5 2.3 7.8-1 1.9-3 3-5 3z"/><path fill-rule="evenodd" d="m257.1 233.3c-0.9 0-1.9-0.2-2.8-0.7l-23.7-13-32.2-17.6c-2.8-1.5-3.8-5-2.3-7.8 1.5-2.8 5-3.8 7.8-2.3l55.9 30.6c2.8 1.5 3.8 5 2.3 7.8-1 1.9-3 3-5 3z"/><path fill-rule="evenodd" d="m240.2 243.6c-2.5 0-4.8-1.6-5.5-4.1l-6.8-23.3c-0.4-1.5-0.3-3 0.5-4.4 0.8-1.4 2-2.3 3.4-2.8l23.3-6.8c3.1-0.9 6.3 0.9 7.1 3.9 0.9 3.1-0.9 6.3-3.9 7.1l-17.8 5.2 5.2 17.8c0.9 3.1-0.9 6.3-3.9 7.1-0.6 0.2-1.1 0.3-1.6 0.3z"/><path fill-rule="evenodd" d="m113.4 174.1c-2.5 0-4.8-1.6-5.5-4.1-0.9-3.1 0.9-6.3 3.9-7.1l17.8-5.2-5.2-17.8c-0.9-3.1 0.9-6.3 3.9-7.1 3.1-0.9 6.3 0.9 7.1 3.9l6.8 23.3c0.4 1.5 0.3 3-0.5 4.4-0.8 1.4-2 2.3-3.4 2.8l-23.3 6.8c-0.5 0-1 0.1-1.6 0.1z"/><path fill-rule="evenodd" d="m363.8 84.7h-357.1c-3.2 0-5.8-2.6-5.8-5.8v-14.7c0-10.9 8.9-19.8 19.8-19.8h329.1c10.9 0 19.8 8.9 19.8 19.8v14.7c0 3.2-2.6 5.8-5.8 5.8zm-351.3-11.5h345.6v-8.9c0-4.5-3.7-8.2-8.2-8.2h-329.2c-4.5 0-8.2 3.7-8.2 8.2z"/></g></svg>