<svg version="1.2" xmlns="http://www.w3.org/2000/svg" viewBox="0 0 62 62" width="62" height="62"><style></style><filter id="f0"><feFlood flood-color="#ffffff" flood-opacity="1" /><feBlend mode="normal" in2="SourceGraphic"/><feComposite in2="SourceAlpha" operator="in" /></filter><g filter="url(#f0)"><path fill-rule="evenodd" d="m2 53c0-1.7 0.3-3.4 1-5 0.6-1.6 1.6-3 2.8-4.2 1.2-1.2 2.6-2.2 4.2-2.8 1.6-0.7 3.3-1 5-1h7v-6q0-1.4 0.5-2.7 0.6-1.3 1.6-2.2 0.9-1 2.2-1.6 1.3-0.5 2.7-0.5h17q0.2 0 0.4-0.1 0.2-0.1 0.3-0.2 0.1-0.1 0.2-0.3 0.1-0.2 0.1-0.4v-6.5c-4.7-1.4-7.6-6.1-6.9-11 0.8-4.9 5-8.5 9.9-8.5 4.9 0 9.1 3.6 9.9 8.5 0.7 4.9-2.2 9.6-6.9 11v6.5q0 1.4-0.5 2.7-0.6 1.3-1.6 2.2-0.9 1-2.2 1.6-1.3 0.5-2.7 0.5h-17q-0.2 0-0.4 0.1-0.2 0.1-0.3 0.2-0.1 0.1-0.2 0.3-0.1 0.2-0.1 0.4v6h7c1.7 0 3.4 0.3 5 1 1.6 0.6 3 1.6 4.2 2.8 1.2 1.2 2.2 2.6 2.8 4.2 0.7 1.6 1 3.3 1 5v9h-46zm46.5-46.7q-0.8 0.3-1.3 0.9-0.6 0.5-0.9 1.3-0.3 0.7-0.3 1.5c0 1.6 1 3.1 2.5 3.7 1.5 0.6 3.2 0.3 4.3-0.9 1.2-1.1 1.5-2.8 0.9-4.3-0.6-1.5-2.1-2.5-3.7-2.5q-0.8 0-1.5 0.3zm-36.2 40.2q-1.3 0.6-2.2 1.6-1 0.9-1.6 2.2-0.5 1.3-0.5 2.7v3h34v-3q0-1.4-0.5-2.7-0.6-1.3-1.6-2.2-0.9-1-2.2-1.6-1.3-0.5-2.7-0.5h-20q-1.4 0-2.7 0.5z"/><path  d="m23 13c-1.7 0-3-1.3-3-3 0-1.7 1.3-3 3-3 1.7 0 3 1.3 3 3 0 1.7-1.3 3-3 3z"/><path  d="m5 13c-1.7 0-3-1.3-3-3 0-1.7 1.3-3 3-3 1.7 0 3 1.3 3 3 0 1.7-1.3 3-3 3z"/><path  d="m14 26c-1.7 0-3-1.3-3-3 0-1.7 1.3-3 3-3 1.7 0 3 1.3 3 3 0 1.7-1.3 3-3 3z"/></g></svg>