<svg version="1.2" xmlns="http://www.w3.org/2000/svg" viewBox="0 0 88 88" width="88" height="88"><style>.a{fill:#fff}</style><path fill-rule="evenodd" class="a" d="m78.4 75.3v3.1c0 5.2-4.2 9.4-9.4 9.4h-50c-5.2 0-9.4-4.2-9.4-9.4v-3.1c0-7.7 2.6-15.1 7.3-21.1 4.7-6.1 11.3-10.4 18.7-12.2-3.1-1.6-5.7-4-7.6-6.9-1.8-3-2.7-6.4-2.7-9.8v-15.7c0-5.2 4.1-9.3 9.3-9.3h18.8c5.2 0 9.4 4.1 9.4 9.3v15.7c-0.1 3.4-1 6.8-2.8 9.8-1.9 2.9-4.5 5.3-7.6 6.9 7.4 1.8 14 6.1 18.7 12.2 4.7 6 7.3 13.4 7.3 21.1zm-6.3 0c0-5.1-1.3-10-3.9-14.3-2.5-4.3-6.2-7.9-10.5-10.3l-10.6 13.1v17.7h21.9c0.8 0 1.6-0.3 2.2-0.9 0.6-0.6 0.9-1.4 0.9-2.2zm-40.6-62.5h25v-3.1c0-0.9-0.3-1.7-0.9-2.3-0.6-0.5-1.4-0.9-2.2-0.9h-18.8c-1.7 0-3.1 1.4-3.1 3.2zm12.5 25c3.3 0 6.5-1.4 8.8-3.7 2.4-2.4 3.7-5.5 3.7-8.8v-6.3h-25v6.3c0 3.3 1.3 6.4 3.7 8.8 2.3 2.3 5.5 3.7 8.8 3.7zm0 9.3c-2.6 0-5.2 0.4-7.6 1.1l7.6 9.6 7.6-9.6c-2.4-0.7-5-1.1-7.6-1.1zm-25 34.4h21.9v-17.7l-10.6-13.1c-4.3 2.4-8 6-10.5 10.3-2.6 4.3-3.9 9.2-3.9 14.3v3.1c0 0.8 0.3 1.6 0.9 2.2 0.6 0.6 1.4 0.9 2.2 0.9zm43.8-12.5c1.7 0 3.1 1.4 3.1 3.1 0 1.8-1.4 3.2-3.1 3.2h-6.3c-1.7 0-3.1-1.4-3.1-3.2 0-1.7 1.4-3.1 3.1-3.1z"/></svg>