<svg version="1.2" xmlns="http://www.w3.org/2000/svg" viewBox="0 0 88 88" width="88" height="88"><style>.a{fill:#fff}</style><path fill-rule="evenodd" class="a" d="m87.8 10.2v65.6c0 4.3-3.6 7.8-7.9 7.8l-24.1-3.1h24.1c2.6 0 4.7-2.1 4.7-4.7v-65.6c0-2.6-2.1-4.7-4.7-4.7h-21.8v6.2c0 1.8-1.4 3.2-3.2 3.2h-21.8c-1.8 0-3.2-1.4-3.2-3.2v-6.2h-21.8c-2.6 0-4.7 2.1-4.7 4.7v10.9h75c2 0.1 2 3.1 0 3.2h-75v51.5c0 2.6 2.1 4.7 4.7 4.7h0.2c-0.1 1.6-0.2 2.8-0.2 3.1-4.3 0-7.8-3.5-7.8-7.8v-65.6c0-4.3 3.5-7.8 7.8-7.8h71.8c4.3 0 7.9 3.5 7.9 7.8zm-78.9 64.3c0.2-1 0.4-1.7 0.7-1.7h15.2c-2.6-2.3-4.2-5.7-4.2-9.4 0-0.9 0.7-1.6 1.5-1.6h2.7c-2.6-2.3-4.2-5.6-4.2-9.4 0-0.8 0.7-1.5 1.5-1.5h2.7c-2.6-2.3-4.2-5.7-4.2-9.4 0-0.9 0.7-1.6 1.5-1.6h43.8c0.8 0 1.5 0.7 1.5 1.6 0 3.7-1.6 7.1-4.2 9.4h2.7c0.8 0 1.5 0.7 1.5 1.5 0 3.8-1.6 7.1-4.2 9.4h2.7c0.8 0 1.5 0.7 1.5 1.6 0 3.7-1.6 7.1-4.2 9.4h13.6v-40.7h-65.6v34.4c0 0.9-0.7 1.6-1.6 1.6-0.8 0-1.5-0.7-1.5-1.6v-35.9c0-0.9 0.7-1.6 1.5-1.6h68.8c0.8 0 1.5 0.7 1.5 1.6v43.7c0 0.9-0.7 1.6-1.5 1.6 0 0-38 0-58.3 0l35.7 4.6h-47.5c0.1-1.5 0.2-3.4 0.4-4.9-0.4-0.2-0.6-0.7-0.6-1.2zm0.7 1.4c2.1 0 5.8 0 10.5 0l-11.2-1.4q-0.1 0.5-0.2 1.1 0.3 0.3 0.9 0.3zm23.5-64.1h21.8v-6.3h-21.8zm-20.3 3.1c-2.1 0-2.1-3 0-3.1 2 0.1 2 3.1 0 3.1zm7.8 0c-2.1 0-2.1-3 0-3.1 2 0.1 2 3.1 0 3.1zm46.8 0c-2 0-2-3 0-3.1 2.1 0.1 2.1 3.1 0 3.1zm7.9 0c-2.1 0-2.1-3 0-3.1 2 0.1 2 3.1 0 3.1zm-42.2 36h21.8c4.7 0 8.5-3.4 9.3-7.8h-40.4c0.8 4.4 4.6 7.8 9.3 7.8zm0 10.9h21.8c4.7 0 8.5-3.4 9.3-7.8h-40.4c0.8 4.4 4.6 7.8 9.3 7.8zm21.8 11c4.7 0 8.5-3.4 9.3-7.9h-40.4c0.8 4.5 4.6 7.9 9.3 7.9z"/></svg>