<svg version="1.2" xmlns="http://www.w3.org/2000/svg" viewBox="0 0 98 98" width="98" height="98"><style>.a{fill:#fff}</style><path fill-rule="evenodd" class="a" d="m98.2 86.6v5.7c0 3.2-2.6 5.8-5.9 5.8h-86.6c-3.3 0-5.9-2.6-5.9-5.8v-5.7c0-2.2 1.3-4.2 3.2-5.2v-35.4c0.1-16.4 8.9-31.5 23.1-39.6 14.2-8.1 31.7-8.1 45.9 0 14.1 8.1 23 23.2 23.1 39.6v35.5c1.9 1 3.1 2.9 3.1 5.1zm-90.2-5.8h7.3v-34.8c0-12.1 6.4-23.2 16.9-29.3 10.4-6 23.3-6 33.7 0 10.5 6.1 16.9 17.2 16.9 29.3v34.8h7.3v-34.8c-0.1-14.6-8-28-20.6-35.3-12.7-7.2-28.2-7.2-40.9 0-12.6 7.3-20.5 20.7-20.6 35.3zm62.6-10.1c-0.9 3.8-2.8 7.3-5.6 10.1h12.8v-34.9c0-10.2-5.5-19.7-14.4-24.8-8.9-5.2-19.8-5.2-28.7 0-8.9 5.1-14.4 14.6-14.4 24.8v34.8h12.3c-2-2-3.4-4.3-4.4-6.9-2-5.6-1.7-11.8 0.8-17.2 0.7-1.5 2.3-2.5 4-2.4 1.7 0.1 3.2 1.2 3.8 2.8q0.3 0.9 0.5 1.3c4-4.1 6.6-9.3 7.7-15 0.3-1.4 1.4-2.6 2.8-3.1 1.5-0.4 3.1 0 4.2 1.1 3.5 3.4 6.1 7.6 7.5 12.2q0.2-0.3 0.5-0.8c0.7-1.3 2-2.1 3.5-2.1 1.5 0 2.9 0.8 3.7 2 3.5 5.3 4.8 11.8 3.4 18.1zm-25.5 8.6c0.1 0.3 0.5 1.2 3 1.4h1.8c2.3-0.2 2.7-1.1 2.8-1.4 1-2.1-0.7-6.9-3.8-11-3.1 4.1-4.8 8.9-3.8 11zm10-23c-1-3.9-2.9-7.4-5.6-10.4-1.4 6.2-4.6 11.9-9.1 16.4-1 1.2-2.6 1.8-4.2 1.6-1.5-0.5-2.8-1.7-3.4-3.3-1.3 3.7-1.3 7.7 0.1 11.4 1.3 3.6 3.9 6.5 7.3 8.3-1.3-4.7 1.7-10.9 4.8-15.1 1-1.2 2.4-1.9 3.9-1.9h0.1c1.5 0 2.9 0.7 3.8 1.9 3.2 4.2 6.2 10.5 4.8 15.2 4-2.5 6.9-6.3 8.2-10.9 1-4.5 0.2-9.2-2.2-13.1-0.9 1.9-2.7 3.1-4.8 3.2-1.1-0.1-2.7-0.7-3.7-3.3zm38.1 30.3q0-0.4-0.3-0.6-0.2-0.3-0.6-0.3h-86.6c-0.5 0-0.9 0.4-0.9 0.9v5.7c0 0.4 0.4 0.8 0.9 0.8h86.6q0.4 0 0.6-0.3 0.3-0.2 0.3-0.5z"/></svg>