<svg version="1.2" xmlns="http://www.w3.org/2000/svg" viewBox="0 0 82 82" width="82" height="82"><style>.a{fill:#fff}</style><path fill-rule="evenodd" class="a" d="m72.3 31.9v18.4c0 2.7-1.2 5.2-3.1 6.9-0.4 0.3-0.8 0.5-1.3 0.5-0.5 0-1-0.2-1.3-0.6-0.7-0.8-0.6-2 0.1-2.6 1.2-1.1 1.9-2.6 1.9-4.2v-18.4c0-3-2.5-5.5-5.5-5.5h-16.6c-1 0-1.8-0.8-1.8-1.8 0-1 0.8-1.9 1.8-1.9h12.9v-1.8c0-1-0.8-1.8-1.8-1.8h-14.8v46h11.1c1 0 1.8 0.8 1.8 1.8 0 1-0.8 1.8-1.8 1.8h-25.8c-1 0-1.8-0.8-1.8-1.8 0-1 0.8-1.8 1.8-1.8h11.1v-9.8c-1.8-0.2-3.4-0.8-4.7-1.5-3.2-2-8.4-2.1-11.9-0.5v22.8c0 1 0.8 1.8 1.8 1.8h33.2c1 0 1.8-0.8 1.8-1.8v-22.8c-3.4-1.5-8.9-1.4-11.9 0.4-0.9 0.6-2 0.3-2.6-0.6-0.5-0.8-0.2-2 0.7-2.5 2.2-1.4 5.2-2.1 8.3-2.1 1.9 0 3.8 0.3 5.5 0.9v-17.5c0-1 0.8-1.8 1.8-1.8 1.1 0 1.9 0.8 1.9 1.8v44.2c0 3-2.5 5.5-5.5 5.5h-33.2c-3 0-5.5-2.5-5.5-5.5v-23.9c0-0.7 0.4-1.3 0.9-1.6 4.7-2.8 12-2.8 16.6 0 0.8 0.4 1.7 0.8 2.8 0.9v-25.1h-25.8v0.6c0 1.5 0.6 2.9 1.6 3.9l3.8 3.9c2.5 2.4 3.8 5.6 3.8 9.1 0 1-0.8 1.8-1.8 1.8-1.1 0-1.9-0.8-1.9-1.8 0-2.5-0.9-4.8-2.7-6.5l-3.8-3.8c-1.7-1.8-2.7-4.1-2.7-6.6v-2.4c0-1 0.8-1.9 1.9-1.9h7.3v-1.8c0-3 2.5-5.5 5.5-5.5h14.8v-4c-2.2-0.8-3.7-2.8-3.7-5.2 0-3.1 2.5-5.5 5.5-5.5 3 0 5.5 2.4 5.5 5.5 0 2.4-1.5 4.4-3.7 5.2v4h14.8c3 0 5.5 2.5 5.5 5.5v1.8c5.1 0 9.2 4.2 9.2 9.2zm-33.1-25.7c0 1 0.8 1.8 1.8 1.8 1 0 1.8-0.8 1.8-1.8 0-1-0.8-1.9-1.8-1.9-1 0-1.8 0.9-1.8 1.9zm0 12.9h-14.8c-1 0-1.8 0.8-1.8 1.8v1.8h16.6z"/></svg>