<svg version="1.2" xmlns="http://www.w3.org/2000/svg" viewBox="0 0 110 135" width="110" height="135"><style></style><filter id="f0"><feFlood flood-color="#ffffff" flood-opacity="1" /><feBlend mode="normal" in2="SourceGraphic"/><feComposite in2="SourceAlpha" operator="in" /></filter><g filter="url(#f0)"><path fill-rule="evenodd" d="m77.3 43h-44.6v-23.2c0-1.9 1.6-3.6 3.6-3.6h37.4c2 0 3.6 1.7 3.6 3.6zm-35.5-13.5c0-1.9-1.5-3.5-3.5-3.5-0.9 0-1.6 0.7-1.6 1.5 0 0.9 0.7 1.6 1.6 1.6 0.2 0 0.4 0.2 0.4 0.4v7.2c0 0.2-0.2 0.4-0.4 0.4-0.9 0-1.6 0.7-1.6 1.6 0 0.8 0.7 1.5 1.6 1.5 2 0 3.5-1.6 3.5-3.5z"/><path fill-rule="evenodd" d="m32.7 46.2h44.6v49.4c0 1.9-1.6 3.5-3.6 3.5h-37.4c-2 0-3.6-1.6-3.6-3.5zm6 6.3v7.2c0 0.2-0.2 0.4-0.4 0.4-0.9 0-1.6 0.7-1.6 1.6 0 0.8 0.7 1.5 1.6 1.5 2 0 3.5-1.5 3.5-3.5v-7.2c0-1.9-1.5-3.5-3.5-3.5-0.9 0-1.6 0.7-1.6 1.5 0 0.9 0.7 1.6 1.6 1.6 0.2 0 0.4 0.2 0.4 0.4z"/><path  d="m67.2 102.3h5.1v1.4h-5.1z"/><path  d="m37.7 102.3h5.1v1.4h-5.1z"/></g></svg>