<svg version="1.2" xmlns="http://www.w3.org/2000/svg" viewBox="0 0 40 40" width="40" height="40"><style>.a{fill:#fff}</style><path fill-rule="evenodd" class="a" d="m12.1 17.5q0.1-0.1 0.2-0.2 0.1-0.1 0.2-0.2 0.1 0 0.2-0.1 0.2 0 0.3 0h3q0.4 0 0.7 0.3 0.3 0.3 0.3 0.7 0 0.4-0.3 0.7-0.3 0.3-0.7 0.3h-2.4l-1 2h14.8l-1-2h-2.4q-0.4 0-0.7-0.3-0.3-0.3-0.3-0.7 0-0.4 0.3-0.7 0.3-0.3 0.7-0.3c0.1 0 3.2 0 3.3 0q0.1 0.1 0.2 0.1 0.1 0.1 0.2 0.2 0.1 0.1 0.2 0.3l1.7 3.4h1q0.6 0 1.3 0.2 0.6 0.3 1.2 0.7 0.5 0.4 0.9 1 0.3 0.6 0.5 1.3l1.3 6.8h1.2q0.2 0 0.4 0.1 0.2 0.1 0.3 0.2 0.1 0.1 0.2 0.3 0.1 0.2 0.1 0.4v4q0 0.2-0.1 0.4-0.1 0.2-0.2 0.3-0.1 0.1-0.3 0.2-0.2 0.1-0.4 0.1h-2v2q0 0.2-0.1 0.4-0.1 0.2-0.2 0.3-0.1 0.1-0.3 0.2-0.2 0.1-0.4 0.1h-4q-0.2 0-0.4-0.1-0.2-0.1-0.3-0.2-0.1-0.1-0.2-0.3-0.1-0.2-0.1-0.4v-2h-18v2q0 0.2-0.1 0.4-0.1 0.2-0.2 0.3-0.1 0.1-0.3 0.2-0.2 0.1-0.4 0.1h-4q-0.2 0-0.4-0.1-0.2-0.1-0.3-0.2-0.1-0.1-0.2-0.3-0.1-0.2-0.1-0.4v-2h-2q-0.2 0-0.4-0.1-0.2-0.1-0.3-0.2-0.1-0.1-0.2-0.3-0.1-0.2-0.1-0.4v-4q0-0.2 0.1-0.4 0.1-0.2 0.2-0.3 0.1-0.1 0.3-0.2 0.2-0.1 0.4-0.1h1.2l1.3-6.8q0.2-0.7 0.5-1.3 0.4-0.6 0.9-1 0.6-0.4 1.2-0.7 0.7-0.2 1.3-0.2h1zm-3.1 19.5h-2v1h2zm24 0h-2v1h2zm-29-4v2h32v-2zm28.3-9q-0.2-0.3-0.4-0.5-0.2-0.1-0.4-0.3-0.2-0.1-0.5-0.2-0.2 0-0.5 0c-0.1 0-21.4 0-21.6 0q-0.3 0.1-0.5 0.2-0.2 0.2-0.4 0.3-0.2 0.2-0.3 0.5c0.1 0 3.6 0 3.7 0q0.1 0.1 0.3 0.2 0.1 0.2 0.2 0.4 0.1 0.2 0.1 0.4v4q0 0.1-0.1 0.3-0.1 0.2-0.2 0.4-0.2 0.1-0.3 0.2-0.2 0-0.4 0.1h-4.6l-0.2 1h27.6l-0.3-1h-4.5q-0.2-0.1-0.4-0.1-0.2-0.1-0.3-0.2-0.2-0.2-0.3-0.4 0-0.2 0-0.3c0-0.1 0-4.3 0-4.4q0.1-0.2 0.3-0.4 0.1-0.1 0.3-0.2 0.2 0 0.4 0zm-11.2 0.2q0.6 0.2 1 0.6 0.4 0.5 0.7 1 0.2 0.6 0.2 1.2c0 1.2-0.7 2.3-1.9 2.7-1.1 0.5-2.4 0.2-3.2-0.6-0.9-0.9-1.1-2.2-0.7-3.3 0.5-1.1 1.6-1.8 2.8-1.8q0.6 0 1.1 0.2zm-14.3 3.8h3.2v-2h-2.8zm23.2-2v2h3.2l-0.4-2zm-10.4 0q-0.2 0.1-0.3 0.2-0.2 0.2-0.3 0.4 0 0.2 0 0.4 0 0.6 0.6 0.9c0.4 0.1 0.8 0 1.1-0.2 0.3-0.3 0.3-0.8 0.2-1.1q-0.3-0.6-0.9-0.6-0.2 0-0.4 0zm-2.3-9.6q-1.3-0.5-2.3-1.5-1-1-1.5-2.3-0.5-1.3-0.5-2.6 0-0.7 0.2-1.4 0.2-0.6 0.5-1.2 0.4-0.5 0.9-1 0.4-0.5 1-0.8c0.6-0.6 1.3-1 2-1.6q0.3-0.3 0.6-0.6 0.2-0.4 0.4-0.8 0.2-0.4 0.3-0.8 0.1-0.4 0.1-0.8 0-0.2 0-0.3 0-0.2 0.1-0.3 0.1-0.1 0.2-0.2 0.1-0.1 0.2-0.1 0.1-0.1 0.3-0.1 0.1 0 0.2 0 0.2 0 0.3 0 0.1 0 0.2 0.1 0.6 0.4 1.2 0.9 0.5 0.4 1 0.9 0.5 0.5 1 1 0.5 0.6 0.9 1.1 0.6 0.6 1 1.3 0.4 0.7 0.7 1.5 0.3 0.7 0.5 1.5 0.1 0.8 0.2 1.7 0 1.2-0.5 2.4-0.4 1.2-1.3 2.2-0.8 0.9-2 1.5-1.1 0.6-2.4 0.8c-0.2 0.1-0.8 0.1-0.8 0.1q-1.4 0-2.7-0.6zm4-1.7q0.3-0.2 0.6-0.5 0.2-0.3 0.3-0.7 0.2-0.4 0.2-0.7 0-0.4-0.1-0.7-0.1-0.3-0.2-0.5-0.1-0.3-0.3-0.6-0.1-0.2-0.3-0.5-0.2-0.2-0.3-0.3-0.2-0.2-0.4-0.4-0.1-0.1-0.3-0.3-0.2-0.1-0.3-0.3-0.2 0.2-0.4 0.3-0.1 0.2-0.3 0.3-0.2 0.2-0.3 0.4-0.2 0.1-0.3 0.3-0.2 0.3-0.4 0.5-0.1 0.3-0.3 0.6-0.1 0.2-0.1 0.5-0.1 0.3-0.1 0.7 0 0.4 0.1 0.8 0.2 0.4 0.5 0.7 0.3 0.3 0.7 0.5 0.4 0.1 0.8 0.2h0.5q0.3-0.1 0.7-0.3zm3.1-2.3q0-0.1 0-0.1-0.1 0-0.1 0.1zm0.2-0.6q0.1-0.3 0.2-0.6 0.1-0.3 0.1-0.6 0.1-0.3 0.1-0.6-0.1-0.7-0.2-1.3-0.2-0.7-0.4-1.3-0.2-0.6-0.6-1.1-0.3-0.6-0.7-1.1-0.3-0.3-0.6-0.6-0.3-0.3-0.6-0.6-0.2-0.4-0.6-0.6-0.3-0.3-0.6-0.6-0.2 0.6-0.5 1.1-0.3 0.5-0.7 1-0.4 0.5-0.9 0.9-0.4 0.4-0.9 0.7c-1.3 0.9-2.6 1.7-2.7 3.5q-0.1 0.4 0 0.8 0.1 0.4 0.2 0.8 0.1 0.4 0.3 0.8 0.2 0.3 0.5 0.7 0-0.2 0-0.3 0-0.5 0.1-1 0.1-0.4 0.3-0.9 0.1-0.4 0.4-0.8 0.2-0.4 0.5-0.8 0.3-0.3 0.5-0.6 0.3-0.3 0.6-0.6 0.3-0.2 0.6-0.5 0.3-0.3 0.6-0.5 0.1-0.1 0.3-0.1 0.1 0 0.3 0 0.1 0 0.3 0 0.1 0 0.2 0.1 0.3 0.2 0.7 0.5 0.3 0.3 0.6 0.5 0.2 0.3 0.5 0.6 0.3 0.3 0.5 0.6 0.3 0.3 0.5 0.7 0.2 0.3 0.4 0.7 0.2 0.4 0.3 0.8 0.1 0.4 0.2 0.8 0.1-0.3 0.2-0.5z"/></svg>