<svg version="1.2" xmlns="http://www.w3.org/2000/svg" viewBox="0 0 42 42" width="42" height="42"><style>.a{fill:#fff}</style><path fill-rule="evenodd" class="a" d="m35.5 17.5v13.4q0.6 0.1 1.5 0.1c0.3 0 0.5 0.2 0.5 0.5 0 0.3-0.2 0.5-0.5 0.5-1.7 0-2.5-0.3-3.4-0.5-0.7-0.3-1.5-0.5-3-0.5-1.5 0-2.3 0.2-3 0.5-0.9 0.2-1.7 0.5-3.4 0.5-1.7 0-2.5-0.3-3.3-0.5-0.8-0.3-1.6-0.5-3.1-0.5-1.5 0-2.3 0.2-3.1 0.5-0.8 0.2-1.6 0.5-3.3 0.5-1.7 0-2.5-0.3-3.3-0.5-0.8-0.3-1.6-0.5-3.1-0.5-0.3 0-0.5-0.2-0.5-0.5 0-0.3 0.2-0.5 0.5-0.5q0.9 0 1.5 0.1v-12.6h-1.5c-0.3 0-0.5-0.2-0.5-0.5v-3c0-0.3 0.2-0.5 0.5-0.5h1.5v-11.5c0-0.8 0.7-1.5 1.5-1.5h1c0.8 0 1.5 0.7 1.5 1.5v11.5h6v-3.5c0-0.3 0.2-0.5 0.5-0.5 0.3 0 0.5 0.2 0.5 0.5v3.5h7v-3.5c0-0.3 0.2-0.5 0.5-0.5 0.3 0 0.5 0.2 0.5 0.5v3.5h6v-11.5c0-0.8 0.7-1.5 1.5-1.5h1c0.8 0 1.5 0.7 1.5 1.5v11.5h1.5c0.3 0 0.5 0.2 0.5 0.5v3c0 0.3-0.2 0.5-0.5 0.5zm-28-4h2v-11.5c0-0.3-0.2-0.5-0.5-0.5h-1c-0.3 0-0.5 0.2-0.5 0.5zm2 4h-2v12.8q0.5 0.1 0.8 0.2 0.6 0.2 1.2 0.3zm7-1v-2h-11v2zm0 13.6v-12.6h-6v13.5q0.4 0 0.9 0c1.5 0 2.3-0.2 3-0.4 0.6-0.2 1.2-0.4 2.1-0.5zm8-2.6h-7v2.5q0.1 0 0.3 0c1.7 0 2.5 0.3 3.3 0.6 0.8 0.2 1.6 0.4 3.1 0.4q0.2 0 0.3 0zm0-6h-7v5h7zm0-4h-7v3h7zm0-3h-7v2h7zm8-1h2v-11.5c0-0.2-0.2-0.5-0.5-0.5h-1c-0.3 0-0.5 0.3-0.5 0.5zm-1 16.6v-12.6h-6v13.5c0.7-0.1 1.2-0.3 1.7-0.4 0.9-0.3 1.7-0.6 3.4-0.6q0.5 0 0.9 0.1zm3-12.6h-2v12.7c0.6 0.1 1 0.2 1.4 0.4q0.3 0.1 0.6 0.1zm2-1v-2h-11v2zm-19.8 22.3c0 0.3-0.2 0.5-0.5 0.5-0.7 0-1.1 0.2-1.5 0.4-0.4 0.3-1 0.6-2 0.6-1 0-1.5-0.3-2-0.6-0.4-0.2-0.7-0.4-1.5-0.4-0.2 0-0.5-0.2-0.5-0.5 0-0.3 0.3-0.5 0.5-0.5 1 0 1.6 0.3 2 0.6 0.4 0.2 0.8 0.4 1.5 0.4 0.8 0 1.1-0.2 1.5-0.4 0.5-0.3 1-0.6 2-0.6 0.3 0 0.5 0.2 0.5 0.5zm16.8-3.1c0 0.2-0.2 0.5-0.5 0.5-1.3 0-2-0.3-2.5-0.6-0.6-0.2-1.1-0.4-2.2-0.4-1.1 0-1.6 0.2-2.1 0.4-0.6 0.3-1.3 0.6-2.6 0.6-1.2 0-1.9-0.3-2.5-0.6-0.5-0.2-1.1-0.4-2.1-0.4-0.3 0-0.5-0.3-0.5-0.5 0-0.3 0.2-0.5 0.5-0.5 1.3 0 1.9 0.3 2.5 0.5 0.6 0.2 1.1 0.5 2.2 0.5 1 0 1.5-0.3 2.1-0.5 0.6-0.2 1.3-0.5 2.5-0.5 1.3 0 2 0.3 2.6 0.5 0.5 0.2 1 0.5 2.1 0.5 0.3 0 0.5 0.2 0.5 0.5z"/></svg>