<svg version="1.2" xmlns="http://www.w3.org/2000/svg" viewBox="0 0 58 58" width="58" height="58"><style></style><filter id="f0"><feFlood flood-color="#ffffff" flood-opacity="1" /><feBlend mode="normal" in2="SourceGraphic"/><feComposite in2="SourceAlpha" operator="in" /></filter><g filter="url(#f0)"><path fill-rule="evenodd" d="m34 58h-28q-0.6 0-1.1-0.2-0.6-0.3-1-0.7-0.4-0.4-0.7-1-0.2-0.5-0.2-1.1v-34q0-0.2 0.1-0.4 0.1-0.2 0.2-0.3 0.1-0.1 0.3-0.2 0.2-0.1 0.4-0.1h32q0.2 0 0.4 0.1 0.2 0.1 0.3 0.2 0.1 0.1 0.2 0.3 0.1 0.2 0.1 0.4v34q0 0.6-0.2 1.1-0.3 0.6-0.7 1-0.4 0.4-1 0.7-0.5 0.2-1.1 0.2zm-29-36v33q0 0.2 0.1 0.4 0.1 0.2 0.2 0.3 0.1 0.1 0.3 0.2 0.2 0.1 0.4 0.1h28q0.2 0 0.4-0.1 0.2-0.1 0.3-0.2 0.1-0.1 0.2-0.3 0.1-0.2 0.1-0.4v-33z"/><path fill-rule="evenodd" d="m36 22h-32q-0.2 0-0.4-0.1-0.2-0.1-0.3-0.2-0.1-0.1-0.2-0.3-0.1-0.2-0.1-0.4v-6q0-0.6 0.2-1.1 0.3-0.6 0.7-1 0.4-0.4 1-0.7 0.5-0.2 1.1-0.2h28q0.6 0 1.1 0.2 0.6 0.3 1 0.7 0.4 0.4 0.7 1 0.2 0.5 0.2 1.1v6q0 0.2-0.1 0.4-0.1 0.2-0.2 0.3-0.1 0.1-0.3 0.2-0.2 0.1-0.4 0.1zm-31-2h30v-5q0-0.2-0.1-0.4-0.1-0.2-0.2-0.3-0.1-0.1-0.3-0.2-0.2-0.1-0.4-0.1h-28q-0.2 0-0.4 0.1-0.2 0.1-0.3 0.2-0.1 0.1-0.2 0.3-0.1 0.2-0.1 0.4z"/><path fill-rule="evenodd" d="m32 14h-24q-0.2 0-0.4-0.1-0.2-0.1-0.3-0.2-0.1-0.1-0.2-0.3-0.1-0.2-0.1-0.4v-8q0-1 0.4-1.9 0.4-0.9 1.1-1.6 0.7-0.7 1.6-1.1 0.9-0.4 1.9-0.4h16q1 0 1.9 0.4 0.9 0.4 1.6 1.1 0.7 0.7 1.1 1.6 0.4 0.9 0.4 1.9v8q0 0.2-0.1 0.4-0.1 0.2-0.2 0.3-0.1 0.1-0.3 0.2-0.2 0.1-0.4 0.1zm-23-2h22v-7q0-0.6-0.2-1.1-0.3-0.6-0.7-1-0.4-0.4-1-0.7-0.5-0.2-1.1-0.2h-16q-0.6 0-1.1 0.2-0.6 0.3-1 0.7-0.4 0.4-0.7 1-0.2 0.5-0.2 1.1z"/><path fill-rule="evenodd" d="m52 24h-4q-0.2 0-0.4-0.1-0.2-0.1-0.3-0.2-0.1-0.1-0.2-0.3-0.1-0.2-0.1-0.4v-3h-11q-0.2 0-0.4-0.1-0.2-0.1-0.3-0.2-0.1-0.1-0.2-0.3-0.1-0.2-0.1-0.4v-4q0-0.2 0.1-0.4 0.1-0.2 0.2-0.3 0.1-0.1 0.3-0.2 0.2-0.1 0.4-0.1h13q0.8 0 1.5 0.3 0.8 0.3 1.3 0.9 0.6 0.5 0.9 1.3 0.3 0.7 0.3 1.5v5q0 0.2-0.1 0.4-0.1 0.2-0.2 0.3-0.1 0.1-0.3 0.2-0.2 0.1-0.4 0.1zm-3-2h2v-4q0-0.4-0.2-0.8-0.1-0.3-0.4-0.6-0.3-0.3-0.6-0.4-0.4-0.2-0.8-0.2h-12v2h10q0.4 0 0.8 0.2 0.3 0.1 0.6 0.4 0.3 0.3 0.4 0.6 0.2 0.4 0.2 0.8z"/><path  d="m50 36q-0.4 0-0.7-0.1-0.4-0.1-0.7-0.3-0.4-0.1-0.6-0.4-0.3-0.2-0.5-0.5-0.2-0.3-0.4-0.7-0.1-0.3-0.2-0.7 0-0.4 0-0.7 0.1-0.4 0.2-0.8l2-5.1q0.1-0.3 0.3-0.5 0.3-0.2 0.6-0.2 0.3 0 0.6 0.2 0.2 0.2 0.3 0.5l2 5.1q0.1 0.4 0.2 0.8 0 0.3 0 0.7-0.1 0.4-0.2 0.7-0.2 0.4-0.4 0.7-0.2 0.3-0.5 0.5-0.2 0.3-0.6 0.4-0.3 0.2-0.7 0.3-0.3 0.1-0.7 0.1z"/><path  d="m50 29.9l-1 2.6q0 0.2-0.1 0.3 0 0.1 0 0.3 0.1 0.1 0.1 0.2 0 0.1 0.1 0.2 0.2 0.2 0.4 0.4 0.2 0.1 0.5 0.1 0.3 0 0.5-0.1 0.2-0.2 0.4-0.4 0.1-0.1 0.1-0.2 0.1-0.1 0.1-0.2 0-0.2 0-0.3 0-0.1-0.1-0.3z"/><path fill-rule="evenodd" d="m53 51h-6q-0.2 0-0.4-0.1-0.1 0-0.3-0.2-0.1-0.1-0.2-0.3-0.1-0.1-0.1-0.3l-1-12q0-0.1 0-0.2 0-0.1 0.1-0.2 0-0.1 0-0.2 0.1-0.1 0.2-0.2 0-0.1 0.1-0.1 0.1-0.1 0.2-0.1 0.1-0.1 0.2-0.1 0.1 0 0.2 0h8q0.1 0 0.2 0 0.1 0 0.2 0.1 0.1 0 0.2 0.1 0.1 0 0.1 0.1 0.1 0.1 0.2 0.2 0 0.1 0 0.2 0.1 0.1 0.1 0.2 0 0.1 0 0.2l-1 12q0 0.2-0.1 0.3-0.1 0.2-0.2 0.3-0.2 0.2-0.3 0.2-0.2 0.1-0.4 0.1zm-5.1-2h4.2l0.8-10h-5.8z"/></g></svg>