<svg version="1.2" xmlns="http://www.w3.org/2000/svg" viewBox="0 0 110 96" width="110" height="96"><style>.a{fill:#fff}</style><path fill-rule="evenodd" class="a" d="m96.5 33.5v18.6c0 6.9-4.1 13-10.4 15.7l-6.6 2.7q0 6.4-0.5 12.8c2.5 0.9 4.3 3.4 4.3 6.2 0 3.7-3 6.6-6.6 6.6h-56.6c-3.6 0-6.6-3-6.6-6.6 0-2.6 1.5-4.8 3.6-5.9-1.6-18.4 0.3-36.3 5.1-52.8l-6.5-9.1c-0.4-0.5-0.4-1.3-0.1-1.9 0.3-0.7 1-1 1.7-1h8.9c0.8-2.2 1.7-4.4 2.6-6.3 3.3-7.7 10.9-12.6 19.3-12.6 8.3 0 15.9 4.9 19.2 12.6q1.4 3.1 2.6 6.3h11.9c8.1 0 14.7 6.6 14.7 14.7zm-3.8 0c0-6.1-4.9-11-10.9-11h-10.5q0.7 1.9 1.3 3.8h9.5c3.8 0 6.9 3.1 6.9 6.9v18.9c0 3.8-2.3 7.2-5.8 8.7l-3.9 1.6q0.1 2 0.2 4l5.1-2.1c4.9-2.1 8.1-6.9 8.1-12.2zm-60.1-20.4h30.8c-2.9-5.7-8.8-9.4-15.4-9.4-6.5 0-12.4 3.7-15.4 9.4zm-12.2 60.4h55.3c0.4-19.4-3.2-38.7-10.6-56.6h-34.1q-0.9 2.2-1.7 4.4c-0.3 0.8-1 1.2-1.8 1.2h-6.6l4.9 6.8c0.3 0.5 0.4 1.1 0.3 1.7-4 13.4-6 27.7-5.7 42.5zm0.1 3.8q0.1 2.8 0.4 5.6h54.3q0.3-2.8 0.4-5.6zm56.2 9.4h-56.6c-1.6 0-2.8 1.3-2.8 2.8 0 1.6 1.2 2.9 2.8 2.9h56.6c1.6 0 2.8-1.3 2.8-2.9 0-1.5-1.2-2.8-2.8-2.8zm2.3-28.2l2.7-1.2c2.1-0.8 3.5-2.9 3.5-5.2v-18.9c0-1.7-1.4-3.1-3.1-3.1h-8.4c2.8 9.4 4.5 18.9 5.3 28.4z"/><path fill-rule="evenodd" class="a" d="m39.6 61.2v-24.5c0-4.7 3.8-8.5 8.5-8.5 4.6 0 8.4 3.8 8.4 8.5v24.5c0 4.7-3.8 8.5-8.4 8.5-4.7 0-8.5-3.8-8.5-8.5zm3.7-2.8h3.8c1.1 0 1.9 0.8 1.9 1.9 0 1-0.8 1.9-1.9 1.9h-3.7c0.5 2.1 2.4 3.7 4.7 3.7 2.6 0 4.7-2.1 4.7-4.7v-24.5c0-2.6-2.1-4.7-4.7-4.7-2.3 0-4.2 1.6-4.7 3.7h3.7c1.1 0 1.9 0.9 1.9 1.9 0 1.1-0.8 1.9-1.9 1.9h-3.8v3.8h3.8c1.1 0 1.9 0.8 1.9 1.9 0 1-0.8 1.9-1.9 1.9h-3.8v3.7h3.8c1.1 0 1.9 0.9 1.9 1.9 0 1.1-0.8 1.9-1.9 1.9h-3.8z"/></svg>