<svg version="1.2" xmlns="http://www.w3.org/2000/svg" viewBox="0 0 94 94" width="94" height="94"><style></style><filter id="f0"><feFlood flood-color="#ffffff" flood-opacity="1" /><feBlend mode="normal" in2="SourceGraphic"/><feComposite in2="SourceAlpha" operator="in" /></filter><g filter="url(#f0)"><path fill-rule="evenodd" d="m93.9 17.1v54.2c0 2.7-2.2 4.8-4.8 4.8h-2.9v4c0 0.9-0.7 1.6-1.5 1.6h-75.4c-0.8 0-1.5-0.7-1.5-1.6v-4h-2.9c-2.6 0-4.8-2.1-4.8-4.8v-54.2c0-2.7 2.2-4.8 4.8-4.8h84.2c2.6 0 4.8 2.1 4.8 4.8zm-10.8 59h-72.2v2.5h72.2zm7.7-59.1c0-0.9-0.8-1.6-1.7-1.6h-84.2c-0.9 0-1.7 0.7-1.7 1.6v54.3c0 0.9 0.8 1.6 1.7 1.6h84.2c0.9 0 1.7-0.7 1.7-1.6z"/><path fill-rule="evenodd" d="m68.4 21.3v45.8c0 0.9-0.7 1.6-1.6 1.6h-57.5c-0.8 0-1.5-0.7-1.5-1.6v-45.8c0-0.9 0.7-1.6 1.5-1.6h57.5c0.9 0 1.6 0.7 1.6 1.6zm-3.2 1.5h-54.3v42.8h8.1v-4.4c0-0.9 0.7-1.6 1.6-1.6h35c0.8 0 1.5 0.7 1.5 1.6v4.4h8.1zm-11.2 39.9h-31.8v2.8h31.8z"/><path fill-rule="evenodd" d="m87.7 22.8v5.7c0 0.8-0.7 1.5-1.5 1.5h-13.1c-0.9 0-1.6-0.7-1.6-1.5v-5.7c0-0.9 0.7-1.6 1.6-1.6h13.1c0.8 0 1.5 0.7 1.5 1.6zm-3.1 1.5h-9.9v2.6h9.9z"/><path fill-rule="evenodd" d="m87.7 40.9c0 4.4-3.6 8.1-8.1 8.1-4.4 0-8.1-3.7-8.1-8.1 0-4.5 3.7-8.1 8.1-8.1 4.5 0 8.1 3.6 8.1 8.1zm-3.1 0c0-2.8-2.2-5-5-5-2.7 0-4.9 2.2-4.9 5 0 2.7 2.2 5 4.9 5 2.8 0 5-2.3 5-5z"/><path fill-rule="evenodd" d="m87.7 59.8c0 4.5-3.6 8.1-8.1 8.1-4.4 0-8.1-3.6-8.1-8.1 0-4.4 3.7-8.1 8.1-8.1 4.5 0 8.1 3.7 8.1 8.1zm-3.1 0c0-2.7-2.2-4.9-5-4.9-2.7 0-4.9 2.2-4.9 4.9 0 2.8 2.2 5 4.9 5 2.8 0 5-2.2 5-5z"/><path  d="m21.5 47.5c-0.6 0.6-0.5 1.6 0.1 2.2 0.3 0.3 0.7 0.4 1.1 0.4 0.4 0 0.8-0.2 1.1-0.5 1.4-1.5 3.2-5.4 0.1-9.2-2.2-2.6-0.5-4.7-0.1-5.1 0.6-0.7 0.5-1.7-0.1-2.2-0.6-0.6-1.6-0.6-2.2 0-1.4 1.5-3.2 5.4-0.1 9.3 2.2 2.5 0.5 4.7 0.1 5.1z"/><path  d="m31.8 47.5c-0.6 0.6-0.6 1.6 0.1 2.2 0.3 0.3 0.7 0.4 1 0.4 0.5 0 0.9-0.2 1.2-0.5 1.4-1.5 3.2-5.4 0-9.2-2.1-2.6-0.4-4.7 0-5.1 0.6-0.7 0.5-1.7-0.1-2.2-0.6-0.6-1.6-0.6-2.2 0-1.4 1.5-3.2 5.4-0.1 9.3 2.1 2.5 0.4 4.7 0.1 5.1z"/><path  d="m42.1 47.5c-0.6 0.6-0.6 1.6 0 2.2 0.3 0.3 0.7 0.4 1.1 0.4 0.4 0 0.9-0.2 1.2-0.5 1.4-1.5 3.2-5.4 0-9.2-2.1-2.6-0.4-4.7 0-5.1 0.5-0.7 0.5-1.7-0.1-2.2-0.7-0.6-1.6-0.6-2.2 0-1.4 1.5-3.3 5.4-0.1 9.3 2.1 2.5 0.4 4.7 0.1 5.1z"/><path  d="m52.4 47.5c-0.6 0.6-0.6 1.6 0 2.2 0.3 0.3 0.7 0.4 1.1 0.4 0.4 0 0.8-0.2 1.1-0.5 1.4-1.5 3.3-5.4 0.1-9.2-2.1-2.6-0.4-4.7-0.1-5.1 0.6-0.7 0.6-1.7 0-2.2-0.7-0.6-1.7-0.6-2.2 0-1.5 1.5-3.3 5.4-0.1 9.3 2.1 2.5 0.4 4.7 0.1 5.1z"/></g></svg>