<svg version="1.2" xmlns="http://www.w3.org/2000/svg" viewBox="0 0 20 20" width="20" height="20"><style>.a{fill:#fff}</style><path fill-rule="evenodd" class="a" d="m14 11.8l-3.3-0.1v7.3c0 0.4-0.3 0.7-0.7 0.7-0.4 0-0.8-0.3-0.8-0.7v-7.3h-3.2c-0.4 0-0.8-0.3-0.8-0.7 0.1-0.4 0.4-0.8 0.8-0.8h3.3v-2.5h-4.8c-0.7 0-1.3-0.5-1.3-1.2 0.1-3.4 2.9-6.3 6.3-6.3h1c3.4 0 6.3 2.9 6.3 6.3 0 0.7-0.6 1.2-1.3 1.2h-4.8l0.1 2.5h3.2c0.4 0 0.8 0.4 0.8 0.8 0 0.4-0.4 0.7-0.8 0.7zm-9.2-5.5h10.4c-0.1-2.5-2.2-4.5-4.7-4.5h-1c-2.5 0-4.6 2-4.7 4.5zm1.9 9.8v3c0 0.4-0.3 0.7-0.7 0.7-0.4 0-0.8-0.3-0.8-0.7v-3c0-0.7-0.5-1.3-1.2-1.3h-2.3v4.3c0 0.4-0.3 0.7-0.7 0.7-0.4 0-0.8-0.3-0.8-0.7v-10c0-0.4 0.4-0.8 0.8-0.8 0.4 0 0.7 0.4 0.7 0.8v4.2h2.3c1.5 0 2.7 1.3 2.7 2.8zm13-7v10c0 0.4-0.3 0.7-0.7 0.7-0.4 0-0.8-0.3-0.8-0.7v-4.3h-2.2c-0.7 0-1.3 0.6-1.3 1.3v3c0 0.4-0.3 0.7-0.7 0.7-0.4 0-0.8-0.3-0.8-0.7v-3c0-1.5 1.3-2.8 2.8-2.8h2.2v-4.2c0-0.4 0.4-0.8 0.8-0.8 0.4 0 0.7 0.4 0.7 0.8z"/></svg>