<svg version="1.2" xmlns="http://www.w3.org/2000/svg" viewBox="0 0 66 66" width="66" height="66"><style></style><filter id="f0"><feFlood flood-color="#ffffff" flood-opacity="1" /><feBlend mode="normal" in2="SourceGraphic"/><feComposite in2="SourceAlpha" operator="in" /></filter><g filter="url(#f0)"><path fill-rule="evenodd" d="m62.2 3c2.3 0 4.1 1.9 4.1 4.2v50c0 2.3-1.8 4.1-4.1 4.1h-58.4c-2.3 0-4.1-1.8-4.1-4.1v-50c0-2.3 1.8-4.2 4.1-4.2zm0 4.2h-58.3v50h58.3z"/><path fill-rule="evenodd" d="m49.7 23.8c2.3 0 4.1 1.9 4.1 4.2v20.8c0 2.3-1.8 4.2-4.1 4.2h-33.4c-2.3 0-4.1-1.9-4.1-4.2v-20.8c0-2.3 1.8-4.2 4.1-4.2zm0 4.2h-33.3v20.8h33.3z"/><path fill-rule="evenodd" d="m20.5 15.5c0 2.3-1.9 4.2-4.2 4.2-2.3 0-4.1-1.9-4.1-4.2 0-2.3 1.8-4.2 4.1-4.2 2.3 0 4.2 1.9 4.2 4.2zm33.3 0c0 2.3-1.8 4.2-4.1 4.2-2.3 0-4.2-1.9-4.2-4.2 0-2.3 1.9-4.2 4.2-4.2 2.3 0 4.1 1.9 4.1 4.2z"/><path fill-rule="evenodd" d="m28.8 17.6c0 1.1 1 2.1 2.1 2.1h4.2c1.1 0 2.1-1 2.1-2.1 0-1.2-1-2.1-2.1-2.1h-4.2c-1.1 0-2.1 0.9-2.1 2.1zm-4.1 20.8c0 1.2 0.9 2.1 2 2.1h12.5c1.2 0 2.1-0.9 2.1-2.1 0-1.1-0.9-2.1-2.1-2.1h-12.5c-1.1 0-2 1-2 2.1z"/></g></svg>