<svg version="1.2" xmlns="http://www.w3.org/2000/svg" viewBox="0 0 50 50" width="50" height="50"><style></style><filter id="f0"><feFlood flood-color="#ffffff" flood-opacity="1" /><feBlend mode="normal" in2="SourceGraphic"/><feComposite in2="SourceAlpha" operator="in" /></filter><g filter="url(#f0)"><path  d="m19 32q-1.4 0-2.7-0.5-1.3-0.6-2.2-1.6-1-0.9-1.6-2.2-0.5-1.3-0.5-2.7 0-0.4-0.3-0.7-0.3-0.3-0.7-0.3-0.4 0-0.7 0.3-0.3 0.3-0.3 0.7c0 1.2 0.2 2.4 0.7 3.4 0.4 1.1 1.1 2.1 1.9 3 0.9 0.8 1.9 1.5 3 1.9 1 0.5 2.2 0.7 3.4 0.7q0.4 0 0.7-0.3 0.3-0.3 0.3-0.7 0-0.4-0.3-0.7-0.3-0.3-0.7-0.3z"/><path  d="m11 23q0.2 0 0.4-0.1 0.2-0.1 0.3-0.2 0.1-0.1 0.2-0.3 0.1-0.2 0.1-0.4v-3q0-0.4-0.3-0.7-0.3-0.3-0.7-0.3-0.4 0-0.7 0.3-0.3 0.3-0.3 0.7v3q0 0.2 0.1 0.4 0.1 0.2 0.2 0.3 0.1 0.1 0.3 0.2 0.2 0.1 0.4 0.1z"/><path  d="m29 45h-8q-0.4 0-0.7 0.3-0.3 0.3-0.3 0.7 0 0.4 0.3 0.7 0.3 0.3 0.7 0.3h8q0.4 0 0.7-0.3 0.3-0.3 0.3-0.7 0-0.4-0.3-0.7-0.3-0.3-0.7-0.3z"/><path fill-rule="evenodd" d="m49.4 36.1q0.2 0.1 0.3 0.2 0.1 0.1 0.2 0.3 0.1 0.2 0.1 0.4v12q0 0.4-0.3 0.7-0.3 0.3-0.7 0.3-0.4 0-0.7-0.3-0.3-0.3-0.3-0.7v-6h-46v6q0 0.4-0.3 0.7-0.3 0.3-0.7 0.3-0.4 0-0.7-0.3-0.3-0.3-0.3-0.7v-12q0-0.2 0.1-0.4 0.1-0.2 0.2-0.3 0.1-0.1 0.3-0.2 0.2-0.1 0.4-0.1h11.1q-1.4-0.9-2.5-2.1-1.2-1.2-2-2.6-0.8-1.5-1.2-3.1-0.4-1.5-0.4-3.2v-6c-5.9-0.4-6-3.8-6-4 0-1.4 0.6-4 3-4q0.5 0.1 1.1 0.2 0.5 0.2 1 0.5 0.5 0.2 0.9 0.6 0.4 0.4 0.8 0.8c1.9-2.5 7.6-4.5 13.1-5.1q0.1 0 0.1 0c0.5 0 0.8-1.1 0.9-2.2-0.6-0.2-1.2-0.7-1.5-1.3-0.4-0.6-0.5-1.3-0.4-2 0.2-0.7 0.5-1.4 1.1-1.8 0.5-0.5 1.2-0.7 1.9-0.7h6c0.7 0 1.4 0.2 1.9 0.7 0.6 0.4 0.9 1.1 1.1 1.8 0.1 0.7 0 1.4-0.4 2-0.3 0.6-0.9 1.1-1.5 1.3 0.1 1.1 0.4 2.2 0.9 2.2q0 0 0.1 0c5.5 0.6 11.2 2.6 13.1 5.1q0.4-0.4 0.8-0.8 0.4-0.4 0.9-0.6 0.5-0.3 1-0.5 0.6-0.1 1.1-0.2c2.4 0 3 2.6 3 4 0 0.2-0.1 3.6-6 4v6q0 1.7-0.4 3.2-0.4 1.6-1.2 3.1-0.8 1.4-2 2.6-1.1 1.2-2.5 2.1h11.1q0.2 0 0.4 0.1zm-40.8-22.1h32.8c-1.4-1.4-5.1-3.2-11-3.9-1.1 0.8-3.5 0.9-5.4 0.9-1.9 0-4.3-0.1-5.4-0.9-5.9 0.7-9.6 2.5-11 3.9zm14.3-7.3q-0.1 0.4-0.2 0.8-0.1 0.3-0.3 0.7-0.1 0.3-0.3 0.6 0.3 0.1 0.7 0.1 0.4 0 0.7 0.1 0.4 0 0.8 0 0.3 0 0.7 0 0.4 0 0.7 0 0.4 0 0.8 0 0.3-0.1 0.7-0.1 0.4 0 0.7-0.1-0.2-0.3-0.3-0.6-0.2-0.4-0.3-0.7-0.1-0.4-0.2-0.8 0-0.3 0-0.7h-4.2q0 0.4 0 0.7zm21.1 8.6v1.7c3-0.2 4-1.4 4-2 0 0-0.1-2-1-2-1 0-2.4 1.4-3 2.3zm-22.7-13q-0.3 0.3-0.3 0.7 0 0.4 0.3 0.7 0.3 0.3 0.7 0.3h6q0.4 0 0.7-0.3 0.3-0.3 0.3-0.7 0-0.4-0.3-0.7-0.3-0.3-0.7-0.3h-6q-0.4 0-0.7 0.3zm-15.3 14.7v-1.7c-0.6-0.9-2-2.3-3-2.3-0.9 0-1 2-1 2 0 0.6 1 1.8 4 2zm2.8 12.2c0.6 1.3 1.4 2.6 2.4 3.6 1 1 2.3 1.8 3.6 2.4 1.3 0.5 2.8 0.8 4.2 0.8h12c1.4 0 2.9-0.3 4.2-0.8 1.3-0.6 2.6-1.4 3.6-2.4 1-1 1.8-2.3 2.4-3.6 0.5-1.3 0.8-2.8 0.8-4.2v-9h-34v9c0 1.4 0.3 2.9 0.8 4.2zm39.2 11.8v-3h-46v3z"/></g></svg>