<svg version="1.2" xmlns="http://www.w3.org/2000/svg" viewBox="0 0 100 100" width="100" height="100"><style></style><filter id="f0"><feFlood flood-color="#ffffff" flood-opacity="1" /><feBlend mode="normal" in2="SourceGraphic"/><feComposite in2="SourceAlpha" operator="in" /></filter><g filter="url(#f0)"><path  d="m34.2 14.7q-2-1.6-2.2-4.1-0.3-2.6 1.3-4.5 1.6-2 4.2-2.2 2.5-0.3 4.5 1.3 1.9 1.6 2.2 4.2 0.2 2.5-1.4 4.4-1.6 2-4.2 2.2-2.4 0.3-4.4-1.3z"/><path  d="m9.1 57.5q-3.8 0-3.8-3.8 0-1.3 0.8-2.5l7.6-9.4c0 0-4.3-8.8-4.4-9.4-0.1-0.3-0.3-1.9-0.3-2.1q0.2-3.4 3.2-5.3l14.5-8.8q1.5-1 3.3-1 2.4 0 4.2 1.5 0.4 0.2 0.9 0.8l15.7 17.5q2.1 2.2-0.1 4.2-2.2 2-4.3-0.3l-11.5-12.6-11 6.9 8.7 6.6q1.6 1.2 1.6 3.2v16.5q-0.1 3.8-3.9 3.8-3.8-0.1-3.8-3.8 0.2-11.8 0.3-14.7l-5-3.6q0.2 0.6 0.2 0.7 0 0.7-0.2 1.5-0.1 0.7-0.6 1.2l-9.1 11.4q-1.2 1.5-3 1.5z"/><path  d="m92.9 86.8q4 1.4 6.2 1.4v8.9q-2.2 0-6.1-1.3-3.9-1.4-6.1-1.4-2.2 0-6.2 1.4-3.9 1.3-6.1 1.3-2.2 0-6.1-1.3-3.9-1.4-6.1-1.4-2.2 0-6.1 1.4-3.9 1.3-6.1 1.3-2.2 0-6.1-1.3-3.9-1.4-6.1-1.4-2.2 0-6.1 1.4-4 1.3-6.2 1.3-2.2 0-6.1-1.3-3.9-1.4-6.1-1.4-2.2 0-6.1 1.4-3.8 1.3-6.1 1.3v-8.9q2.3 0 6.1-1.4 3.9-1.3 6.1-1.3 2.2 0 6.2 1.3 3.9 1.4 6 1.4 2.2 0 6.2-1.4 3.9-1.3 6.1-1.3 2.1 0 6.1 1.3 3.9 1.4 6.1 1.4 2.2 0 6.1-1.4 3.9-1.3 6.1-1.3 2.2 0 6.1 1.3 4 1.4 6.1 1.4 2.2 0 6.1-1.4 4-1.3 6.2-1.3 2.1 0 6 1.3z"/><path  d="m57.5 49c1.9 6.9 5.5 15.7 12.8 21.6 13.6 10.9 28.8 13.1 28.8 13.1v-20.8zm41.5 10.7v-6.6l-43.4-14.7c0 0 0.2 2.9 1.1 7.1z"/><path  d="m51.4 72.3c-4.9-1.4-9.7-0.9-12.8-1.6-5.8-1.4-13.9-8.7-23-10.6-5.3-1.2-12.6-1.8-14.2-1.9v22.3q2.4 0 4.6-1 3.7-1.7 7.5-1.7 4 0 7.5 1.6 2.4 1.1 4.7 1.1 2.5 0 4.7-1 3.7-1.7 7.6-1.7 3.8 0 7.5 1.6 2.2 1.1 4.7 1.1 1.9 0 5-1.1 3.1-1.1 4.5-1.3c0 0-5.1-4.9-8.3-5.8z"/></g></svg>