<svg version="1.2" xmlns="http://www.w3.org/2000/svg" viewBox="0 0 72 72" width="72" height="72"><style></style><filter id="f0"><feFlood flood-color="#ffffff" flood-opacity="1" /><feBlend mode="normal" in2="SourceGraphic"/><feComposite in2="SourceAlpha" operator="in" /></filter><g filter="url(#f0)"><path  d="m36.9 5.6c-0.4-0.1-0.9-0.2-1-0.7-0.2-0.3 0-4.8 0.2-5.1 0.2-0.3 0.5-0.4 0.8-0.5 0.4 0 0.8 0.2 0.9 0.6 0.3 0.8 0.6 5.3-0.9 5.7z"/><path  d="m26.9 10.3c-0.9-0.1-3.8-3.9-4-4.6-0.1-0.6 0.6-1 1.1-1.1 0.9 0.1 1.8 1.7 2.3 2.4 0.6 0.6 3.1 3.2 0.6 3.3z"/><path  d="m47.5 10.4c-0.7 0-1.5-0.6-1.2-1.4 0.2-0.6 2.9-3.9 3.7-4.3 3.7-0.3-2 5.4-2.5 5.7z"/><path fill-rule="evenodd" d="m30.6 30.1c-0.7-0.7-1.5-1.3-2.1-2-6.2-7.1-1.8-18.4 7.7-19 3.5-0.4 7.3 1.5 9.5 4.1 4.2 5.3 3.3 12.7-1.9 16.9 1.4-0.1 2.9 0 4.4 0 11.3 0 10.9 0.9 14.6 10.3 1 2.5 2.1 5 3.4 7.3 0.7 1.3 2.1 2.9 0.9 4.2-3.9 4.1-7.3 3.2-12.5 3.1l-8.5-0.1c-1.8 0-3.5 0-5.2 0-0.1 2.5 0.3 6.5 0.8 8.9 2.1 0.6 4.4 0.8 6.1 2.3 1.2 1 1.4 2.2 0.4 3.4-2.2 2.3-7.6 2.5-10.6 2.6-2.1 0.1-14.9-0.6-12-5.2 1.2-2 4.6-2.6 6.7-3.1 0.5-2.9 0.7-5.9 0.9-8.9-6.3-0.1-13.1 0-19.5 0.2-2 0.1-3.2-0.4-4.9-1.6-0.8-0.5-2.4-1.5-2.4-2.7 0-2.3 4.5-8.6 5.8-11.3 0.9-1.9 1.7-5 3.1-6.4 3.3-3.4 10.8-3 15.3-3zm5.4-19c-8.6 0.9-11.2 11.4-4.6 17 0.7 0.7 1.5 1.2 2.2 2 1.5 0 3.1-0.1 4.7 0.1 0.8 0 1.7 0.1 2.5 0.1 0.5-1.1 1.8-1.7 2.7-2.6 4.9-4.9 3.2-13.5-3.3-16-1.2-0.5-2.8-0.9-4.2-0.6zm-11 20.9q-0.4 0-0.8 0.1c-0.4 2.4-0.6 4.9-1 7.3 3.5 0 6.9 0 10.4 0q0.9 0 1.8 0c-0.2-2.4 0-4.9-0.1-7.3-2-0.2-4.1-0.1-6.2-0.1-0.4 0-3.7 0-4.1 0zm12.2 0.1c0.1 2.3 0 5 0.1 7.2 1.5 0.1 2.9 0.1 4.3 0.1h7.3c-0.2-2.1-0.7-5.4-1.3-7.3-2.2-0.4-8-0.1-10.4 0zm12.4-0.1c0.5 2.4 1 4.9 1.3 7.4 3.1 0 6.3-0.1 9.4 0-2.5-6.5-2.9-7.7-10.7-7.4zm-27.7 0.5c-5 0.6-5.9 2.3-7.4 6.8 0.1 0.1 0.1 0.1 0.2 0.1q3.2 0 6.5 0c0.1-0.9 1-6.7 0.8-6.9zm19.4 8.8c-1.3 0.1-2.6 0-3.9 0 0.1 2.1 0 4.1 0.1 6.2 2.9 0.1 6.7 0.2 9.6 0 1.3 0 2.6-0.1 3.9 0-0.7-1.9-1.5-4.1-1.7-6.1-2.7-0.1-5.3 0-8-0.1zm13.4 0c-1.1 0-2.3 0-3.4 0.1 0.3 2.1 1 4 1.9 6 2.5 0 5.1 0.1 7.7 0.2q1.6 0.1 3.2 0.2c-1.1-2-2.3-4.3-2.9-6.4-2.2-0.2-4.3 0-6.5-0.1zm-41.2 0.1c-1.1 2.2-2.7 4.4-3.9 6.7 2.4-0.4 4.9-0.3 7.3-0.4q1.3-0.1 2.7-0.1c0.7-2.1 1.1-4.1 1.4-6.2q-3.8-0.1-7.5 0zm9.5 0c-0.3 2.1-0.8 4.1-1.2 6.2 1.2-0.1 2.3-0.1 3.5-0.1 1.2 0 7.9 0 9 0h1.2c0-2.1 0-4.1 0-6.1-4-0.2-8.5-0.1-12.5 0zm21.9 8c-4.3 0.1-8.6 0.1-13 0.1l-15.9 0.2c-1.8 0-7.8 0-7.4 0.9 0.2 0.7 2.5 2.1 3.2 2.3 0.8 0.3 6.7 0.1 8 0.1 1.2 0 8.5 0 9.7 0 7.4-0.2 14.7-0.1 22.1 0l6.1 0.1c3.7 0.1 5 0.4 7.9-2.5q-0.2-0.3-0.5-0.7c-0.9-0.2-1.8-0.2-2.7-0.3-5.4-0.4-12-0.4-17.5-0.2zm-9.6 5.4c-0.2 1.9-0.3 3.9-0.5 5.8-0.2 1.3-0.5 3-0.4 4.2 0.8 1.2 3.1 0.9 4.3 0.7 0.4-0.1 0.8-0.3 1.1-0.6 0-0.6-0.1-1.3-0.2-2-0.4-2.6-0.5-5.3-0.7-8-1.2-0.1-2.4 0-3.6-0.1zm6.4 11.1c-0.9 1-1.7 1.5-3 1.6-2.6 0.3-4.3 0.4-6.1-1.6-1.7 0.2-4.2 0.6-5.3 2.1 0.8 1 2.8 1.5 4.1 1.7 3.7 0.7 12.6 1 15.6-1.7-1.4-1.3-3.5-1.9-5.3-2.1z"/><path  d="m22.3 20.2c-0.6 0.1-4.2 0.2-4.6 0-0.9-0.4-0.6-1.7 0.2-2 0.6 0 3.9-0.1 4.4 0.1 1 0.3 1 1.6 0 1.9z"/><path  d="m55.5 20.6h-2.2c-0.7 0-1.5 0.2-2.1-0.3-1-0.8 0-1.7 1.1-1.8 1.1 0 3 0 4 0.2 1.1 0.8 0.4 1.9-0.8 1.9z"/></g></svg>