<svg version="1.2" xmlns="http://www.w3.org/2000/svg" viewBox="0 0 82 82" width="82" height="82"><style></style><filter id="f0"><feFlood flood-color="#ffffff" flood-opacity="1" /><feBlend mode="normal" in2="SourceGraphic"/><feComposite in2="SourceAlpha" operator="in" /></filter><g filter="url(#f0)"><path fill-rule="evenodd" d="m67 11.7v58.6c0 6.4-5.3 11.7-11.7 11.7h-28.6c-6.4 0-11.7-5.3-11.7-11.7v-58.6c0-6.4 5.3-11.7 11.7-11.7h28.6c6.4 0 11.7 5.3 11.7 11.7zm-4 0c0-4.2-3.5-7.7-7.7-7.7h-28.6c-4.2 0-7.7 3.5-7.7 7.7v58.6c0 4.2 3.5 7.7 7.7 7.7h28.6c4.2 0 7.7-3.5 7.7-7.7z"/><path fill-rule="evenodd" d="m31.9 22.6c0-5.1 4-9.2 9.1-9.2 5 0 9.1 4.1 9.1 9.2 0 5-4.1 9.1-9.1 9.1-5 0-9.1-4.1-9.1-9.1zm4-0.1c0 2.9 2.3 5.2 5.1 5.2 2.8 0 5.1-2.3 5.1-5.2 0-2.8-2.3-5.1-5.1-5.1-2.8 0-5.1 2.3-5.1 5.1z"/><path fill-rule="evenodd" d="m54.9 55.1c0 7.7-6.2 13.9-13.9 13.9-7.7 0-13.9-6.2-13.9-13.9 0-7.7 6.2-13.9 13.9-13.9 7.7 0 13.9 6.2 13.9 13.9zm-4 0c0-5.5-4.4-9.9-9.9-9.9-5.5 0-9.9 4.4-9.9 9.9 0 5.5 4.4 9.9 9.9 9.9 5.5 0 9.9-4.5 9.9-9.9z"/><path fill-rule="evenodd" d="m47.2 55c0 3.4-2.8 6.2-6.2 6.2-3.4 0-6.2-2.8-6.2-6.2 0-3.5 2.8-6.3 6.2-6.3 3.4 0 6.2 2.8 6.2 6.3zm-4 0c0-1.2-1-2.2-2.2-2.2-1.2 0-2.2 1-2.2 2.2 0 1.2 1 2.2 2.2 2.2 1.2 0 2.2-1 2.2-2.2z"/></g></svg>