<svg version="1.2" xmlns="http://www.w3.org/2000/svg" viewBox="0 0 96 96" width="96" height="96"><style>.a{fill:#fff}</style><path fill-rule="evenodd" class="a" d="m78 48v4h4c3.3 0 6 2.7 6 6 0 3.3-2.7 6-6 6h-4v4h4c3.3 0 6 2.7 6 6 0 3.3-2.7 6-6 6h-4v6c0 5.5-4.5 10-10 10h-40c-5.5 0-10-4.5-10-10v-6h-4c-3.3 0-6-2.7-6-6 0-3.3 2.7-6 6-6h4v-4h-4c-3.3 0-6-2.7-6-6 0-3.3 2.7-6 6-6h4v-4h-4c-3.3 0-6-2.7-6-6 0-3.3 2.7-6 6-6h4v-4h-4c-3.3 0-6-2.7-6-6 0-3.3 2.7-6 6-6h4v-2c0-5.5 4.5-10 10-10h14.4q-0.4-0.9-0.4-2c0-3.3 2.7-6 6-6 3.3 0 6 2.7 6 6q0 1.1-0.4 2h14.4c5.5 0 10 4.5 10 10v2h4c3.3 0 6 2.7 6 6 0 3.3-2.7 6-6 6h-4v4h4c3.3 0 6 2.7 6 6 0 3.3-2.7 6-6 6zm0-8v4h4c1.1 0 2-0.9 2-2 0-1.1-0.9-2-2-2zm-4 46v-18h-12v10c0 7.6-6.1 13.8-13.7 14h19.7c3.3 0 6-2.7 6-6zm-26.3 6c-7.6-0.2-13.7-6.4-13.7-14v-10h-12v18c0 3.3 2.7 6 6 6zm26.3-28v-12h-52v12zm0-16v-12h-52v12zm-52-28v12h52v-12zm56 4v4h4c1.1 0 2-0.9 2-2 0-1.1-0.9-2-2-2zm-30-16c1.2 0 2-0.9 2-2 0-1.1-0.9-2-2-2-1.1 0-2 0.9-2 2 0 1.1 0.9 2 2 2zm-25.6 8h51.3c-0.9-2.3-3.1-4-5.7-4h-40c-2.6 0-4.8 1.7-5.6 4zm-4.4 12v-4h-4c-1.1 0-2 0.9-2 2 0 1.1 0.9 2 2 2zm0 16v-4h-4c-1.1 0-2 0.9-2 2 0 1.1 0.9 2 2 2zm0 16v-4h-4c-1.1 0-2 0.9-2 2 0 1.1 0.9 2 2 2zm0 16v-4h-4c-1.1 0-2 0.9-2 2 0 1.1 0.9 2 2 2zm20 2c0 5.5 4.5 10 10 10 5.6 0 10-4.5 10-10v-10h-20zm40-6v4h4c1.1 0 2-0.9 2-2 0-1.1-0.9-2-2-2zm0-16v4h4c1.1 0 2-0.9 2-2 0-1.1-0.9-2-2-2zm-36 22c0-3.3 2.7-6 6-6 3.4 0 6 2.7 6 6 0 3.3-2.6 6-6 6-3.3 0-6-2.7-6-6zm4 0c0 1.1 0.9 2 2 2 1.2 0 2-0.9 2-2 0-1.1-0.9-2-2-2-1.1 0-2 0.9-2 2zm2 14q0.2 0 0.4 0h-0.7q0.2 0 0.3 0z"/></svg>