<svg version="1.2" xmlns="http://www.w3.org/2000/svg" viewBox="0 0 94 94" width="94" height="94"><style></style><filter id="f0"><feFlood flood-color="#ffffff" flood-opacity="1" /><feBlend mode="normal" in2="SourceGraphic"/><feComposite in2="SourceAlpha" operator="in" /></filter><g filter="url(#f0)"><path fill-rule="evenodd" d="m92.4 80.1c0 3.3-2.7 6.1-6.1 6.1h-4v2c0 3.1-2.5 5.7-5.7 5.7h-1.2c-3.1 0-5.7-2.6-5.7-5.7v-2h-45.4v2c0 3.1-2.6 5.7-5.7 5.7h-1.2c-3.2 0-5.7-2.6-5.7-5.7v-2h-4c-3.4 0-6.2-2.8-6.2-6.1 0-2.9 2-5.3 4.7-6v-32.1c0-6.9 5.6-12.5 12.4-12.5h6v-11.1c-3.6-1.4-6.1-4.9-6.1-8.9 0-2.5 0.9-4.8 2.7-6.6 1.8-1.8 4.2-2.8 6.7-2.8h38.2c5.2 0 9.4 4.2 9.4 9.4 0 2.6-0.9 4.9-2.7 6.7-1 1-2.1 1.7-3.4 2.2v11.1h6c6.8 0 12.4 5.6 12.4 12.5v32.1c2.7 0.7 4.6 3.1 4.6 6zm-65.9-64.4c0.7 0.1 1.2 0.8 1.2 1.5v12.3h38.6v-12.3c0-0.7 0.5-1.4 1.2-1.5 1.2-0.3 2.2-0.9 3.1-1.7 1.2-1.2 1.8-2.8 1.8-4.5 0-3.4-2.8-6.2-6.3-6.2h-38.2c-1.7 0-3.3 0.6-4.5 1.8-1.2 1.2-1.8 2.8-1.8 4.4 0 3 2.1 5.5 4.9 6.2zm-17.2 58.2h75.4v-31.9c0-5.2-4.2-9.4-9.3-9.4-0.1 0-7.6 0-7.6 0 0 0-41.6 0-41.7 0h-7.5c-5.1 0-9.3 4.2-9.3 9.4zm11.8 12.2h-6.3v2c0 1.4 1.2 2.6 2.6 2.6h1.2c1.4 0 2.5-1.2 2.5-2.6zm58.1 0h-6.3v2c0 1.4 1.1 2.6 2.5 2.6h1.2c1.5 0 2.6-1.2 2.6-2.6zm10.1-6.1c0-1.7-1.3-3-3-3h-78.6c-1.7 0-3 1.3-3 3 0 1.6 1.3 3 3 3h78.6c1.7 0 3-1.4 3-3z"/><path fill-rule="evenodd" d="m83.1 61.7c0 0.8-0.7 1.5-1.5 1.5h-2.3v2.5c0 2.9-2.3 5.3-5.2 5.3-3 0-5.3-2.4-5.3-5.3v-20c0-2.9 2.3-5.3 5.3-5.3 2.9 0 5.2 2.4 5.2 5.3v14.4h2.3c0.8 0 1.5 0.7 1.5 1.6zm-6.9-16c0-1.2-1-2.2-2.1-2.2-1.2 0-2.2 1-2.2 2.2v20c0 1.2 1 2.1 2.2 2.1 1.1 0 2.1-0.9 2.1-2.1v-2.5h-1.7c-0.8 0-1.5-0.7-1.5-1.5 0-0.9 0.7-1.6 1.5-1.6h1.7z"/></g></svg>