<svg version="1.2" xmlns="http://www.w3.org/2000/svg" viewBox="0 0 48 48" width="48" height="48"><style></style><filter id="f0"><feFlood flood-color="#ffffff" flood-opacity="1" /><feBlend mode="normal" in2="SourceGraphic"/><feComposite in2="SourceAlpha" operator="in" /></filter><g filter="url(#f0)"><path fill-rule="evenodd" d="m48.1 15.2v22.8c0 2.2-1.4 4.1-3.4 4.9v4.1c0 0.6-0.4 1-1 1h-3.8q-0.6 0-0.9-0.6l-1.8-4.1h-26.3l-1.8 4.1c-0.1 0.4-0.5 0.6-0.9 0.6h-3.8c-0.6 0-1-0.4-1-1v-4.1c-2-0.8-3.4-2.7-3.4-4.9v-22.8c0-2.9 2.4-5.3 5.3-5.3h8.2c0.1-0.4 0.2-0.8 0.4-1.2-0.1 0-0.1 0-0.2-0.1l-6.9-6.9c-0.4-0.4-0.4-1 0-1.4 0.4-0.4 1-0.4 1.4 0l6.9 6.9c0.9-0.9 2.1-1.4 3.4-1.4 1 0 2 0.3 2.8 0.8l6.4-6.4c0.4-0.4 1-0.4 1.4 0 0.4 0.4 0.4 1 0 1.4l-6.4 6.4c0.4 0.6 0.7 1.2 0.8 1.9h19.2c2.9 0 5.3 2.4 5.4 5.3zm-32.6-5.3h5.9c-0.4-1.2-1.5-2.1-2.9-2.1-1.3 0-2.5 0.9-3 2.1zm-6.9 33.5h-3.2v2.6h2.1zm34 0h-3.2l1.1 2.6h2.1zm3.4-28.2c0-1.8-1.5-3.3-3.3-3.3h-37.4c-1.8 0-3.3 1.5-3.3 3.3v22.8c0 1.8 1.5 3.3 3.3 3.3h37.4c1.8 0 3.3-1.5 3.3-3.3z"/><path fill-rule="evenodd" d="m35 14.9v23.4c0 0.6-0.4 1-1 1h-29c-0.6 0-1-0.4-1-1v-23.4c0-0.6 0.4-1 1-1h29c0.6 0 1 0.5 1 1zm-2 1h-27v21.4h27z"/><path  d="m42.9 36.5h-4.4c-0.6 0-1 0.4-1 1 0 0.6 0.4 1 1 1h4.4c0.6 0 1-0.4 1-1 0-0.6-0.4-1-1-1z"/><path  d="m42.9 32.3h-4.4c-0.6 0-1 0.4-1 1 0 0.6 0.4 1 1 1h4.4c0.6 0 1-0.4 1-1 0-0.6-0.4-1-1-1z"/><path  d="m41.8 30v-3.4c0-0.6-0.4-1-1-1-0.6 0-1 0.4-1 1v3.4c0 0.6 0.4 1 1 1 0.5 0 1-0.4 1-1z"/><path fill-rule="evenodd" d="m44.9 19.6c0 2.3-1.8 4.1-4.1 4.1-2.3 0-4.1-1.9-4.1-4.1 0-2.3 1.9-4.1 4.1-4.1 2.2 0 4 1.8 4.1 4.1zm-2-0.1c0-1.2-1-2.1-2.1-2.1-1.2 0-2.1 1-2.1 2.1 0 1.2 1 2.1 2.1 2.1 1.1 0 2-0.9 2.1-2.1z"/></g></svg>