<svg version="1.2" xmlns="http://www.w3.org/2000/svg" viewBox="0 0 100 100" width="100" height="100"><style></style><filter id="f0"><feFlood flood-color="#ffffff" flood-opacity="1" /><feBlend mode="normal" in2="SourceGraphic"/><feComposite in2="SourceAlpha" operator="in" /></filter><g filter="url(#f0)"><path fill-rule="evenodd" d="m86.4 100h-72.8c-2.5 0-4.6-2.1-4.6-4.6v-90.8c0-2.5 2.1-4.6 4.6-4.6h72.8c2.5 0 4.6 2.1 4.6 4.6v90.8c0 2.5-2.1 4.6-4.6 4.6zm-72.8-97c-0.8 0-1.5 0.7-1.5 1.6v90.8c0 0.9 0.7 1.6 1.5 1.6h72.8c0.8 0 1.5-0.7 1.5-1.6v-90.8c0-0.9-0.7-1.6-1.5-1.6z"/><path  d="m89.4 16.1h-78.8c-0.9 0-1.6-0.7-1.6-1.5 0-0.9 0.7-1.5 1.6-1.5h78.8c0.9 0 1.6 0.6 1.6 1.5 0 0.8-0.7 1.5-1.6 1.5z"/><path  d="m79.7 9.6h-3.1c-0.8 0-1.5-0.7-1.5-1.6 0-0.8 0.7-1.5 1.5-1.5h3.1c0.8 0 1.5 0.7 1.5 1.5 0 0.9-0.7 1.6-1.5 1.6z"/><path  d="m70.1 9.6h-3.1c-0.8 0-1.5-0.7-1.5-1.6 0-0.8 0.7-1.5 1.5-1.5h3.1c0.9 0 1.5 0.7 1.5 1.5 0 0.9-0.6 1.6-1.5 1.6z"/><path  d="m60.6 9.6h-3.1c-0.9 0-1.5-0.7-1.5-1.6 0-0.8 0.6-1.5 1.5-1.5h3.1c0.8 0 1.5 0.7 1.5 1.5 0 0.9-0.7 1.6-1.5 1.6z"/><path  d="m36.1 9.6h-18.5c-0.8 0-1.5-0.7-1.5-1.6 0-0.8 0.7-1.5 1.5-1.5h18.5c0.9 0 1.5 0.7 1.5 1.5 0 0.9-0.6 1.6-1.5 1.6z"/><path fill-rule="evenodd" d="m50 86.3c-15.1 0-27.4-12.4-27.4-27.5 0-15.1 12.3-27.4 27.4-27.4 15.1 0 27.4 12.3 27.4 27.4 0 15.1-12.3 27.5-27.4 27.5zm0-51.9c-13.5 0-24.4 11-24.4 24.4 0 13.5 10.9 24.4 24.4 24.4 13.5 0 24.4-10.9 24.4-24.4 0-13.4-10.9-24.4-24.4-24.4z"/><path fill-rule="evenodd" d="m50 79.1c-11.2 0-20.3-9.1-20.3-20.3 0-11.2 9.1-20.3 20.3-20.3 11.2 0 20.3 9.1 20.3 20.3 0 11.2-9.1 20.3-20.3 20.3zm0-37.6c-9.5 0-17.3 7.8-17.3 17.3 0 9.6 7.8 17.3 17.3 17.3 9.5 0 17.3-7.8 17.3-17.3 0-9.5-7.8-17.3-17.3-17.3z"/><path  d="m62.5 74.3c-0.4 0-0.8-0.1-1.1-0.4-3.7-3.8-5.8-8.9-5.8-14.2 0-5.8 2.5-11.3 6.8-15.2 0.6-0.5 1.6-0.5 2.1 0.2 0.6 0.6 0.5 1.5-0.1 2.1-3.7 3.3-5.8 8-5.8 12.9 0 4.6 1.8 8.8 4.9 12.1 0.6 0.6 0.6 1.5 0 2.1-0.3 0.3-0.6 0.4-1 0.4z"/></g></svg>