<svg version="1.2" xmlns="http://www.w3.org/2000/svg" viewBox="0 0 512 512" width="512" height="512"><style></style><filter id="f0"><feFlood flood-color="#ffffff" flood-opacity="1" /><feBlend mode="normal" in2="SourceGraphic"/><feComposite in2="SourceAlpha" operator="in" /></filter><g filter="url(#f0)"><path  d="m251.2 44c97.9 1.4 179.7 34.7 247.5 101.7 14 13.9 17.3 30.6 8.3 42.1-9.2 11.8-27.4 13.1-43.9 2.8q-1.7-1.2-3.4-2.4-1.7-1.2-3.4-2.5-1.6-1.3-3.2-2.7-1.6-1.4-3.1-2.8c-108-103-273.7-106.4-386.3-7.6-10.9 9.5-22.8 16-37.7 15-10.5-0.7-18.9-5.2-23.6-14.9-4.8-10-1.9-19.1 4.4-27.3q1-1.4 2.1-2.7 1.2-1.2 2.4-2.5 1.1-1.2 2.4-2.3 1.2-1.2 2.5-2.3c67.6-60.7 147.3-90 235-91.6z"/><path  d="m258.1 157.8c67.5 1.4 123.2 26.9 172.8 67.8 6.2 5.1 10.6 12 13.6 19.6 3.7 9.6 4.4 19.3-2.9 27.7-7.4 8.5-17.3 9.9-27.8 7.6-11.3-2.5-19.9-9.5-28.4-17-67.2-60.2-166.9-64.4-238-10-6.3 4.8-12.2 10.4-18.2 15.7-9.3 8.1-19.7 13.2-32.4 12.2-16.5-1.4-26.1-15.3-21.5-31.1q0.9-3.1 2.2-5.9 1.3-2.9 2.9-5.6 1.7-2.6 3.8-5 2-2.4 4.3-4.5c48.6-44.6 105-70.5 169.6-71.5z"/><path  d="m270.7 276.4c8.7 0.2 17.2 1.2 25.7 3 8.4 1.9 16.6 4.6 24.5 8 7.9 3.5 15.4 7.8 22.5 12.7 7 5 13.5 10.6 19.5 16.9 8.5 8.9 14.3 18.9 11 32-4.3 16.7-24.4 24.6-38.4 11.6-43.6-40.4-104.2-40.7-150.5-2.3-12.9 10.7-21.1 11.6-31.5 3.3-10.3-8.3-12.8-22.2-5.9-35 3.7-6.9 9.1-12.3 15.1-17.2 26.5-21.5 60.6-33 108-33z"/><path  d="m302.6 425.8c0 5.5-1.1 11.1-3.2 16.2-2.2 5.2-5.3 9.8-9.3 13.7-4 4-8.7 7.1-13.8 9.2-5.2 2.1-10.7 3.1-16.3 3.1-24.3-0.2-43.1-19.2-42.7-43.3 0.4-25.1 19.4-44 43.8-43.5 23.5 0.4 41.7 20 41.5 44.6z"/></g></svg>