<svg width="95" height="95" viewBox="0 0 95 95" fill="none" xmlns="http://www.w3.org/2000/svg">
<path d="M41.9579 50.3104C41.5869 49.9425 41.2925 49.5047 41.0915 49.0223C40.8905 48.5399 40.7871 48.0226 40.7871 47.5C40.7871 46.9775 40.8905 46.4601 41.0915 45.9777C41.2925 45.4954 41.5869 45.0576 41.9579 44.6896L60.1267 26.5604C60.4977 26.1925 60.7922 25.7547 60.9931 25.2723C61.1941 24.7899 61.2976 24.2726 61.2976 23.75C61.2976 23.2275 61.1941 22.7101 60.9931 22.2277C60.7922 21.7454 60.4977 21.3076 60.1267 20.9396C59.385 20.2024 58.3818 19.7885 57.3361 19.7885C56.2903 19.7885 55.2871 20.2024 54.5454 20.9396L36.3767 39.1083C34.1529 41.3349 32.9038 44.3531 32.9038 47.5C32.9038 50.6469 34.1529 53.6651 36.3767 55.8917L54.5454 74.0604C55.2827 74.7917 56.2778 75.204 57.3163 75.2084C57.8372 75.2114 58.3536 75.1115 58.8359 74.9145C59.3182 74.7175 59.7568 74.4273 60.1267 74.0604C60.4977 73.6925 60.7922 73.2547 60.9931 72.7723C61.1941 72.2899 61.2976 71.7726 61.2976 71.25C61.2976 70.7275 61.1941 70.2101 60.9931 69.7277C60.7922 69.2454 60.4977 68.8076 60.1267 68.4396L41.9579 50.3104Z" fill="black" fill-opacity="0.8"/>
</svg>
