<svg width="95" height="95" viewBox="0 0 95 95" fill="none" xmlns="http://www.w3.org/2000/svg">
<path d="M60.9576 39.1084L42.7889 20.9396C42.0472 20.2024 41.044 19.7885 39.9982 19.7885C38.9525 19.7885 37.9493 20.2024 37.2076 20.9396C36.8366 21.3076 36.5421 21.7454 36.3412 22.2277C36.1402 22.7101 36.0367 23.2275 36.0367 23.75C36.0367 24.2726 36.1402 24.7899 36.3412 25.2723C36.5421 25.7547 36.8366 26.1925 37.2076 26.5604L55.4159 44.6896C55.787 45.0576 56.0814 45.4954 56.2824 45.9777C56.4834 46.4601 56.5868 46.9775 56.5868 47.5C56.5868 48.0226 56.4834 48.5399 56.2824 49.0223C56.0814 49.5047 55.787 49.9425 55.4159 50.3104L37.2076 68.4396C36.4622 69.1797 36.0414 70.1856 36.0377 71.236C36.034 72.2864 36.4477 73.2953 37.1878 74.0406C37.9279 74.786 38.9338 75.2068 39.9842 75.2106C41.0346 75.2143 42.0435 74.8006 42.7889 74.0604L60.9576 55.8917C63.1814 53.6651 64.4305 50.6469 64.4305 47.5C64.4305 44.3531 63.1814 41.3349 60.9576 39.1084Z" fill="white" fill-opacity="0.8"/>
</svg>
