<svg width="23" height="22" viewBox="0 0 23 22" fill="none" xmlns="http://www.w3.org/2000/svg">
<g clip-path="url(#clip0_87_807)">
<path d="M18.3682 0.916504H5.52146C4.30506 0.917959 3.13891 1.40131 2.27878 2.26054C1.41866 3.11977 0.934807 4.28471 0.93335 5.49984L0.93335 16.4998C0.934807 17.715 1.41866 18.8799 2.27878 19.7391C3.13891 20.5984 4.30506 21.0817 5.52146 21.0832H18.3682C19.5846 21.0817 20.7507 20.5984 21.6108 19.7391C22.471 18.8799 22.9548 17.715 22.9563 16.4998V5.49984C22.9548 4.28471 22.471 3.11977 21.6108 2.26054C20.7507 1.40131 19.5846 0.917959 18.3682 0.916504ZM5.52146 2.74984H18.3682C18.9176 2.75092 19.4542 2.91623 19.9088 3.22449C20.3634 3.53276 20.7153 3.96987 20.9191 4.47959L13.892 11.5003C13.3749 12.0149 12.6747 12.3038 11.9448 12.3038C11.2149 12.3038 10.5148 12.0149 9.99762 11.5003L2.97047 4.47959C3.17432 3.96987 3.52619 3.53276 3.98081 3.22449C4.43544 2.91623 4.972 2.75092 5.52146 2.74984ZM18.3682 19.2498H5.52146C4.79135 19.2498 4.09115 18.9601 3.57489 18.4444C3.05863 17.9287 2.76859 17.2292 2.76859 16.4998V6.87484L8.7001 12.7965C9.5614 13.6547 10.7283 14.1367 11.9448 14.1367C13.1613 14.1367 14.3282 13.6547 15.1895 12.7965L21.121 6.87484V16.4998C21.121 17.2292 20.831 17.9287 20.3147 18.4444C19.7985 18.9601 19.0983 19.2498 18.3682 19.2498Z" fill="white"/>
</g>
<defs>
<clipPath id="clip0_87_807">
<rect width="22.0229" height="22" fill="white" transform="translate(0.93335)"/>
</clipPath>
</defs>
</svg>
