<svg width="49" height="48" viewBox="0 0 49 48" fill="none" xmlns="http://www.w3.org/2000/svg">
<g clip-path="url(#clip0_87_800)">
<path d="M24.4 0C11.1315 0 0.375 10.7453 0.375 24C0.375 35.255 8.13219 44.6995 18.5965 47.2934V31.3344H13.6426V24H18.5965V20.8397C18.5965 12.671 22.2973 8.8848 30.3255 8.8848C31.8477 8.8848 34.4742 9.18336 35.5486 9.48096V16.129C34.9816 16.0694 33.9965 16.0397 32.7732 16.0397C28.8341 16.0397 27.3118 17.5306 27.3118 21.4061V24H35.1594L33.8111 31.3344H27.3118V47.8243C39.208 46.3891 48.426 36.2707 48.426 24C48.425 10.7453 37.6685 0 24.4 0Z" fill="white"/>
</g>
<defs>
<clipPath id="clip0_87_800">
<rect width="48.05" height="48" fill="white" transform="translate(0.375)"/>
</clipPath>
</defs>
</svg>
