<svg width="49" height="48" viewBox="0 0 49 48" fill="none" xmlns="http://www.w3.org/2000/svg">
<g clip-path="url(#clip0_87_798)">
<path d="M24.6645 4.32187C31.0837 4.32187 31.8439 4.35 34.3684 4.4625C36.7146 4.56562 37.9815 4.95938 38.8261 5.2875C39.9429 5.71875 40.75 6.24375 41.5853 7.07812C42.4299 7.92188 42.9461 8.71875 43.3778 9.83438C43.7062 10.6781 44.1004 11.9531 44.2036 14.2875C44.3162 16.8187 44.3444 17.5781 44.3444 23.9813C44.3444 30.3938 44.3162 31.1531 44.2036 33.675C44.1004 36.0188 43.7062 37.2844 43.3778 38.1281C42.9461 39.2438 42.4205 40.05 41.5853 40.8844C40.7406 41.7281 39.9429 42.2438 38.8261 42.675C37.9815 43.0031 36.7052 43.3969 34.3684 43.5C31.8345 43.6125 31.0743 43.6406 24.6645 43.6406C18.2453 43.6406 17.4852 43.6125 14.9607 43.5C12.6145 43.3969 11.3475 43.0031 10.5029 42.675C9.38613 42.2438 8.57904 41.7188 7.74379 40.8844C6.89917 40.0406 6.383 39.2438 5.9513 38.1281C5.62284 37.2844 5.22868 36.0094 5.12544 33.675C5.01283 31.1438 4.98467 30.3844 4.98467 23.9813C4.98467 17.5688 5.01283 16.8094 5.12544 14.2875C5.22868 11.9437 5.62284 10.6781 5.9513 9.83438C6.383 8.71875 6.90855 7.9125 7.74379 7.07812C8.58842 6.23438 9.38613 5.71875 10.5029 5.2875C11.3475 4.95938 12.6239 4.56562 14.9607 4.4625C17.4852 4.35 18.2453 4.32187 24.6645 4.32187ZM24.6645 0C18.1421 0 17.3256 0.028125 14.7636 0.140625C12.2109 0.253125 10.456 0.665625 8.93566 1.25625C7.34963 1.875 6.00761 2.69062 4.67498 4.03125C3.33295 5.3625 2.51648 6.70313 1.89708 8.27813C1.30584 9.80625 0.892915 11.55 0.780298 14.1C0.667681 16.6687 0.639526 17.4844 0.639526 24C0.639526 30.5156 0.667681 31.3312 0.780298 33.8906C0.892915 36.4406 1.30584 38.1938 1.89708 39.7125C2.51648 41.2969 3.33295 42.6375 4.67498 43.9688C6.00761 45.3 7.34963 46.125 8.92628 46.7344C10.456 47.325 12.2016 47.7375 14.7542 47.85C17.3163 47.9625 18.1327 47.9906 24.6551 47.9906C31.1776 47.9906 31.994 47.9625 34.5561 47.85C37.1087 47.7375 38.8637 47.325 40.384 46.7344C41.9607 46.125 43.3027 45.3 44.6353 43.9688C45.9679 42.6375 46.7938 41.2969 47.4038 39.7219C47.9951 38.1938 48.408 36.45 48.5206 33.9C48.6332 31.3406 48.6614 30.525 48.6614 24.0094C48.6614 17.4938 48.6332 16.6781 48.5206 14.1188C48.408 11.5688 47.9951 9.81563 47.4038 8.29688C46.8126 6.70312 45.9961 5.3625 44.6541 4.03125C43.3214 2.7 41.9794 1.875 40.4028 1.26562C38.8731 0.675 37.1275 0.2625 34.5748 0.15C32.0034 0.028125 31.1869 0 24.6645 0Z" fill="white"/>
<path d="M24.6645 11.6719C17.8512 11.6719 12.3235 17.1938 12.3235 24C12.3235 30.8062 17.8512 36.3281 24.6645 36.3281C31.4779 36.3281 37.0055 30.8062 37.0055 24C37.0055 17.1938 31.4779 11.6719 24.6645 11.6719ZM24.6645 31.9969C20.2443 31.9969 16.6593 28.4156 16.6593 24C16.6593 19.5844 20.2443 16.0031 24.6645 16.0031C29.0847 16.0031 32.6697 19.5844 32.6697 24C32.6697 28.4156 29.0847 31.9969 24.6645 31.9969Z" fill="white"/>
<path d="M40.3746 11.1843C40.3746 12.778 39.0795 14.0624 37.4935 14.0624C35.8981 14.0624 34.6124 12.7687 34.6124 11.1843C34.6124 9.59053 35.9075 8.30615 37.4935 8.30615C39.0795 8.30615 40.3746 9.5999 40.3746 11.1843Z" fill="white"/>
</g>
<defs>
<clipPath id="clip0_87_798">
<rect width="48.05" height="48" fill="white" transform="translate(0.639526)"/>
</clipPath>
</defs>
</svg>
