<svg width="49" height="48" viewBox="0 0 49 48" fill="none" xmlns="http://www.w3.org/2000/svg">
<g clip-path="url(#clip0_87_797)">
<path d="M45.2661 0H4.32039C2.35897 0 0.772949 1.54688 0.772949 3.45938V44.5312C0.772949 46.4437 2.35897 48 4.32039 48H45.2661C47.2275 48 48.8229 46.4438 48.8229 44.5406V3.45938C48.8229 1.54688 47.2275 0 45.2661 0ZM15.0284 40.9031H7.89599V17.9906H15.0284V40.9031ZM11.4622 14.8688C9.17231 14.8688 7.32352 13.0219 7.32352 10.7437C7.32352 8.46562 9.17231 6.61875 11.4622 6.61875C13.7427 6.61875 15.5915 8.46562 15.5915 10.7437C15.5915 13.0125 13.7427 14.8688 11.4622 14.8688ZM41.7187 40.9031H34.5956V29.7656C34.5956 27.1125 34.5487 23.6906 30.8887 23.6906C27.1817 23.6906 26.6186 26.5875 26.6186 29.5781V40.9031H19.5049V17.9906H26.337V21.1219H26.4309C27.3788 19.3219 29.7062 17.4188 33.1692 17.4188C40.386 17.4188 41.7187 22.1625 41.7187 28.3313V40.9031Z" fill="white"/>
</g>
<defs>
<clipPath id="clip0_87_797">
<rect width="48.05" height="48" fill="white" transform="translate(0.772949)"/>
</clipPath>
</defs>
</svg>
