<svg width="23" height="22" viewBox="0 0 23 22" fill="none" xmlns="http://www.w3.org/2000/svg">
<g clip-path="url(#clip0_87_808)">
<path d="M12.8602 0.916727C12.8602 0.673612 12.9569 0.440454 13.129 0.268546C13.3011 0.0966372 13.5345 6.00785e-05 13.7779 6.00785e-05C16.2107 0.00272904 18.5432 0.969357 20.2635 2.68786C21.9838 4.40637 22.9514 6.7364 22.9541 9.16673C22.9541 9.40984 22.8574 9.643 22.6853 9.81491C22.5132 9.98682 22.2798 10.0834 22.0365 10.0834C21.7931 10.0834 21.5597 9.98682 21.3876 9.81491C21.2155 9.643 21.1188 9.40984 21.1188 9.16673C21.1166 7.22248 20.3425 5.35848 18.9663 3.98369C17.5901 2.60889 15.7241 1.83558 13.7779 1.83339C13.5345 1.83339 13.3011 1.73682 13.129 1.56491C12.9569 1.393 12.8602 1.15984 12.8602 0.916727ZM13.7779 5.50006C14.7513 5.50006 15.6849 5.88637 16.3733 6.574C17.0616 7.26164 17.4484 8.19427 17.4484 9.16673C17.4484 9.40984 17.545 9.643 17.7171 9.81491C17.8892 9.98682 18.1226 10.0834 18.366 10.0834C18.6093 10.0834 18.8427 9.98682 19.0148 9.81491C19.1869 9.643 19.2836 9.40984 19.2836 9.16673C19.2821 7.70848 18.7016 6.31038 17.6694 5.27925C16.6372 4.24811 15.2376 3.66818 13.7779 3.66673C13.5345 3.66673 13.3011 3.7633 13.129 3.93521C12.9569 4.10712 12.8602 4.34028 12.8602 4.58339C12.8602 4.82651 12.9569 5.05967 13.129 5.23157C13.3011 5.40348 13.5345 5.50006 13.7779 5.50006ZM22.1218 15.3441C22.6536 15.8768 22.9522 16.5984 22.9522 17.3507C22.9522 18.103 22.6536 18.8246 22.1218 19.3573L21.2868 20.3189C13.7714 27.5065 -4.51673 9.24189 2.5673 1.71056L3.62256 0.793893C4.15641 0.277514 4.8723 -0.00814493 5.61536 -0.00128298C6.35843 0.00557897 7.06891 0.30441 7.59311 0.83056C7.62155 0.858977 9.3219 3.06539 9.3219 3.06539C9.82644 3.59489 10.1073 4.29825 10.1061 5.02926C10.1049 5.76028 9.82175 6.46272 9.31548 6.99056L8.25288 8.32523C8.84093 9.75258 9.70553 11.0498 10.797 12.1423C11.8884 13.2348 13.1853 14.1012 14.6129 14.6915L15.9572 13.6236C16.4857 13.1182 17.1887 12.8357 17.9203 12.8347C18.6518 12.8336 19.3557 13.1142 19.8855 13.6181C19.8855 13.6181 22.0933 15.3157 22.1218 15.3441ZM20.8591 16.677C20.8591 16.677 18.6633 14.9894 18.6348 14.961C18.4458 14.7737 18.1904 14.6687 17.9241 14.6687C17.6579 14.6687 17.4025 14.7737 17.2134 14.961C17.1887 14.9866 15.3378 16.4597 15.3378 16.4597C15.2131 16.5589 15.0647 16.6239 14.9071 16.6483C14.7496 16.6728 14.5884 16.6558 14.4395 16.5991C12.59 15.9112 10.9101 14.8342 9.51354 13.4412C8.11701 12.0482 7.03648 10.3716 6.34514 8.52506C6.28384 8.37423 6.26386 8.20981 6.28725 8.0487C6.31063 7.8876 6.37654 7.73562 6.4782 7.60839C6.4782 7.60839 7.95281 5.75856 7.97759 5.73473C8.16503 5.54588 8.2702 5.29071 8.2702 5.02477C8.2702 4.75883 8.16503 4.50366 7.97759 4.31481C7.94914 4.28731 6.25981 2.09189 6.25981 2.09189C6.06793 1.92002 5.81752 1.82798 5.55989 1.83463C5.30226 1.84128 5.05694 1.94611 4.8742 2.12764L3.81893 3.04431C-1.35828 9.26298 14.4899 24.2166 19.9452 19.0667L20.7811 18.1042C20.977 17.923 21.0947 17.6727 21.1093 17.4064C21.1238 17.14 21.0341 16.8785 20.8591 16.677Z" fill="white"/>
</g>
<defs>
<clipPath id="clip0_87_808">
<rect width="22.0229" height="22" fill="white" transform="translate(0.931274)"/>
</clipPath>
</defs>
</svg>
