<svg width="430" height="100" viewBox="0 0 430 100" fill="none" xmlns="http://www.w3.org/2000/svg">
<rect width="430" height="100" rx="50" fill="#5E6845"/>
<path d="M99.064 68.384C96.504 68.384 94.136 67.968 91.96 67.136C89.816 66.272 87.944 65.072 86.344 63.536C84.776 61.968 83.544 60.144 82.648 58.064C81.752 55.984 81.304 53.696 81.304 51.2C81.304 48.704 81.752 46.416 82.648 44.336C83.544 42.256 84.792 40.448 86.392 38.912C87.992 37.344 89.864 36.144 92.008 35.312C94.184 34.448 96.552 34.016 99.112 34.016C101.704 34.016 104.088 34.464 106.264 35.36C108.472 36.224 110.344 37.52 111.88 39.248L108.76 42.272C107.48 40.928 106.04 39.936 104.44 39.296C102.84 38.624 101.128 38.288 99.304 38.288C97.416 38.288 95.656 38.608 94.024 39.248C92.424 39.888 91.032 40.784 89.848 41.936C88.664 43.088 87.736 44.464 87.064 46.064C86.424 47.632 86.104 49.344 86.104 51.2C86.104 53.056 86.424 54.784 87.064 56.384C87.736 57.952 88.664 59.312 89.848 60.464C91.032 61.616 92.424 62.512 94.024 63.152C95.656 63.792 97.416 64.112 99.304 64.112C101.128 64.112 102.84 63.792 104.44 63.152C106.04 62.48 107.48 61.456 108.76 60.08L111.88 63.104C110.344 64.832 108.472 66.144 106.264 67.04C104.088 67.936 101.688 68.384 99.064 68.384ZM127.873 68.288C125.313 68.288 123.041 67.728 121.057 66.608C119.073 65.488 117.505 63.952 116.353 62C115.201 60.016 114.625 57.776 114.625 55.28C114.625 52.752 115.201 50.512 116.353 48.56C117.505 46.608 119.073 45.088 121.057 44C123.041 42.88 125.313 42.32 127.873 42.32C130.401 42.32 132.657 42.88 134.641 44C136.657 45.088 138.225 46.608 139.345 48.56C140.497 50.48 141.073 52.72 141.073 55.28C141.073 57.808 140.497 60.048 139.345 62C138.225 63.952 136.657 65.488 134.641 66.608C132.657 67.728 130.401 68.288 127.873 68.288ZM127.873 64.256C129.505 64.256 130.961 63.888 132.241 63.152C133.553 62.416 134.577 61.376 135.313 60.032C136.049 58.656 136.417 57.072 136.417 55.28C136.417 53.456 136.049 51.888 135.313 50.576C134.577 49.232 133.553 48.192 132.241 47.456C130.961 46.72 129.505 46.352 127.873 46.352C126.241 46.352 124.785 46.72 123.505 47.456C122.225 48.192 121.201 49.232 120.433 50.576C119.665 51.888 119.281 53.456 119.281 55.28C119.281 57.072 119.665 58.656 120.433 60.032C121.201 61.376 122.225 62.416 123.505 63.152C124.785 63.888 126.241 64.256 127.873 64.256ZM161.03 42.32C163.11 42.32 164.934 42.72 166.502 43.52C168.102 44.32 169.35 45.536 170.246 47.168C171.142 48.8 171.59 50.864 171.59 53.36V68H166.982V53.888C166.982 51.424 166.374 49.568 165.158 48.32C163.974 47.072 162.294 46.448 160.118 46.448C158.486 46.448 157.062 46.768 155.846 47.408C154.63 48.048 153.686 48.992 153.014 50.24C152.374 51.488 152.054 53.04 152.054 54.896V68H147.446V42.56H151.862V49.424L151.142 47.6C151.974 45.936 153.254 44.64 154.982 43.712C156.71 42.784 158.726 42.32 161.03 42.32ZM188.854 68.288C186.294 68.288 184.31 67.6 182.902 66.224C181.494 64.848 180.79 62.88 180.79 60.32V36.992H185.398V60.128C185.398 61.504 185.734 62.56 186.406 63.296C187.11 64.032 188.102 64.4 189.382 64.4C190.822 64.4 192.022 64 192.982 63.2L194.422 66.512C193.718 67.12 192.87 67.568 191.878 67.856C190.918 68.144 189.91 68.288 188.854 68.288ZM176.47 46.352V42.56H192.694V46.352H176.47ZM215.785 68V62.624L215.545 61.616V52.448C215.545 50.496 214.969 48.992 213.817 47.936C212.697 46.848 211.001 46.304 208.729 46.304C207.225 46.304 205.753 46.56 204.313 47.072C202.873 47.552 201.657 48.208 200.665 49.04L198.745 45.584C200.057 44.528 201.625 43.728 203.449 43.184C205.305 42.608 207.241 42.32 209.257 42.32C212.745 42.32 215.433 43.168 217.321 44.864C219.209 46.56 220.153 49.152 220.153 52.64V68H215.785ZM207.433 68.288C205.545 68.288 203.881 67.968 202.441 67.328C201.033 66.688 199.945 65.808 199.177 64.688C198.409 63.536 198.025 62.24 198.025 60.8C198.025 59.424 198.345 58.176 198.985 57.056C199.657 55.936 200.729 55.04 202.201 54.368C203.705 53.696 205.721 53.36 208.249 53.36H216.313V56.672H208.441C206.137 56.672 204.585 57.056 203.785 57.824C202.985 58.592 202.585 59.52 202.585 60.608C202.585 61.856 203.081 62.864 204.073 63.632C205.065 64.368 206.441 64.736 208.201 64.736C209.929 64.736 211.433 64.352 212.713 63.584C214.025 62.816 214.969 61.696 215.545 60.224L216.457 63.392C215.849 64.896 214.777 66.096 213.241 66.992C211.705 67.856 209.769 68.288 207.433 68.288ZM239.769 68.288C237.177 68.288 234.857 67.728 232.809 66.608C230.793 65.488 229.209 63.952 228.057 62C226.905 60.048 226.329 57.808 226.329 55.28C226.329 52.752 226.905 50.512 228.057 48.56C229.209 46.608 230.793 45.088 232.809 44C234.857 42.88 237.177 42.32 239.769 42.32C242.073 42.32 244.121 42.784 245.913 43.712C247.737 44.608 249.145 45.952 250.137 47.744L246.633 50C245.801 48.752 244.777 47.84 243.561 47.264C242.377 46.656 241.097 46.352 239.721 46.352C238.057 46.352 236.569 46.72 235.257 47.456C233.945 48.192 232.905 49.232 232.137 50.576C231.369 51.888 230.985 53.456 230.985 55.28C230.985 57.104 231.369 58.688 232.137 60.032C232.905 61.376 233.945 62.416 235.257 63.152C236.569 63.888 238.057 64.256 239.721 64.256C241.097 64.256 242.377 63.968 243.561 63.392C244.777 62.784 245.801 61.856 246.633 60.608L250.137 62.816C249.145 64.576 247.737 65.936 245.913 66.896C244.121 67.824 242.073 68.288 239.769 68.288ZM265.167 68.288C262.607 68.288 260.623 67.6 259.215 66.224C257.807 64.848 257.103 62.88 257.103 60.32V36.992H261.711V60.128C261.711 61.504 262.047 62.56 262.719 63.296C263.423 64.032 264.415 64.4 265.695 64.4C267.135 64.4 268.335 64 269.295 63.2L270.735 66.512C270.031 67.12 269.183 67.568 268.191 67.856C267.231 68.144 266.223 68.288 265.167 68.288ZM252.783 46.352V42.56H269.007V46.352H252.783ZM303.788 68.384C299.372 68.384 295.9 67.12 293.372 64.592C290.844 62.064 289.58 58.368 289.58 53.504V34.4H294.38V53.312C294.38 57.056 295.196 59.792 296.828 61.52C298.492 63.248 300.828 64.112 303.836 64.112C306.876 64.112 309.212 63.248 310.844 61.52C312.508 59.792 313.34 57.056 313.34 53.312V34.4H317.996V53.504C317.996 58.368 316.732 62.064 314.204 64.592C311.708 67.12 308.236 68.384 303.788 68.384ZM334.461 68.288C332.349 68.288 330.333 68 328.413 67.424C326.525 66.848 325.037 66.144 323.949 65.312L325.869 61.664C326.957 62.4 328.301 63.024 329.901 63.536C331.501 64.048 333.133 64.304 334.797 64.304C336.941 64.304 338.477 64 339.405 63.392C340.365 62.784 340.845 61.936 340.845 60.848C340.845 60.048 340.557 59.424 339.981 58.976C339.405 58.528 338.637 58.192 337.677 57.968C336.749 57.744 335.709 57.552 334.557 57.392C333.405 57.2 332.253 56.976 331.101 56.72C329.949 56.432 328.893 56.048 327.933 55.568C326.973 55.056 326.205 54.368 325.629 53.504C325.053 52.608 324.765 51.424 324.765 49.952C324.765 48.416 325.197 47.072 326.061 45.92C326.925 44.768 328.141 43.888 329.709 43.28C331.309 42.64 333.197 42.32 335.373 42.32C337.037 42.32 338.717 42.528 340.413 42.944C342.141 43.328 343.549 43.888 344.637 44.624L342.669 48.272C341.517 47.504 340.317 46.976 339.069 46.688C337.821 46.4 336.573 46.256 335.325 46.256C333.309 46.256 331.805 46.592 330.813 47.264C329.821 47.904 329.325 48.736 329.325 49.76C329.325 50.624 329.613 51.296 330.189 51.776C330.797 52.224 331.565 52.576 332.493 52.832C333.453 53.088 334.509 53.312 335.661 53.504C336.813 53.664 337.965 53.888 339.117 54.176C340.269 54.432 341.309 54.8 342.237 55.28C343.197 55.76 343.965 56.432 344.541 57.296C345.149 58.16 345.453 59.312 345.453 60.752C345.453 62.288 345.005 63.616 344.109 64.736C343.213 65.856 341.949 66.736 340.317 67.376C338.685 67.984 336.733 68.288 334.461 68.288Z" fill="#222812"/>
</svg>
