<svg width="59" height="59" viewBox="0 0 59 59" fill="none" xmlns="http://www.w3.org/2000/svg">
<path d="M56.4347 26.9363H2.56519C1.14847 26.9363 1.52588e-05 28.0848 1.52588e-05 29.5015C1.52588e-05 30.9182 1.14847 32.0667 2.56519 32.0667H56.4347C57.8514 32.0667 58.9999 30.9182 58.9999 29.5015C59 28.0848 57.8514 26.9363 56.4347 26.9363Z" fill="white"/>
<path d="M2.56519 14.1092H56.4347C57.8514 14.1092 58.9999 12.9608 58.9999 11.5441C58.9999 10.1273 57.8514 8.97888 56.4347 8.97888H2.56519C1.14847 8.97888 1.52588e-05 10.1273 1.52588e-05 11.5441C1.52588e-05 12.9608 1.14847 14.1092 2.56519 14.1092Z" fill="white"/>
<path d="M56.4347 44.8916H2.56519C1.14847 44.8916 1.52588e-05 46.0402 1.52588e-05 47.4569C1.52588e-05 48.8736 1.14847 50.0221 2.56519 50.0221H56.4347C57.8514 50.0221 58.9999 48.8736 58.9999 47.4569C59 46.0402 57.8514 44.8916 56.4347 44.8916Z" fill="white"/>
</svg>
