<svg width="27" height="27" viewBox="0 0 27 27" fill="none" xmlns="http://www.w3.org/2000/svg">
<g clip-path="url(#clip0_79_127)">
<path d="M13.5 13.4999C14.835 13.4999 16.1401 13.1041 17.2501 12.3624C18.3601 11.6207 19.2253 10.5665 19.7362 9.33306C20.2471 8.09965 20.3808 6.74245 20.1203 5.43308C19.8599 4.12371 19.217 2.92098 18.273 1.97697C17.329 1.03297 16.1262 0.390092 14.8169 0.129641C13.5075 -0.130809 12.1503 0.00286365 10.9169 0.513755C9.68349 1.02465 8.62928 1.88981 7.88758 2.99984C7.14588 4.10987 6.75 5.41492 6.75 6.74994C6.75179 8.53961 7.46352 10.2555 8.729 11.5209C9.99449 12.7864 11.7103 13.4982 13.5 13.4999ZM13.5 2.24994C14.39 2.24994 15.26 2.51386 16.0001 3.00833C16.7401 3.50279 17.3169 4.2056 17.6575 5.02787C17.9981 5.85013 18.0872 6.75493 17.9135 7.62785C17.7399 8.50076 17.3113 9.30259 16.682 9.93192C16.0526 10.5613 15.2508 10.9898 14.3779 11.1635C13.505 11.3371 12.6002 11.248 11.7779 10.9074C10.9557 10.5668 10.2529 9.99003 9.75839 9.25001C9.26392 8.50999 9 7.63996 9 6.74994C9 5.55647 9.47411 4.41188 10.318 3.56796C11.1619 2.72405 12.3065 2.24994 13.5 2.24994Z" fill="white"/>
<path d="M13.5 15.7507C10.8156 15.7536 8.24199 16.8213 6.34383 18.7195C4.44567 20.6177 3.37798 23.1913 3.375 25.8757C3.375 26.174 3.49353 26.4602 3.7045 26.6712C3.91548 26.8821 4.20163 27.0007 4.5 27.0007C4.79837 27.0007 5.08452 26.8821 5.29549 26.6712C5.50647 26.4602 5.625 26.174 5.625 25.8757C5.625 23.7871 6.45468 21.7841 7.93153 20.3072C9.40838 18.8304 11.4114 18.0007 13.5 18.0007C15.5886 18.0007 17.5916 18.8304 19.0685 20.3072C20.5453 21.7841 21.375 23.7871 21.375 25.8757C21.375 26.174 21.4935 26.4602 21.7045 26.6712C21.9155 26.8821 22.2016 27.0007 22.5 27.0007C22.7984 27.0007 23.0845 26.8821 23.2955 26.6712C23.5065 26.4602 23.625 26.174 23.625 25.8757C23.622 23.1913 22.5543 20.6177 20.6562 18.7195C18.758 16.8213 16.1844 15.7536 13.5 15.7507Z" fill="white"/>
</g>
<defs>
<clipPath id="clip0_79_127">
<rect width="27" height="27" fill="white"/>
</clipPath>
</defs>
</svg>
