<svg width="26" height="26" viewBox="0 0 26 26" fill="none" xmlns="http://www.w3.org/2000/svg">
<g clip-path="url(#clip0_40_37)">
<path d="M25.6824 24.1515L19.2159 17.6851C20.9781 15.5299 21.8445 12.7799 21.6359 10.0038C21.4273 7.22772 20.1597 4.63801 18.0953 2.77034C16.0309 0.902657 13.3276 -0.100096 10.5445 -0.0305114C7.76151 0.0390731 5.11169 1.17567 3.14318 3.14419C1.17466 5.1127 0.038066 7.76252 -0.0315185 10.5456C-0.101103 13.3286 0.90165 16.0319 2.76933 18.0963C4.63701 20.1608 7.22671 21.4284 10.0028 21.6369C12.7789 21.8455 15.5289 20.9791 17.6841 19.2169L24.1505 25.6834C24.3548 25.8807 24.6285 25.9899 24.9125 25.9874C25.1966 25.985 25.4683 25.871 25.6692 25.6702C25.87 25.4693 25.9839 25.1976 25.9864 24.9135C25.9889 24.6295 25.8797 24.3558 25.6824 24.1515ZM10.8331 19.5008C9.11899 19.5008 7.44338 18.9925 6.01815 18.0402C4.59293 17.0879 3.4821 15.7343 2.82614 14.1507C2.17018 12.5671 1.99855 10.8245 2.33296 9.14332C2.66736 7.46215 3.49278 5.9179 4.70484 4.70585C5.91689 3.49379 7.46115 2.66837 9.14231 2.33397C10.8235 1.99956 12.5661 2.17119 14.1497 2.82715C15.7333 3.48311 17.0869 4.59394 18.0392 6.01916C18.9915 7.44439 19.4998 9.12 19.4998 10.8341C19.4972 13.1319 18.5833 15.3348 16.9585 16.9595C15.3337 18.5843 13.1308 19.4982 10.8331 19.5008Z" fill="white"/>
</g>
<defs>
<clipPath id="clip0_40_37">
<rect width="26" height="26" fill="white"/>
</clipPath>
</defs>
</svg>
