<svg width="339" height="86" viewBox="0 0 339 86" fill="none" xmlns="http://www.w3.org/2000/svg">
<mask id="path-1-inside-1_172_120" fill="white">
<path fill-rule="evenodd" clip-rule="evenodd" d="M43 0C19.2518 0 0 19.2518 0 43C0 66.7482 19.2517 86 43 86H296C319.748 86 339 66.7482 339 43C339 19.2518 319.748 0 296 0H43ZM79.8794 57.44C81.4894 58.0467 83.2277 58.35 85.0944 58.35C87.1244 58.35 88.9677 58 90.6244 57.3C92.281 56.6 93.681 55.585 94.8244 54.255L91.8844 51.455C90.9977 52.435 90.006 53.17 88.9094 53.66C87.8127 54.1267 86.6227 54.36 85.3394 54.36C84.056 54.36 82.8777 54.15 81.8044 53.73C80.7544 53.31 79.8327 52.715 79.0394 51.945C78.2694 51.175 77.6627 50.265 77.2194 49.215C76.7994 48.165 76.5894 47.01 76.5894 45.75C76.5894 44.49 76.7994 43.335 77.2194 42.285C77.6627 41.235 78.2694 40.325 79.0394 39.555C79.8327 38.785 80.7544 38.19 81.8044 37.77C82.8777 37.35 84.056 37.14 85.3394 37.14C86.6227 37.14 87.8127 37.385 88.9094 37.875C90.006 38.3417 90.9977 39.0533 91.8844 40.01L94.8244 37.245C93.681 35.8917 92.281 34.8767 90.6244 34.2C88.9677 33.5 87.136 33.15 85.1294 33.15C83.2394 33.15 81.501 33.465 79.9144 34.095C78.3277 34.7017 76.9394 35.5767 75.7494 36.72C74.5594 37.84 73.6377 39.17 72.9844 40.71C72.331 42.25 72.0044 43.93 72.0044 45.75C72.0044 47.57 72.331 49.25 72.9844 50.79C73.6377 52.33 74.5477 53.6717 75.7144 54.815C76.9044 55.935 78.2927 56.81 79.8794 57.44ZM106.446 58.245C104.533 58.245 102.83 57.8367 101.336 57.02C99.8429 56.18 98.6646 55.0367 97.8013 53.59C96.9379 52.1433 96.5063 50.4983 96.5063 48.655C96.5063 46.7883 96.9379 45.1433 97.8013 43.72C98.6646 42.2733 99.8429 41.1417 101.336 40.325C102.83 39.5083 104.533 39.1 106.446 39.1C108.383 39.1 110.098 39.5083 111.591 40.325C113.108 41.1417 114.286 42.2617 115.126 43.685C115.99 45.1083 116.421 46.765 116.421 48.655C116.421 50.4983 115.99 52.1433 115.126 53.59C114.286 55.0367 113.108 56.18 111.591 57.02C110.098 57.8367 108.383 58.245 106.446 58.245ZM109.316 53.8C108.476 54.2667 107.52 54.5 106.446 54.5C105.396 54.5 104.451 54.2667 103.611 53.8C102.795 53.3333 102.141 52.6567 101.651 51.77C101.161 50.8833 100.916 49.845 100.916 48.655C100.916 47.4417 101.161 46.4033 101.651 45.54C102.141 44.6533 102.795 43.9767 103.611 43.51C104.451 43.0433 105.408 42.81 106.481 42.81C107.531 42.81 108.476 43.0433 109.316 43.51C110.156 43.9767 110.81 44.6533 111.276 45.54C111.766 46.4033 112.011 47.4417 112.011 48.655C112.011 49.845 111.766 50.8833 111.276 51.77C110.81 52.6567 110.156 53.3333 109.316 53.8ZM131.21 39.1C132.703 39.1 134.033 39.3917 135.2 39.975C136.39 40.5583 137.323 41.4567 138 42.67C138.677 43.86 139.015 45.4 139.015 47.29V58H134.64V47.85C134.64 46.1933 134.243 44.9567 133.45 44.14C132.68 43.3233 131.595 42.915 130.195 42.915C129.168 42.915 128.258 43.125 127.465 43.545C126.672 43.965 126.053 44.595 125.61 45.435C125.19 46.2517 124.98 47.29 124.98 48.55V58H120.605V39.31H124.77V41.7318C125.338 41.0545 126.038 40.5039 126.87 40.08C128.13 39.4267 129.577 39.1 131.21 39.1ZM145.16 35.18V39.45H142.08V42.95H145.16V51.945C145.16 54.0217 145.72 55.5967 146.84 56.67C147.96 57.72 149.546 58.245 151.6 58.245C152.393 58.245 153.163 58.14 153.91 57.93C154.656 57.72 155.286 57.405 155.8 56.985L154.575 53.87C153.921 54.3833 153.105 54.64 152.125 54.64C151.308 54.64 150.666 54.395 150.2 53.905C149.756 53.415 149.535 52.7267 149.535 51.84V42.95H154.54V39.45H149.535V35.18H145.16ZM170.914 58V55.7321C170.479 56.3827 169.884 56.917 169.129 57.335C168.055 57.9417 166.69 58.245 165.034 58.245C163.634 58.245 162.409 58.0117 161.359 57.545C160.309 57.055 159.492 56.39 158.909 55.55C158.349 54.6867 158.069 53.7183 158.069 52.645C158.069 51.595 158.314 50.65 158.804 49.81C159.317 48.97 160.145 48.305 161.289 47.815C162.432 47.325 163.949 47.08 165.839 47.08H170.669V46.8C170.669 45.5167 170.284 44.525 169.514 43.825C168.744 43.1017 167.577 42.74 166.014 42.74C164.964 42.74 163.925 42.9033 162.899 43.23C161.895 43.5567 161.044 44.0117 160.344 44.595L158.629 41.41C159.632 40.64 160.822 40.0683 162.199 39.695C163.599 39.2983 165.045 39.1 166.539 39.1C169.245 39.1 171.334 39.7533 172.804 41.06C174.297 42.3433 175.044 44.3383 175.044 47.045V58H170.914ZM166.154 49.985H170.669V52.155C170.295 53.1117 169.677 53.835 168.814 54.325C167.974 54.815 167.017 55.06 165.944 55.06C164.824 55.06 163.949 54.8267 163.319 54.36C162.689 53.8933 162.374 53.2633 162.374 52.47C162.374 51.77 162.63 51.1867 163.144 50.72C163.657 50.23 164.66 49.985 166.154 49.985ZM184.018 57.02C185.558 57.8367 187.308 58.245 189.268 58.245C191.088 58.245 192.686 57.8717 194.063 57.125C195.463 56.355 196.524 55.27 197.248 53.87L193.888 51.91C193.328 52.7967 192.639 53.45 191.823 53.87C191.029 54.29 190.166 54.5 189.233 54.5C188.159 54.5 187.191 54.2667 186.328 53.8C185.464 53.3333 184.788 52.6683 184.298 51.805C183.808 50.9183 183.563 49.8683 183.563 48.655C183.563 47.4417 183.808 46.4033 184.298 45.54C184.788 44.6533 185.464 43.9767 186.328 43.51C187.191 43.0433 188.159 42.81 189.233 42.81C190.166 42.81 191.029 43.02 191.823 43.44C192.639 43.86 193.328 44.5133 193.888 45.4L197.248 43.44C196.524 42.0167 195.463 40.9433 194.063 40.22C192.686 39.4733 191.088 39.1 189.268 39.1C187.308 39.1 185.558 39.5083 184.018 40.325C182.501 41.1417 181.311 42.2733 180.448 43.72C179.584 45.1433 179.153 46.7883 179.153 48.655C179.153 50.4983 179.584 52.1433 180.448 53.59C181.311 55.0367 182.501 56.18 184.018 57.02ZM201.864 39.45H198.784V42.95H201.864V51.945C201.864 54.0217 202.424 55.5967 203.544 56.67C204.664 57.72 206.251 58.245 208.304 58.245C209.097 58.245 209.867 58.14 210.614 57.93C211.361 57.72 211.991 57.405 212.504 56.985L211.279 53.87C210.626 54.3833 209.809 54.64 208.829 54.64C208.012 54.64 207.371 54.395 206.904 53.905C206.461 53.415 206.239 52.7267 206.239 51.84V42.95H211.244V39.45H206.239V35.18H201.864V39.45ZM228.821 55.515C230.734 57.405 233.371 58.35 236.731 58.35C240.067 58.35 242.681 57.405 244.571 55.515C246.484 53.625 247.441 50.895 247.441 47.325V33.5H242.961V47.15C242.961 49.67 242.424 51.5017 241.351 52.645C240.277 53.7883 238.749 54.36 236.766 54.36C234.782 54.36 233.242 53.7883 232.146 52.645C231.072 51.5017 230.536 49.67 230.536 47.15V33.5H225.986V47.325C225.986 50.895 226.931 53.625 228.821 55.515ZM259.168 58.245C257.605 58.245 256.1 58.0467 254.653 57.65C253.23 57.23 252.098 56.7283 251.258 56.145L252.938 52.82C253.778 53.3567 254.781 53.8 255.948 54.15C257.115 54.5 258.281 54.675 259.448 54.675C260.825 54.675 261.816 54.4883 262.423 54.115C263.053 53.7417 263.368 53.24 263.368 52.61C263.368 52.0967 263.158 51.7117 262.738 51.455C262.318 51.175 261.77 50.965 261.093 50.825C260.416 50.685 259.658 50.5567 258.818 50.44C258.001 50.3233 257.173 50.1717 256.333 49.985C255.516 49.775 254.77 49.4833 254.093 49.11C253.416 48.7133 252.868 48.1883 252.448 47.535C252.028 46.8817 251.818 46.0183 251.818 44.945C251.818 43.755 252.156 42.7283 252.833 41.865C253.51 40.9783 254.455 40.3017 255.668 39.835C256.905 39.345 258.363 39.1 260.043 39.1C261.303 39.1 262.575 39.24 263.858 39.52C265.141 39.8 266.203 40.1967 267.043 40.71L265.363 44.035C264.476 43.4983 263.578 43.1367 262.668 42.95C261.781 42.74 260.895 42.635 260.008 42.635C258.678 42.635 257.686 42.8333 257.033 43.23C256.403 43.6267 256.088 44.1283 256.088 44.735C256.088 45.295 256.298 45.715 256.718 45.995C257.138 46.275 257.686 46.4967 258.363 46.66C259.04 46.8233 259.786 46.9633 260.603 47.08C261.443 47.1733 262.271 47.325 263.088 47.535C263.905 47.745 264.651 48.0367 265.328 48.41C266.028 48.76 266.588 49.2617 267.008 49.915C267.428 50.5683 267.638 51.42 267.638 52.47C267.638 53.6367 267.288 54.6517 266.588 55.515C265.911 56.3783 264.943 57.055 263.683 57.545C262.423 58.0117 260.918 58.245 259.168 58.245Z"/>
</mask>
<path fill-rule="evenodd" clip-rule="evenodd" d="M43 0C19.2518 0 0 19.2518 0 43C0 66.7482 19.2517 86 43 86H296C319.748 86 339 66.7482 339 43C339 19.2518 319.748 0 296 0H43ZM79.8794 57.44C81.4894 58.0467 83.2277 58.35 85.0944 58.35C87.1244 58.35 88.9677 58 90.6244 57.3C92.281 56.6 93.681 55.585 94.8244 54.255L91.8844 51.455C90.9977 52.435 90.006 53.17 88.9094 53.66C87.8127 54.1267 86.6227 54.36 85.3394 54.36C84.056 54.36 82.8777 54.15 81.8044 53.73C80.7544 53.31 79.8327 52.715 79.0394 51.945C78.2694 51.175 77.6627 50.265 77.2194 49.215C76.7994 48.165 76.5894 47.01 76.5894 45.75C76.5894 44.49 76.7994 43.335 77.2194 42.285C77.6627 41.235 78.2694 40.325 79.0394 39.555C79.8327 38.785 80.7544 38.19 81.8044 37.77C82.8777 37.35 84.056 37.14 85.3394 37.14C86.6227 37.14 87.8127 37.385 88.9094 37.875C90.006 38.3417 90.9977 39.0533 91.8844 40.01L94.8244 37.245C93.681 35.8917 92.281 34.8767 90.6244 34.2C88.9677 33.5 87.136 33.15 85.1294 33.15C83.2394 33.15 81.501 33.465 79.9144 34.095C78.3277 34.7017 76.9394 35.5767 75.7494 36.72C74.5594 37.84 73.6377 39.17 72.9844 40.71C72.331 42.25 72.0044 43.93 72.0044 45.75C72.0044 47.57 72.331 49.25 72.9844 50.79C73.6377 52.33 74.5477 53.6717 75.7144 54.815C76.9044 55.935 78.2927 56.81 79.8794 57.44ZM106.446 58.245C104.533 58.245 102.83 57.8367 101.336 57.02C99.8429 56.18 98.6646 55.0367 97.8013 53.59C96.9379 52.1433 96.5063 50.4983 96.5063 48.655C96.5063 46.7883 96.9379 45.1433 97.8013 43.72C98.6646 42.2733 99.8429 41.1417 101.336 40.325C102.83 39.5083 104.533 39.1 106.446 39.1C108.383 39.1 110.098 39.5083 111.591 40.325C113.108 41.1417 114.286 42.2617 115.126 43.685C115.99 45.1083 116.421 46.765 116.421 48.655C116.421 50.4983 115.99 52.1433 115.126 53.59C114.286 55.0367 113.108 56.18 111.591 57.02C110.098 57.8367 108.383 58.245 106.446 58.245ZM109.316 53.8C108.476 54.2667 107.52 54.5 106.446 54.5C105.396 54.5 104.451 54.2667 103.611 53.8C102.795 53.3333 102.141 52.6567 101.651 51.77C101.161 50.8833 100.916 49.845 100.916 48.655C100.916 47.4417 101.161 46.4033 101.651 45.54C102.141 44.6533 102.795 43.9767 103.611 43.51C104.451 43.0433 105.408 42.81 106.481 42.81C107.531 42.81 108.476 43.0433 109.316 43.51C110.156 43.9767 110.81 44.6533 111.276 45.54C111.766 46.4033 112.011 47.4417 112.011 48.655C112.011 49.845 111.766 50.8833 111.276 51.77C110.81 52.6567 110.156 53.3333 109.316 53.8ZM131.21 39.1C132.703 39.1 134.033 39.3917 135.2 39.975C136.39 40.5583 137.323 41.4567 138 42.67C138.677 43.86 139.015 45.4 139.015 47.29V58H134.64V47.85C134.64 46.1933 134.243 44.9567 133.45 44.14C132.68 43.3233 131.595 42.915 130.195 42.915C129.168 42.915 128.258 43.125 127.465 43.545C126.672 43.965 126.053 44.595 125.61 45.435C125.19 46.2517 124.98 47.29 124.98 48.55V58H120.605V39.31H124.77V41.7318C125.338 41.0545 126.038 40.5039 126.87 40.08C128.13 39.4267 129.577 39.1 131.21 39.1ZM145.16 35.18V39.45H142.08V42.95H145.16V51.945C145.16 54.0217 145.72 55.5967 146.84 56.67C147.96 57.72 149.546 58.245 151.6 58.245C152.393 58.245 153.163 58.14 153.91 57.93C154.656 57.72 155.286 57.405 155.8 56.985L154.575 53.87C153.921 54.3833 153.105 54.64 152.125 54.64C151.308 54.64 150.666 54.395 150.2 53.905C149.756 53.415 149.535 52.7267 149.535 51.84V42.95H154.54V39.45H149.535V35.18H145.16ZM170.914 58V55.7321C170.479 56.3827 169.884 56.917 169.129 57.335C168.055 57.9417 166.69 58.245 165.034 58.245C163.634 58.245 162.409 58.0117 161.359 57.545C160.309 57.055 159.492 56.39 158.909 55.55C158.349 54.6867 158.069 53.7183 158.069 52.645C158.069 51.595 158.314 50.65 158.804 49.81C159.317 48.97 160.145 48.305 161.289 47.815C162.432 47.325 163.949 47.08 165.839 47.08H170.669V46.8C170.669 45.5167 170.284 44.525 169.514 43.825C168.744 43.1017 167.577 42.74 166.014 42.74C164.964 42.74 163.925 42.9033 162.899 43.23C161.895 43.5567 161.044 44.0117 160.344 44.595L158.629 41.41C159.632 40.64 160.822 40.0683 162.199 39.695C163.599 39.2983 165.045 39.1 166.539 39.1C169.245 39.1 171.334 39.7533 172.804 41.06C174.297 42.3433 175.044 44.3383 175.044 47.045V58H170.914ZM166.154 49.985H170.669V52.155C170.295 53.1117 169.677 53.835 168.814 54.325C167.974 54.815 167.017 55.06 165.944 55.06C164.824 55.06 163.949 54.8267 163.319 54.36C162.689 53.8933 162.374 53.2633 162.374 52.47C162.374 51.77 162.63 51.1867 163.144 50.72C163.657 50.23 164.66 49.985 166.154 49.985ZM184.018 57.02C185.558 57.8367 187.308 58.245 189.268 58.245C191.088 58.245 192.686 57.8717 194.063 57.125C195.463 56.355 196.524 55.27 197.248 53.87L193.888 51.91C193.328 52.7967 192.639 53.45 191.823 53.87C191.029 54.29 190.166 54.5 189.233 54.5C188.159 54.5 187.191 54.2667 186.328 53.8C185.464 53.3333 184.788 52.6683 184.298 51.805C183.808 50.9183 183.563 49.8683 183.563 48.655C183.563 47.4417 183.808 46.4033 184.298 45.54C184.788 44.6533 185.464 43.9767 186.328 43.51C187.191 43.0433 188.159 42.81 189.233 42.81C190.166 42.81 191.029 43.02 191.823 43.44C192.639 43.86 193.328 44.5133 193.888 45.4L197.248 43.44C196.524 42.0167 195.463 40.9433 194.063 40.22C192.686 39.4733 191.088 39.1 189.268 39.1C187.308 39.1 185.558 39.5083 184.018 40.325C182.501 41.1417 181.311 42.2733 180.448 43.72C179.584 45.1433 179.153 46.7883 179.153 48.655C179.153 50.4983 179.584 52.1433 180.448 53.59C181.311 55.0367 182.501 56.18 184.018 57.02ZM201.864 39.45H198.784V42.95H201.864V51.945C201.864 54.0217 202.424 55.5967 203.544 56.67C204.664 57.72 206.251 58.245 208.304 58.245C209.097 58.245 209.867 58.14 210.614 57.93C211.361 57.72 211.991 57.405 212.504 56.985L211.279 53.87C210.626 54.3833 209.809 54.64 208.829 54.64C208.012 54.64 207.371 54.395 206.904 53.905C206.461 53.415 206.239 52.7267 206.239 51.84V42.95H211.244V39.45H206.239V35.18H201.864V39.45ZM228.821 55.515C230.734 57.405 233.371 58.35 236.731 58.35C240.067 58.35 242.681 57.405 244.571 55.515C246.484 53.625 247.441 50.895 247.441 47.325V33.5H242.961V47.15C242.961 49.67 242.424 51.5017 241.351 52.645C240.277 53.7883 238.749 54.36 236.766 54.36C234.782 54.36 233.242 53.7883 232.146 52.645C231.072 51.5017 230.536 49.67 230.536 47.15V33.5H225.986V47.325C225.986 50.895 226.931 53.625 228.821 55.515ZM259.168 58.245C257.605 58.245 256.1 58.0467 254.653 57.65C253.23 57.23 252.098 56.7283 251.258 56.145L252.938 52.82C253.778 53.3567 254.781 53.8 255.948 54.15C257.115 54.5 258.281 54.675 259.448 54.675C260.825 54.675 261.816 54.4883 262.423 54.115C263.053 53.7417 263.368 53.24 263.368 52.61C263.368 52.0967 263.158 51.7117 262.738 51.455C262.318 51.175 261.77 50.965 261.093 50.825C260.416 50.685 259.658 50.5567 258.818 50.44C258.001 50.3233 257.173 50.1717 256.333 49.985C255.516 49.775 254.77 49.4833 254.093 49.11C253.416 48.7133 252.868 48.1883 252.448 47.535C252.028 46.8817 251.818 46.0183 251.818 44.945C251.818 43.755 252.156 42.7283 252.833 41.865C253.51 40.9783 254.455 40.3017 255.668 39.835C256.905 39.345 258.363 39.1 260.043 39.1C261.303 39.1 262.575 39.24 263.858 39.52C265.141 39.8 266.203 40.1967 267.043 40.71L265.363 44.035C264.476 43.4983 263.578 43.1367 262.668 42.95C261.781 42.74 260.895 42.635 260.008 42.635C258.678 42.635 257.686 42.8333 257.033 43.23C256.403 43.6267 256.088 44.1283 256.088 44.735C256.088 45.295 256.298 45.715 256.718 45.995C257.138 46.275 257.686 46.4967 258.363 46.66C259.04 46.8233 259.786 46.9633 260.603 47.08C261.443 47.1733 262.271 47.325 263.088 47.535C263.905 47.745 264.651 48.0367 265.328 48.41C266.028 48.76 266.588 49.2617 267.008 49.915C267.428 50.5683 267.638 51.42 267.638 52.47C267.638 53.6367 267.288 54.6517 266.588 55.515C265.911 56.3783 264.943 57.055 263.683 57.545C262.423 58.0117 260.918 58.245 259.168 58.245Z" fill="white"/>
<path d="M124.77 44.35L123.867 44.7807L125.77 44.35H124.77ZM124.035 42.81L123.158 42.3287L122.912 42.7781L123.132 43.2407L124.035 42.81ZM170.914 54.22H171.914V54.0712L171.87 53.9288L170.914 54.22ZM170.669 53.415H169.669V53.5638L169.712 53.7062L170.669 53.415ZM171.264 47.08H172.264V46.08H171.264V47.08ZM171.264 49.985V50.985H172.264V49.985H171.264ZM170.669 52.155L171.632 51.8854L169.669 52.155H170.669ZM171.404 54.78L172.338 55.1376L172.456 54.8288L172.367 54.5104L171.404 54.78ZM124.77 41.7318H125.77V38.9829L124.004 41.0893L124.77 41.7318ZM145.16 42.95H144.16V43.95H145.16V42.95ZM145.16 39.45V38.45H144.16V39.45H145.16ZM149.535 39.45H150.535V38.45H149.535V39.45ZM149.535 42.95V43.95H150.535V42.95H149.535ZM170.914 55.7321H169.914V59.0308L171.745 56.2873L170.914 55.7321ZM170.669 47.08V46.08H169.669V47.08H170.669ZM201.864 42.95H200.864V43.95H201.864V42.95ZM201.864 39.45V38.45H200.864V39.45H201.864ZM206.239 39.45H207.239V38.45H206.239V39.45ZM206.239 42.95V43.95H207.239V42.95H206.239ZM125.672 43.9193L124.937 42.3793L123.132 43.2407L123.867 44.7807L125.672 43.9193ZM171.87 53.9288L171.625 53.1238L169.712 53.7062L169.957 54.5112L171.87 53.9288ZM170.264 47.08V49.985H172.264V47.08H170.264ZM169.706 52.4246L170.441 55.0496L172.367 54.5104L171.632 51.8854L169.706 52.4246ZM124.004 41.0893C123.684 41.4704 123.402 41.884 123.158 42.3287L124.911 43.2913C125.095 42.9572 125.303 42.6521 125.536 42.3743L124.004 41.0893ZM125.77 44.35V41.7318H123.77V44.35H125.77ZM146.16 42.95V39.45H144.16V42.95H146.16ZM145.16 40.45H149.535V38.45H145.16V40.45ZM148.535 39.45V42.95H150.535V39.45H148.535ZM149.535 41.95H145.16V43.95H149.535V41.95ZM171.745 56.2873C171.984 55.9297 172.181 55.5458 172.338 55.1376L170.47 54.4223C170.365 54.6963 170.235 54.9471 170.082 55.1768L171.745 56.2873ZM170.669 50.985H171.264V48.985H170.669V50.985ZM171.264 46.08H170.669V48.08H171.264V46.08ZM171.669 53.415V49.985H169.669V53.415H171.669ZM171.669 49.985V47.08H169.669V49.985H171.669ZM171.914 55.7321V54.22H169.914V55.7321H171.914ZM169.669 52.155V53.415H171.669V52.155H169.669ZM202.864 42.95V39.45H200.864V42.95H202.864ZM201.864 40.45H206.239V38.45H201.864V40.45ZM205.239 39.45V42.95H207.239V39.45H205.239ZM206.239 41.95H201.864V43.95H206.239V41.95ZM79.8794 57.44L79.1413 59.2988L79.1577 59.3053L79.1741 59.3115L79.8794 57.44ZM75.7144 54.815L74.3145 56.2434L74.3289 56.2576L74.3436 56.2714L75.7144 54.815ZM72.9844 50.79L74.8255 50.0089L74.8255 50.0089L72.9844 50.79ZM72.9844 40.71L74.8255 41.4911L74.8255 41.4911L72.9844 40.71ZM75.7494 36.72L77.1201 38.1764L77.1276 38.1693L77.135 38.1622L75.7494 36.72ZM79.9144 34.095L80.6286 35.9631L80.6406 35.9585L80.6524 35.9538L79.9144 34.095ZM90.6244 34.2L89.8459 36.0423L89.857 36.047L89.8681 36.0515L90.6244 34.2ZM94.8244 37.245L96.1945 38.7019L97.5759 37.4028L96.3521 35.9543L94.8244 37.245ZM91.8844 40.01L90.4175 41.3695L91.787 42.8471L93.2545 41.4669L91.8844 40.01ZM88.9094 37.875L88.0935 39.701L88.1098 39.7083L88.1262 39.7153L88.9094 37.875ZM81.8044 37.77L81.0756 35.9075L81.0686 35.9103L81.0616 35.913L81.8044 37.77ZM79.0394 39.555L77.6464 38.1198L77.6357 38.1302L77.6251 38.1408L79.0394 39.555ZM77.2194 42.285L75.3769 41.5071L75.3695 41.5246L75.3624 41.5422L77.2194 42.285ZM77.2194 49.215L75.3624 49.9578L75.3695 49.9754L75.3769 49.9929L77.2194 49.215ZM79.0394 51.945L77.6251 53.3592L77.6357 53.3698L77.6464 53.3802L79.0394 51.945ZM81.8044 53.73L81.0616 55.587L81.0686 55.5897L81.0756 55.5925L81.8044 53.73ZM88.9094 53.66L89.6925 55.5003L89.7089 55.4933L89.7252 55.486L88.9094 53.66ZM91.8844 51.455L93.2637 50.0067L91.7779 48.5917L90.4013 50.1132L91.8844 51.455ZM94.8244 54.255L96.341 55.5588L97.58 54.1175L96.2037 52.8067L94.8244 54.255ZM90.6244 57.3L91.4028 59.1423L91.4028 59.1423L90.6244 57.3ZM101.336 57.02L100.356 58.7632L100.366 58.769L100.377 58.7747L101.336 57.02ZM97.8013 53.59L96.0838 54.6149L96.0838 54.6149L97.8013 53.59ZM97.8013 43.72L99.5113 44.7572L99.515 44.7511L99.5187 44.7449L97.8013 43.72ZM101.336 40.325L102.296 42.0797L102.296 42.0797L101.336 40.325ZM111.591 40.325L110.632 42.0798L110.643 42.0859L111.591 40.325ZM115.126 43.685L113.404 44.7015L113.41 44.7119L113.416 44.7222L115.126 43.685ZM115.126 53.59L113.409 52.5651L113.403 52.5754L113.397 52.5857L115.126 53.59ZM111.591 57.02L112.551 58.7748L112.56 58.7696L111.591 57.02ZM109.316 53.8L108.345 52.0517L108.345 52.0517L109.316 53.8ZM111.276 51.77L109.526 50.8026L109.516 50.8205L109.506 50.8385L111.276 51.77ZM111.276 45.54L109.506 46.4715L109.521 46.4996L109.537 46.5272L111.276 45.54ZM109.316 43.51L110.288 41.7617L110.288 41.7617L109.316 43.51ZM103.611 43.51L102.64 41.7617L102.629 41.7675L102.619 41.7735L103.611 43.51ZM101.651 45.54L103.391 46.5272L103.396 46.5173L103.402 46.5074L101.651 45.54ZM101.651 51.77L99.9008 52.7374L99.9008 52.7374L101.651 51.77ZM103.611 53.8L102.619 55.5365L102.629 55.5425L102.64 55.5483L103.611 53.8ZM135.2 39.975L134.305 41.7639L134.312 41.7674L134.32 41.7708L135.2 39.975ZM138 42.67L136.253 43.6441L136.257 43.6514L136.261 43.6586L138 42.67ZM139.015 58V60H141.015V58H139.015ZM134.64 58H132.64V60H134.64V58ZM133.45 44.14L131.995 45.512L132.005 45.5229L132.015 45.5336L133.45 44.14ZM127.465 43.545L128.401 45.3126L128.401 45.3126L127.465 43.545ZM125.61 45.435L123.841 44.5015L123.836 44.5109L123.831 44.5203L125.61 45.435ZM124.98 58V60H126.98V58H124.98ZM120.605 58H118.605V60H120.605V58ZM120.605 39.31V37.31H118.605V39.31H120.605ZM124.77 39.31H126.77V37.31H124.77V39.31ZM126.87 40.08L127.778 41.8621L127.784 41.8588L127.79 41.8555L126.87 40.08ZM146.84 56.67L145.456 58.114L145.464 58.1216L145.472 58.1291L146.84 56.67ZM145.16 35.18V33.18H143.16V35.18H145.16ZM149.535 35.18H151.535V33.18H149.535V35.18ZM150.2 53.905L148.717 55.2468L148.734 55.2658L148.752 55.2843L150.2 53.905ZM154.575 53.87L156.436 53.1381L155.452 50.6369L153.339 52.2974L154.575 53.87ZM155.8 56.985L157.066 58.5329L158.195 57.6098L157.661 56.2531L155.8 56.985ZM153.91 57.93L154.451 59.8553L153.91 57.93ZM142.08 42.95H140.08V44.95H142.08V42.95ZM142.08 39.45V37.45H140.08V39.45H142.08ZM154.54 39.45H156.54V37.45H154.54V39.45ZM154.54 42.95V44.95H156.54V42.95H154.54ZM170.914 58H168.914V60H170.914V58ZM169.514 43.825L168.144 45.2827L168.156 45.2939L168.168 45.3049L169.514 43.825ZM162.899 43.23L162.292 41.3241L162.28 41.3283L162.899 43.23ZM160.344 44.595L158.583 45.5432L159.744 47.6987L161.624 46.1314L160.344 44.595ZM158.629 41.41L157.411 39.8234L156.061 40.8596L156.868 42.3582L158.629 41.41ZM162.199 39.695L162.722 41.6253L162.733 41.6223L162.744 41.6193L162.199 39.695ZM172.804 41.06L171.475 42.5548L171.488 42.5659L171.5 42.5768L172.804 41.06ZM175.044 58V60H177.044V58H175.044ZM161.359 57.545L160.513 59.3574L160.53 59.3651L160.547 59.3726L161.359 57.545ZM158.909 55.55L157.231 56.6384L157.248 56.6649L157.266 56.6908L158.909 55.55ZM158.804 49.81L157.097 48.7671L157.087 48.7846L157.076 48.8023L158.804 49.81ZM161.289 47.815L162.077 49.6533L162.077 49.6533L161.289 47.815ZM163.144 50.72L164.489 52.1999L164.507 52.1835L164.525 52.1667L163.144 50.72ZM163.319 54.36L162.128 55.9671L162.128 55.9671L163.319 54.36ZM168.814 54.325L167.827 52.5856L167.816 52.5915L167.806 52.5974L168.814 54.325ZM170.669 52.155L172.532 52.8821L172.669 52.5314V52.155H170.669ZM169.129 57.335L168.161 55.5849L168.153 55.5894L168.145 55.5939L169.129 57.335ZM184.018 57.02L183.049 58.7696L183.065 58.7784L183.081 58.7869L184.018 57.02ZM180.448 53.59L178.73 54.6149L178.73 54.6149L180.448 53.59ZM180.448 43.72L182.158 44.7572L182.161 44.7511L182.165 44.7449L180.448 43.72ZM184.018 40.325L183.081 38.558L183.07 38.5641L184.018 40.325ZM194.063 40.22L193.109 41.9781L193.127 41.9876L193.145 41.9969L194.063 40.22ZM197.248 43.44L198.255 45.1676L199.886 44.2165L199.031 42.5339L197.248 43.44ZM193.888 45.4L192.197 46.468L193.228 48.1004L194.895 47.1276L193.888 45.4ZM191.823 43.44L190.887 45.2076L190.897 45.2131L190.908 45.2186L191.823 43.44ZM186.328 43.51L185.377 41.7506L185.377 41.7506L186.328 43.51ZM184.298 45.54L186.037 46.5272L186.043 46.5173L186.048 46.5074L184.298 45.54ZM184.298 51.805L182.547 52.7724L182.553 52.7823L182.558 52.7922L184.298 51.805ZM186.328 53.8L187.279 52.0406L187.279 52.0406L186.328 53.8ZM191.823 53.87L190.908 52.0914L190.897 52.0969L190.887 52.1024L191.823 53.87ZM193.888 51.91L194.895 50.1824L193.228 49.2096L192.197 50.842L193.888 51.91ZM197.248 53.87L199.025 54.788L199.897 53.0999L198.255 52.1424L197.248 53.87ZM194.063 57.125L195.016 58.8831L195.027 58.8774L194.063 57.125ZM203.544 56.67L202.16 58.114L202.168 58.1216L202.176 58.1291L203.544 56.67ZM201.864 35.18V33.18H199.864V35.18H201.864ZM206.239 35.18H208.239V33.18H206.239V35.18ZM206.904 53.905L205.421 55.2468L205.438 55.2658L205.456 55.2843L206.904 53.905ZM211.279 53.87L213.14 53.1381L212.157 50.6369L210.043 52.2974L211.279 53.87ZM212.504 56.985L213.77 58.5329L214.899 57.6098L214.365 56.2531L212.504 56.985ZM210.614 57.93L211.155 59.8553L210.614 57.93ZM198.784 42.95H196.784V44.95H198.784V42.95ZM198.784 39.45V37.45H196.784V39.45H198.784ZM211.244 39.45H213.244V37.45H211.244V39.45ZM211.244 42.95V44.95H213.244V42.95H211.244ZM228.821 55.515L227.407 56.9292L227.415 56.9379L228.821 55.515ZM225.986 33.5V31.5H223.986V33.5H225.986ZM230.536 33.5H232.536V31.5H230.536V33.5ZM232.146 52.645L230.688 54.0139L230.695 54.0217L230.702 54.0295L232.146 52.645ZM241.351 52.645L239.893 51.2761L239.893 51.2761L241.351 52.645ZM242.961 33.5V31.5H240.961V33.5H242.961ZM247.441 33.5H249.441V31.5H247.441V33.5ZM244.571 55.515L243.165 54.0921L243.157 54.1008L244.571 55.515ZM254.653 57.65L254.087 59.5682L254.105 59.5737L254.124 59.5788L254.653 57.65ZM251.258 56.145L249.473 55.2431L248.688 56.7956L250.117 57.7877L251.258 56.145ZM252.938 52.82L254.015 51.1346L252.15 49.9436L251.153 51.9181L252.938 52.82ZM255.948 54.15L256.523 52.2343L256.523 52.2343L255.948 54.15ZM262.423 54.115L261.403 52.3944L261.389 52.4029L261.375 52.4117L262.423 54.115ZM262.738 51.455L261.629 53.1191L261.661 53.141L261.695 53.1616L262.738 51.455ZM258.818 50.44L258.535 52.4199L258.543 52.421L258.818 50.44ZM256.333 49.985L255.835 51.922L255.867 51.9302L255.899 51.9374L256.333 49.985ZM254.093 49.11L253.082 50.8354L253.104 50.8486L253.127 50.8612L254.093 49.11ZM252.833 41.865L254.407 43.0988L254.415 43.0886L254.423 43.0783L252.833 41.865ZM255.668 39.835L256.386 41.7017L256.395 41.6981L256.405 41.6944L255.668 39.835ZM263.858 39.52L263.432 41.474L263.432 41.474L263.858 39.52ZM267.043 40.71L268.828 41.6119L269.66 39.9654L268.086 39.0034L267.043 40.71ZM265.363 44.035L264.327 45.746L266.174 46.8639L267.148 44.9369L265.363 44.035ZM262.668 42.95L262.207 44.8962L262.236 44.9031L262.266 44.9092L262.668 42.95ZM257.033 43.23L255.995 41.5204L255.981 41.5289L255.967 41.5375L257.033 43.23ZM256.718 45.995L255.609 47.6591L255.609 47.6591L256.718 45.995ZM258.363 46.66L257.894 48.6042L257.894 48.6042L258.363 46.66ZM260.603 47.08L260.32 49.0599L260.351 49.0643L260.382 49.0678L260.603 47.08ZM263.088 47.535L263.586 45.598L263.586 45.598L263.088 47.535ZM265.328 48.41L264.362 50.1612L264.397 50.1807L264.434 50.1989L265.328 48.41ZM266.588 55.515L265.034 54.2554L265.024 54.2682L265.014 54.2812L266.588 55.515ZM263.683 57.545L264.378 59.4205L264.393 59.4149L264.408 59.409L263.683 57.545ZM124.77 41.7318H122.77V47.2296L126.302 43.0169L124.77 41.7318ZM145.16 42.95H147.16V40.95H145.16V42.95ZM145.16 39.45V41.45H147.16V39.45H145.16ZM149.535 39.45H147.535V41.45H149.535V39.45ZM149.535 42.95V40.95H147.535V42.95H149.535ZM170.914 55.7321H172.914V49.1344L169.25 54.6216L170.914 55.7321ZM170.669 49.985H172.669V47.985H170.669V49.985ZM170.669 47.08V49.08H172.669V47.08H170.669ZM201.864 42.95H203.864V40.95H201.864V42.95ZM201.864 39.45V41.45H203.864V39.45H201.864ZM206.239 39.45H204.239V41.45H206.239V39.45ZM206.239 42.95V40.95H204.239V42.95H206.239ZM85.0944 56.35C83.4481 56.35 81.9507 56.0832 80.5846 55.5685L79.1741 59.3115C81.028 60.0101 83.0073 60.35 85.0944 60.35V56.35ZM80.6174 55.5812C79.2545 55.04 78.0833 54.2981 77.0851 53.3586L74.3436 56.2714C75.7254 57.5719 77.3309 58.58 79.1413 59.2988L80.6174 55.5812ZM77.1142 53.3866C76.1405 52.4323 75.3784 51.3121 74.8255 50.0089L71.1432 51.5711C71.897 53.3479 72.9549 54.911 74.3145 56.2434L77.1142 53.3866ZM74.8255 50.0089C74.2859 48.737 74.0044 47.3254 74.0044 45.75H70.0044C70.0044 47.8146 70.3761 49.763 71.1432 51.5711L74.8255 50.0089ZM74.0044 45.75C74.0044 44.1746 74.2859 42.763 74.8255 41.4911L71.1432 39.9289C70.3761 41.737 70.0044 43.6854 70.0044 45.75H74.0044ZM74.8255 41.4911C75.3732 40.2002 76.1369 39.1018 77.1201 38.1764L74.3786 35.2636C72.9818 36.5782 71.9022 38.1398 71.1432 39.9289L74.8255 41.4911ZM77.135 38.1622C78.1263 37.2098 79.2845 36.477 80.6286 35.9631L79.2001 32.2269C77.3709 32.9263 75.7525 33.9435 74.3637 35.2778L77.135 38.1622ZM80.6524 35.9538C81.9803 35.4266 83.465 35.15 85.1294 35.15V31.15C83.0137 31.15 81.0218 31.5034 79.1763 32.2362L80.6524 35.9538ZM85.1294 35.15C86.8996 35.15 88.4626 35.4578 89.8459 36.0423L91.4028 32.3577C89.4728 31.5422 87.3725 31.15 85.1294 31.15V35.15ZM89.8681 36.0515C91.2293 36.6075 92.3636 37.4314 93.2966 38.5357L96.3521 35.9543C94.9984 34.352 93.3328 33.1459 91.3806 32.3485L89.8681 36.0515ZM93.4542 35.7881L90.5142 38.5531L93.2545 41.4669L96.1945 38.7019L93.4542 35.7881ZM93.3512 38.6505C92.2913 37.5069 91.072 36.6217 89.6925 36.0347L88.1262 39.7153C88.94 40.0616 89.7041 40.5998 90.4175 41.3695L93.3512 38.6505ZM89.7252 36.049C88.3546 35.4366 86.8843 35.14 85.3394 35.14V39.14C86.3611 39.14 87.2708 39.3334 88.0935 39.701L89.7252 36.049ZM85.3394 35.14C83.8349 35.14 82.406 35.3869 81.0756 35.9075L82.5332 39.6325C83.3493 39.3131 84.2772 39.14 85.3394 39.14V35.14ZM81.0616 35.913C79.7751 36.4276 78.6312 37.164 77.6464 38.1198L80.4323 40.9902C81.0342 40.406 81.7336 39.9524 82.5471 39.627L81.0616 35.913ZM77.6251 38.1408C76.6642 39.1017 75.9158 40.2306 75.3769 41.5071L79.0619 43.0629C79.4096 42.2394 79.8745 41.5483 80.4536 40.9692L77.6251 38.1408ZM75.3624 41.5422C74.8377 42.854 74.5894 44.2646 74.5894 45.75H78.5894C78.5894 44.7154 78.761 43.816 79.0763 43.0278L75.3624 41.5422ZM74.5894 45.75C74.5894 47.2354 74.8377 48.646 75.3624 49.9578L79.0763 48.4722C78.761 47.684 78.5894 46.7846 78.5894 45.75H74.5894ZM75.3769 49.9929C75.9158 51.2694 76.6642 52.3983 77.6251 53.3592L80.4536 50.5308C79.8745 49.9517 79.4096 49.2606 79.0619 48.4371L75.3769 49.9929ZM77.6464 53.3802C78.6312 54.336 79.7751 55.0724 81.0616 55.587L82.5471 51.873C81.7336 51.5476 81.0342 51.094 80.4323 50.5098L77.6464 53.3802ZM81.0756 55.5925C82.406 56.1131 83.8349 56.36 85.3394 56.36V52.36C84.2772 52.36 83.3493 52.1869 82.5332 51.8675L81.0756 55.5925ZM85.3394 56.36C86.8709 56.36 88.3296 56.0802 89.6925 55.5003L88.1262 51.8197C87.2957 52.1731 86.3745 52.36 85.3394 52.36V56.36ZM89.7252 55.486C91.0999 54.8718 92.3132 53.962 93.3674 52.7968L90.4013 50.1132C89.6822 50.908 88.9121 51.4682 88.0935 51.834L89.7252 55.486ZM90.505 52.9033L93.445 55.7033L96.2037 52.8067L93.2637 50.0067L90.505 52.9033ZM93.3077 52.9512C92.3708 54.0411 91.2257 54.8747 89.8459 55.4577L91.4028 59.1423C93.3363 58.3253 94.9912 57.1289 96.341 55.5588L93.3077 52.9512ZM89.8459 55.4577C88.4654 56.041 86.8913 56.35 85.0944 56.35V60.35C87.3574 60.35 89.47 59.959 91.4028 59.1423L89.8459 55.4577ZM106.446 56.245C104.826 56.245 103.46 55.9019 102.296 55.2653L100.377 58.7747C102.199 59.7715 104.24 60.245 106.446 60.245V56.245ZM102.317 55.2768C101.122 54.6048 100.2 53.7069 99.5187 52.5651L96.0838 54.6149C97.1291 56.3665 98.5638 57.7552 100.356 58.7632L102.317 55.2768ZM99.5187 52.5651C98.8575 51.4571 98.5063 50.1725 98.5063 48.655H94.5063C94.5063 50.8241 95.0184 52.8296 96.0838 54.6149L99.5187 52.5651ZM98.5063 48.655C98.5063 47.1085 98.8599 45.8311 99.5113 44.7572L96.0913 42.6828C95.0159 44.4556 94.5063 46.4681 94.5063 48.655H98.5063ZM99.5187 44.7449C100.197 43.6081 101.112 42.727 102.296 42.0797L100.377 38.5703C98.5735 39.5563 97.1321 40.9386 96.0838 42.6951L99.5187 44.7449ZM102.296 42.0797C103.46 41.4431 104.826 41.1 106.446 41.1V37.1C104.24 37.1 102.199 37.5735 100.377 38.5703L102.296 42.0797ZM106.446 41.1C108.094 41.1 109.471 41.4451 110.632 42.0797L112.551 38.5703C110.725 37.5716 108.672 37.1 106.446 37.1V41.1ZM110.643 42.0859C111.853 42.7373 112.757 43.6059 113.404 44.7015L116.849 42.6685C115.815 40.9175 114.363 39.546 112.539 38.5641L110.643 42.0859ZM113.416 44.7222C114.065 45.7922 114.421 47.0801 114.421 48.655H118.421C118.421 46.4499 117.914 44.4244 116.836 42.6478L113.416 44.7222ZM114.421 48.655C114.421 50.1725 114.07 51.4571 113.409 52.5651L116.844 54.6149C117.909 52.8296 118.421 50.8241 118.421 48.655H114.421ZM113.397 52.5857C112.745 53.7081 111.835 54.5989 110.622 55.2704L112.56 58.7696C114.381 57.7611 115.828 56.3653 116.856 54.5943L113.397 52.5857ZM110.632 55.2653C109.471 55.8999 108.094 56.245 106.446 56.245V60.245C108.672 60.245 110.725 59.7734 112.551 58.7747L110.632 55.2653ZM106.446 56.5C107.819 56.5 109.117 56.1987 110.288 55.5483L108.345 52.0517C107.836 52.3347 107.22 52.5 106.446 52.5V56.5ZM110.288 55.5483C111.482 54.8845 112.406 53.9168 113.046 52.7015L109.506 50.8385C109.213 51.3966 108.83 51.7822 108.345 52.0517L110.288 55.5483ZM113.027 52.7374C113.707 51.5066 114.011 50.124 114.011 48.655H110.011C110.011 49.566 109.826 50.26 109.526 50.8026L113.027 52.7374ZM114.011 48.655C114.011 47.172 113.711 45.7772 113.016 44.5528L109.537 46.5272C109.822 47.0294 110.011 47.7113 110.011 48.655H114.011ZM113.046 44.6085C112.406 43.3932 111.482 42.4255 110.288 41.7617L108.345 45.2583C108.83 45.5278 109.213 45.9134 109.506 46.4715L113.046 44.6085ZM110.288 41.7617C109.123 41.1149 107.839 40.81 106.481 40.81V44.81C107.224 44.81 107.829 44.9717 108.345 45.2583L110.288 41.7617ZM106.481 40.81C105.109 40.81 103.811 41.1113 102.64 41.7617L104.583 45.2583C105.092 44.9753 105.707 44.81 106.481 44.81V40.81ZM102.619 41.7735C101.459 42.4362 100.554 43.3906 99.9008 44.5726L103.402 46.5074C103.729 45.9161 104.13 45.5171 104.604 45.2465L102.619 41.7735ZM99.9119 44.5528C99.2169 45.7772 98.9163 47.172 98.9163 48.655H102.916C102.916 47.7113 103.106 47.0294 103.391 46.5272L99.9119 44.5528ZM98.9163 48.655C98.9163 50.124 99.2206 51.5066 99.9008 52.7374L103.402 50.8026C103.102 50.26 102.916 49.566 102.916 48.655H98.9163ZM99.9008 52.7374C100.554 53.9194 101.459 54.8738 102.619 55.5365L104.604 52.0635C104.13 51.7929 103.729 51.3939 103.402 50.8026L99.9008 52.7374ZM102.64 55.5483C103.804 56.1951 105.089 56.5 106.446 56.5V52.5C105.704 52.5 105.098 52.3383 104.583 52.0517L102.64 55.5483ZM131.21 41.1C132.438 41.1 133.454 41.3382 134.305 41.7639L136.094 38.1861C134.612 37.4451 132.969 37.1 131.21 37.1V41.1ZM134.32 41.7708C135.126 42.1659 135.765 42.7683 136.253 43.6441L139.747 41.6959C138.882 40.145 137.654 38.9507 136.08 38.1792L134.32 41.7708ZM136.261 43.6586C136.714 44.4541 137.015 45.6208 137.015 47.29H141.015C141.015 45.1792 140.639 43.2659 139.738 41.6814L136.261 43.6586ZM137.015 47.29V58H141.015V47.29H137.015ZM139.015 56H134.64V60H139.015V56ZM136.64 58V47.85H132.64V58H136.64ZM136.64 47.85C136.64 45.9087 136.177 44.0768 134.884 42.7464L132.015 45.5336C132.31 45.8365 132.64 46.4779 132.64 47.85H136.64ZM134.905 42.768C133.668 41.4558 132 40.915 130.195 40.915V44.915C131.189 44.915 131.692 45.1909 131.995 45.512L134.905 42.768ZM130.195 40.915C128.889 40.915 127.65 41.1841 126.529 41.7774L128.401 45.3126C128.867 45.0659 129.447 44.915 130.195 44.915V40.915ZM126.529 41.7774C125.359 42.3966 124.46 43.3279 123.841 44.5015L127.379 46.3685C127.646 45.8621 127.984 45.5333 128.401 45.3126L126.529 41.7774ZM123.831 44.5203C123.222 45.7052 122.98 47.0841 122.98 48.55H126.98C126.98 47.4959 127.158 46.7981 127.388 46.3497L123.831 44.5203ZM122.98 48.55V58H126.98V48.55H122.98ZM124.98 56H120.605V60H124.98V56ZM122.605 58V39.31H118.605V58H122.605ZM120.605 41.31H124.77V37.31H120.605V41.31ZM127.79 41.8555C128.726 41.3705 129.848 41.1 131.21 41.1V37.1C129.305 37.1 127.534 37.4828 125.949 38.3045L127.79 41.8555ZM151.6 56.245C149.879 56.245 148.846 55.8097 148.208 55.2109L145.472 58.1291C147.073 59.6303 149.214 60.245 151.6 60.245V56.245ZM148.224 55.226C147.617 54.6447 147.16 53.6682 147.16 51.945H143.16C143.16 54.3751 143.823 56.5486 145.456 58.114L148.224 55.226ZM145.16 37.18H149.535V33.18H145.16V37.18ZM147.535 51.84C147.535 53.0504 147.841 54.2788 148.717 55.2468L151.683 52.5632C151.672 52.5512 151.535 52.4029 151.535 51.84H147.535ZM148.752 55.2843C149.672 56.2511 150.883 56.64 152.125 56.64V52.64C151.734 52.64 151.661 52.5389 151.648 52.5257L148.752 55.2843ZM152.125 56.64C153.469 56.64 154.744 56.2804 155.81 55.4426L153.339 52.2974C153.099 52.4862 152.74 52.64 152.125 52.64V56.64ZM152.714 54.6019L153.939 57.7169L157.661 56.2531L156.436 53.1381L152.714 54.6019ZM154.533 55.4371C154.266 55.6557 153.894 55.8568 153.368 56.0047L154.451 59.8553C155.419 59.5832 156.307 59.1543 157.066 58.5329L154.533 55.4371ZM153.368 56.0047C152.802 56.164 152.214 56.245 151.6 56.245V60.245C152.572 60.245 153.524 60.116 154.451 59.8553L153.368 56.0047ZM144.08 42.95V39.45H140.08V42.95H144.08ZM152.54 39.45V42.95H156.54V39.45H152.54ZM172.669 46.8C172.669 45.0948 172.14 43.51 170.859 42.3451L168.168 45.3049C168.427 45.54 168.669 45.9386 168.669 46.8H172.669ZM170.883 42.3673C169.598 41.1601 167.846 40.74 166.014 40.74V44.74C167.309 44.74 167.89 45.0433 168.144 45.2827L170.883 42.3673ZM166.014 40.74C164.753 40.74 163.51 40.9367 162.292 41.3241L163.505 45.1359C164.341 44.8699 165.175 44.74 166.014 44.74V40.74ZM162.28 41.3283C161.072 41.7213 159.987 42.289 159.063 43.0586L161.624 46.1314C162.101 45.7343 162.719 45.392 163.518 45.1317L162.28 41.3283ZM162.105 43.6468L160.39 40.4618L156.868 42.3582L158.583 45.5432L162.105 43.6468ZM159.846 42.9966C160.618 42.4043 161.565 41.9391 162.722 41.6253L161.675 37.7647C160.079 38.1976 158.646 38.8757 157.411 39.8234L159.846 42.9966ZM162.744 41.6193C163.962 41.2742 165.225 41.1 166.539 41.1V37.1C164.866 37.1 163.236 37.3225 161.654 37.7707L162.744 41.6193ZM166.539 41.1C168.941 41.1 170.489 41.6784 171.475 42.5548L174.133 39.5652C172.178 37.8282 169.55 37.1 166.539 37.1V41.1ZM171.5 42.5768C172.403 43.3529 173.044 44.6926 173.044 47.045H177.044C177.044 43.9841 176.191 41.3337 174.107 39.5432L171.5 42.5768ZM173.044 47.045V58H177.044V47.045H173.044ZM175.044 56H170.914V60H175.044V56ZM165.034 56.245C163.854 56.245 162.916 56.0484 162.171 55.7174L160.547 59.3726C161.902 59.9749 163.414 60.245 165.034 60.245V56.245ZM162.205 55.7326C161.431 55.3719 160.908 54.9219 160.552 54.4092L157.266 56.6908C158.077 57.8581 159.186 58.7381 160.513 59.3574L162.205 55.7326ZM160.587 54.4616C160.246 53.9367 160.069 53.3495 160.069 52.645H156.069C156.069 54.0871 156.451 55.4366 157.231 56.6384L160.587 54.4616ZM160.069 52.645C160.069 51.9199 160.234 51.3276 160.531 50.8177L157.076 48.8023C156.394 49.9724 156.069 51.2701 156.069 52.645H160.069ZM160.51 50.8529C160.756 50.4504 161.214 50.0232 162.077 49.6533L160.501 45.9767C159.077 46.5868 157.878 47.4896 157.097 48.7671L160.51 50.8529ZM162.077 49.6533C162.876 49.3106 164.093 49.08 165.839 49.08V45.08C163.805 45.08 161.988 45.3393 160.501 45.9767L162.077 49.6533ZM166.154 47.985C165.312 47.985 164.516 48.0527 163.807 48.2258C163.11 48.396 162.363 48.7007 161.763 49.2733L164.525 52.1667C164.438 52.2493 164.449 52.1865 164.756 52.1117C165.05 52.0398 165.503 51.985 166.154 51.985V47.985ZM161.798 49.2401C160.864 50.0897 160.374 51.2123 160.374 52.47H164.374C164.374 52.3698 164.391 52.3268 164.397 52.313C164.403 52.2996 164.421 52.2617 164.489 52.1999L161.798 49.2401ZM160.374 52.47C160.374 53.8881 160.982 55.118 162.128 55.9671L164.509 52.7529C164.418 52.6853 164.4 52.6462 164.399 52.6431C164.397 52.6391 164.374 52.5957 164.374 52.47H160.374ZM162.128 55.9671C163.222 56.7775 164.573 57.06 165.944 57.06V53.06C165.075 53.06 164.675 52.8758 164.509 52.7529L162.128 55.9671ZM165.944 57.06C167.334 57.06 168.645 56.7391 169.822 56.0526L167.806 52.5974C167.303 52.8909 166.701 53.06 165.944 53.06V57.06ZM169.801 56.0644C171.079 55.3392 171.998 54.2508 172.532 52.8821L168.806 51.4279C168.593 51.9726 168.276 52.3308 167.827 52.5856L169.801 56.0644ZM168.145 55.5939C167.457 55.9824 166.46 56.245 165.034 56.245V60.245C166.921 60.245 168.654 59.901 170.113 59.0761L168.145 55.5939ZM189.268 56.245C187.593 56.245 186.172 55.8985 184.955 55.2531L183.081 58.7869C184.944 59.7748 187.022 60.245 189.268 60.245V56.245ZM184.987 55.2704C183.77 54.5964 182.842 53.6992 182.165 52.5651L178.73 54.6149C179.78 56.3741 181.232 57.7636 183.049 58.7696L184.987 55.2704ZM182.165 52.5651C181.504 51.4571 181.153 50.1725 181.153 48.655H177.153C177.153 50.8241 177.665 52.8296 178.73 54.6149L182.165 52.5651ZM181.153 48.655C181.153 47.1085 181.506 45.8311 182.158 44.7572L178.738 42.6828C177.662 44.4556 177.153 46.4681 177.153 48.655H181.153ZM182.165 44.7449C182.839 43.6158 183.76 42.7353 184.966 42.0859L183.07 38.5641C181.242 39.548 179.783 40.9308 178.73 42.6951L182.165 44.7449ZM184.955 42.0919C186.172 41.4465 187.593 41.1 189.268 41.1V37.1C187.022 37.1 184.944 37.5702 183.081 38.5581L184.955 42.0919ZM189.268 41.1C190.809 41.1 192.07 41.4142 193.109 41.9781L195.016 38.4619C193.303 37.5325 191.367 37.1 189.268 37.1V41.1ZM193.145 41.9969C194.167 42.5251 194.929 43.2912 195.465 44.3461L199.031 42.5339C198.12 40.7421 196.758 39.3616 194.981 38.4431L193.145 41.9969ZM196.24 41.7124L192.88 43.6724L194.895 47.1276L198.255 45.1676L196.24 41.7124ZM195.579 44.332C194.856 43.1871 193.915 42.2668 192.737 41.6614L190.908 45.2186C191.364 45.4532 191.8 45.8396 192.197 46.468L195.579 44.332ZM192.759 41.6724C191.665 41.0936 190.479 40.81 189.233 40.81V44.81C189.853 44.81 190.394 44.9464 190.887 45.2076L192.759 41.6724ZM189.233 40.81C187.859 40.81 186.559 41.1115 185.377 41.7506L187.279 45.2694C187.823 44.9751 188.46 44.81 189.233 44.81V40.81ZM185.377 41.7506C184.165 42.4054 183.216 43.3623 182.547 44.5726L186.048 46.5074C186.359 45.9444 186.764 45.5479 187.279 45.2694L185.377 41.7506ZM182.558 44.5528C181.863 45.7772 181.563 47.172 181.563 48.655H185.563C185.563 47.7113 185.752 47.0294 186.037 46.5272L182.558 44.5528ZM181.563 48.655C181.563 50.14 181.864 51.5362 182.547 52.7724L186.048 50.8376C185.751 50.3005 185.563 49.5967 185.563 48.655H181.563ZM182.558 52.7922C183.231 53.9778 184.179 54.9122 185.377 55.5594L187.279 52.0406C186.749 51.7545 186.344 51.3589 186.037 50.8178L182.558 52.7922ZM185.377 55.5594C186.559 56.1985 187.859 56.5 189.233 56.5V52.5C188.46 52.5 187.823 52.3349 187.279 52.0406L185.377 55.5594ZM189.233 56.5C190.479 56.5 191.665 56.2164 192.759 55.6376L190.887 52.1024C190.394 52.3636 189.853 52.5 189.233 52.5V56.5ZM192.737 55.6486C193.915 55.0432 194.856 54.1229 195.579 52.978L192.197 50.842C191.8 51.4704 191.364 51.8568 190.908 52.0914L192.737 55.6486ZM192.88 53.6376L196.24 55.5976L198.255 52.1424L194.895 50.1824L192.88 53.6376ZM195.471 52.952C194.932 53.9941 194.156 54.791 193.099 55.3726L195.027 58.8774C196.769 57.919 198.116 56.5459 199.025 54.788L195.471 52.952ZM193.109 55.3669C192.07 55.9308 190.809 56.245 189.268 56.245V60.245C191.366 60.245 193.303 59.8125 195.016 58.8831L193.109 55.3669ZM208.304 56.245C206.583 56.245 205.55 55.8097 204.912 55.2109L202.176 58.1291C203.777 59.6303 205.918 60.245 208.304 60.245V56.245ZM204.928 55.226C204.321 54.6447 203.864 53.6682 203.864 51.945H199.864C199.864 54.3751 200.527 56.5486 202.16 58.114L204.928 55.226ZM201.864 37.18H206.239V33.18H201.864V37.18ZM204.239 51.84C204.239 53.0504 204.545 54.2788 205.421 55.2468L208.387 52.5632C208.376 52.5512 208.239 52.4029 208.239 51.84H204.239ZM205.456 55.2843C206.376 56.2511 207.587 56.64 208.829 56.64V52.64C208.438 52.64 208.365 52.5389 208.352 52.5257L205.456 55.2843ZM208.829 56.64C210.173 56.64 211.448 56.2804 212.515 55.4426L210.043 52.2974C209.803 52.4862 209.444 52.64 208.829 52.64V56.64ZM209.418 54.6019L210.643 57.7169L214.365 56.2531L213.14 53.1381L209.418 54.6019ZM211.237 55.4371C210.97 55.6557 210.598 55.8568 210.072 56.0047L211.155 59.8553C212.123 59.5832 213.011 59.1543 213.77 58.5329L211.237 55.4371ZM210.072 56.0047C209.506 56.164 208.918 56.245 208.304 56.245V60.245C209.276 60.245 210.229 60.116 211.155 59.8553L210.072 56.0047ZM200.784 42.95V39.45H196.784V42.95H200.784ZM209.244 39.45V42.95H213.244V39.45H209.244ZM236.731 56.35C233.759 56.35 231.677 55.5253 230.226 54.0921L227.415 56.9379C229.791 59.2847 232.983 60.35 236.731 60.35V56.35ZM230.235 54.1008C228.833 52.6984 227.986 50.5484 227.986 47.325H223.986C223.986 51.2416 225.029 54.5516 227.407 56.9292L230.235 54.1008ZM227.986 47.325V33.5H223.986V47.325H227.986ZM225.986 35.5H230.536V31.5H225.986V35.5ZM228.536 33.5V47.15H232.536V33.5H228.536ZM228.536 47.15C228.536 49.8848 229.107 52.3301 230.688 54.0139L233.604 51.2761C233.038 50.6732 232.536 49.4552 232.536 47.15H228.536ZM230.702 54.0295C232.267 55.6601 234.383 56.36 236.766 56.36V52.36C235.181 52.36 234.218 51.9165 233.589 51.2605L230.702 54.0295ZM236.766 56.36C239.146 56.36 241.263 55.6607 242.809 54.0139L239.893 51.2761C239.292 51.916 238.352 52.36 236.766 52.36V56.36ZM242.809 54.0139C244.39 52.3301 244.961 49.8848 244.961 47.15H240.961C240.961 49.4552 240.459 50.6732 239.893 51.2761L242.809 54.0139ZM244.961 47.15V33.5H240.961V47.15H244.961ZM242.961 35.5H247.441V31.5H242.961V35.5ZM245.441 33.5V47.325H249.441V33.5H245.441ZM245.441 47.325C245.441 50.5418 244.586 52.6887 243.165 54.0921L245.976 56.9379C248.382 54.5613 249.441 51.2482 249.441 47.325H245.441ZM243.157 54.1008C241.73 55.5276 239.676 56.35 236.731 56.35V60.35C240.459 60.35 243.632 59.2824 245.985 56.9292L243.157 54.1008ZM259.168 56.245C257.776 56.245 256.449 56.0687 255.182 55.7212L254.124 59.5788C255.75 60.0247 257.433 60.245 259.168 60.245V56.245ZM255.219 55.7318C253.917 55.3475 253.003 54.9221 252.399 54.5023L250.117 57.7877C251.193 58.5346 252.543 59.1125 254.087 59.5682L255.219 55.7318ZM253.043 57.0469L254.723 53.7219L251.153 51.9181L249.473 55.2431L253.043 57.0469ZM251.861 54.5054C252.887 55.1608 254.067 55.6738 255.373 56.0657L256.523 52.2343C255.495 51.9262 254.669 51.5525 254.015 51.1346L251.861 54.5054ZM255.373 56.0657C256.718 56.4691 258.078 56.675 259.448 56.675V52.675C258.484 52.675 257.511 52.5309 256.523 52.2343L255.373 56.0657ZM259.448 56.675C260.907 56.675 262.371 56.4952 263.471 55.8183L261.375 52.4117C261.261 52.4815 260.742 52.675 259.448 52.675V56.675ZM263.443 55.8356C264.563 55.1715 265.368 54.0727 265.368 52.61H261.368C261.368 52.5993 261.37 52.5675 261.382 52.5221C261.395 52.4759 261.415 52.4319 261.438 52.3952C261.485 52.3202 261.508 52.3323 261.403 52.3944L263.443 55.8356ZM265.368 52.61C265.368 51.4363 264.826 50.387 263.781 49.7484L261.695 53.1616C261.643 53.1299 261.537 53.0456 261.455 52.894C261.374 52.7462 261.368 52.6307 261.368 52.61H265.368ZM263.847 49.7909C263.151 49.3264 262.34 49.0406 261.498 48.8665L260.688 52.7835C261.2 52.8894 261.485 53.0236 261.629 53.1191L263.847 49.7909ZM261.498 48.8665C260.77 48.7158 259.967 48.5804 259.093 48.459L258.543 52.421C259.349 52.5329 260.063 52.6542 260.688 52.7835L261.498 48.8665ZM259.101 48.4601C258.337 48.351 257.559 48.2087 256.767 48.0326L255.899 51.9374C256.787 52.1347 257.666 52.2957 258.535 52.4199L259.101 48.4601ZM256.831 48.048C256.163 47.8762 255.575 47.6437 255.059 47.3588L253.127 50.8612C253.964 51.3229 254.87 51.6738 255.835 51.922L256.831 48.048ZM255.104 47.3846C254.696 47.1452 254.379 46.8398 254.13 46.4535L250.766 48.6165C251.357 49.5369 252.137 50.2814 253.082 50.8354L255.104 47.3846ZM254.13 46.4535C253.983 46.2239 253.818 45.776 253.818 44.945H249.818C249.818 46.2606 250.073 47.5394 250.766 48.6165L254.13 46.4535ZM253.818 44.945C253.818 44.1619 254.03 43.5795 254.407 43.0988L251.259 40.6312C250.282 41.8772 249.818 43.3481 249.818 44.945H253.818ZM254.423 43.0783C254.84 42.5318 255.46 42.0578 256.386 41.7017L254.95 37.9683C253.449 38.5455 252.179 39.4249 251.243 40.6517L254.423 43.0783ZM256.405 41.6944C257.354 41.3182 258.551 41.1 260.043 41.1V37.1C258.174 37.1 256.455 37.3718 254.931 37.9756L256.405 41.6944ZM260.043 41.1C261.154 41.1 262.282 41.2233 263.432 41.474L264.284 37.566C262.867 37.2567 261.452 37.1 260.043 37.1V41.1ZM263.432 41.474C264.565 41.7214 265.402 42.0511 266 42.4166L268.086 39.0034C267.004 38.3422 265.717 37.8786 264.284 37.566L263.432 41.474ZM265.258 39.8081L263.578 43.1331L267.148 44.9369L268.828 41.6119L265.258 39.8081ZM266.399 42.324C265.339 41.6826 264.228 41.2284 263.07 40.9908L262.266 44.9092C262.928 45.045 263.614 45.3141 264.327 45.746L266.399 42.324ZM263.129 41.0038C262.095 40.7591 261.054 40.635 260.008 40.635V44.635C260.735 44.635 261.467 44.7209 262.207 44.8962L263.129 41.0038ZM260.008 40.635C258.549 40.635 257.116 40.8401 255.995 41.5204L258.071 44.9396C258.257 44.8266 258.807 44.635 260.008 44.635V40.635ZM255.967 41.5375C254.908 42.2045 254.088 43.2786 254.088 44.735H258.088C258.088 44.7584 258.085 44.7979 258.071 44.8465C258.057 44.8953 258.037 44.9368 258.018 44.9673C257.98 45.0272 257.974 45.0009 258.099 44.9225L255.967 41.5375ZM254.088 44.735C254.088 45.8776 254.564 46.9628 255.609 47.6591L257.827 44.3309C257.885 44.369 257.972 44.451 258.034 44.5756C258.092 44.6918 258.088 44.7638 258.088 44.735H254.088ZM255.609 47.6591C256.282 48.1083 257.069 48.4051 257.894 48.6042L258.832 44.7158C258.303 44.5882 257.993 44.4416 257.827 44.3309L255.609 47.6591ZM257.894 48.6042C258.642 48.7848 259.452 48.9359 260.32 49.0599L260.886 45.1001C260.121 44.9908 259.437 44.8619 258.832 44.7158L257.894 48.6042ZM260.382 49.0678C261.129 49.1507 261.865 49.2855 262.59 49.472L263.586 45.598C262.678 45.3645 261.757 45.1959 260.824 45.0922L260.382 49.0678ZM262.59 49.472C263.258 49.6438 263.845 49.8763 264.362 50.1612L266.294 46.6588C265.457 46.1971 264.551 45.8462 263.586 45.598L262.59 49.472ZM264.434 50.1989C264.815 50.3894 265.101 50.6479 265.326 50.9965L268.69 48.8335C268.074 47.8754 267.241 47.1306 266.222 46.6211L264.434 50.1989ZM265.326 50.9965C265.477 51.2323 265.638 51.6724 265.638 52.47H269.638C269.638 51.1676 269.379 49.9044 268.69 48.8335L265.326 50.9965ZM265.638 52.47C265.638 53.2026 265.43 53.767 265.034 54.2554L268.141 56.7746C269.145 55.5364 269.638 54.0707 269.638 52.47H265.638ZM265.014 54.2812C264.605 54.8032 263.961 55.291 262.958 55.681L264.408 59.409C265.925 58.819 267.218 57.9534 268.162 56.7488L265.014 54.2812ZM262.988 55.6695C262.007 56.0331 260.749 56.245 259.168 56.245V60.245C261.087 60.245 262.839 59.9902 264.378 59.4205L262.988 55.6695ZM43 2H296V-2H43V2ZM296 84H43V88H296V84ZM43 84C20.3563 84 2 65.6437 2 43H-2C-2 67.8528 18.1472 88 43 88V84ZM337 43C337 65.6437 318.644 84 296 84V88C320.853 88 341 67.8528 341 43H337ZM296 2C318.644 2 337 20.3563 337 43H341C341 18.1472 320.853 -2 296 -2V2ZM43 -2C18.1472 -2 -2 18.1472 -2 43H2C2 20.3563 20.3563 2 43 2V-2ZM122.77 39.31V41.7318H126.77V39.31H122.77ZM126.302 43.0169C126.688 42.557 127.171 42.1709 127.778 41.8621L125.962 38.2979C124.904 38.8368 123.988 39.552 123.237 40.4467L126.302 43.0169ZM147.535 35.18V39.45H151.535V35.18H147.535ZM147.535 42.95V51.84H151.535V42.95H147.535ZM154.54 40.95H149.535V44.95H154.54V40.95ZM145.16 40.95H142.08V44.95H145.16V40.95ZM142.08 41.45H145.16V37.45H142.08V41.45ZM149.535 41.45H154.54V37.45H149.535V41.45ZM147.16 51.945V42.95H143.16V51.945H147.16ZM147.16 39.45V35.18H143.16V39.45H147.16ZM172.914 58V55.7321H168.914V58H172.914ZM172.669 52.155V49.985H168.669V52.155H172.669ZM172.669 47.08V46.8H168.669V47.08H172.669ZM170.669 47.985H166.154V51.985H170.669V47.985ZM165.839 49.08H170.669V45.08H165.839V49.08ZM169.25 54.6216C169.011 54.9798 168.666 55.3052 168.161 55.5849L170.097 59.0851C171.103 58.5288 171.948 57.7855 172.577 56.8426L169.25 54.6216ZM204.239 35.18V39.45H208.239V35.18H204.239ZM204.239 42.95V51.84H208.239V42.95H204.239ZM211.244 40.95H206.239V44.95H211.244V40.95ZM201.864 40.95H198.784V44.95H201.864V40.95ZM198.784 41.45H201.864V37.45H198.784V41.45ZM206.239 41.45H211.244V37.45H206.239V41.45ZM203.864 51.945V42.95H199.864V51.945H203.864ZM203.864 39.45V35.18H199.864V39.45H203.864Z" fill="white" mask="url(#path-1-inside-1_172_120)"/>
</svg>
