<svg width="339" height="86" viewBox="0 0 339 86" fill="none" xmlns="http://www.w3.org/2000/svg">
<path d="M85.0944 58.35C83.2277 58.35 81.4894 58.0467 79.8794 57.44C78.2927 56.81 76.9044 55.935 75.7144 54.815C74.5477 53.6717 73.6377 52.33 72.9844 50.79C72.331 49.25 72.0044 47.57 72.0044 45.75C72.0044 43.93 72.331 42.25 72.9844 40.71C73.6377 39.17 74.5594 37.84 75.7494 36.72C76.9394 35.5767 78.3277 34.7017 79.9144 34.095C81.501 33.465 83.2394 33.15 85.1294 33.15C87.136 33.15 88.9677 33.5 90.6244 34.2C92.281 34.8767 93.681 35.8917 94.8244 37.245L91.8844 40.01C90.9977 39.0533 90.006 38.3417 88.9094 37.875C87.8127 37.385 86.6227 37.14 85.3394 37.14C84.056 37.14 82.8777 37.35 81.8044 37.77C80.7544 38.19 79.8327 38.785 79.0394 39.555C78.2694 40.325 77.6627 41.235 77.2194 42.285C76.7994 43.335 76.5894 44.49 76.5894 45.75C76.5894 47.01 76.7994 48.165 77.2194 49.215C77.6627 50.265 78.2694 51.175 79.0394 51.945C79.8327 52.715 80.7544 53.31 81.8044 53.73C82.8777 54.15 84.056 54.36 85.3394 54.36C86.6227 54.36 87.8127 54.1267 88.9094 53.66C90.006 53.17 90.9977 52.435 91.8844 51.455L94.8244 54.255C93.681 55.585 92.281 56.6 90.6244 57.3C88.9677 58 87.1244 58.35 85.0944 58.35ZM106.446 58.245C104.533 58.245 102.83 57.8367 101.336 57.02C99.8429 56.18 98.6646 55.0367 97.8013 53.59C96.9379 52.1433 96.5063 50.4983 96.5063 48.655C96.5063 46.7883 96.9379 45.1433 97.8013 43.72C98.6646 42.2733 99.8429 41.1417 101.336 40.325C102.83 39.5083 104.533 39.1 106.446 39.1C108.383 39.1 110.098 39.5083 111.591 40.325C113.108 41.1417 114.286 42.2617 115.126 43.685C115.99 45.1083 116.421 46.765 116.421 48.655C116.421 50.4983 115.99 52.1433 115.126 53.59C114.286 55.0367 113.108 56.18 111.591 57.02C110.098 57.8367 108.383 58.245 106.446 58.245ZM106.446 54.5C107.52 54.5 108.476 54.2667 109.316 53.8C110.156 53.3333 110.81 52.6567 111.276 51.77C111.766 50.8833 112.011 49.845 112.011 48.655C112.011 47.4417 111.766 46.4033 111.276 45.54C110.81 44.6533 110.156 43.9767 109.316 43.51C108.476 43.0433 107.531 42.81 106.481 42.81C105.408 42.81 104.451 43.0433 103.611 43.51C102.795 43.9767 102.141 44.6533 101.651 45.54C101.161 46.4033 100.916 47.4417 100.916 48.655C100.916 49.845 101.161 50.8833 101.651 51.77C102.141 52.6567 102.795 53.3333 103.611 53.8C104.451 54.2667 105.396 54.5 106.446 54.5ZM131.21 39.1C132.703 39.1 134.033 39.3917 135.2 39.975C136.39 40.5583 137.323 41.4567 138 42.67C138.677 43.86 139.015 45.4 139.015 47.29V58H134.64V47.85C134.64 46.1933 134.243 44.9567 133.45 44.14C132.68 43.3233 131.595 42.915 130.195 42.915C129.168 42.915 128.258 43.125 127.465 43.545C126.672 43.965 126.053 44.595 125.61 45.435C125.19 46.2517 124.98 47.29 124.98 48.55V58H120.605V39.31H124.77V44.35L124.035 42.81C124.688 41.62 125.633 40.71 126.87 40.08C128.13 39.4267 129.577 39.1 131.21 39.1ZM151.6 58.245C149.546 58.245 147.96 57.72 146.84 56.67C145.72 55.5967 145.16 54.0217 145.16 51.945V35.18H149.535V51.84C149.535 52.7267 149.756 53.415 150.2 53.905C150.666 54.395 151.308 54.64 152.125 54.64C153.105 54.64 153.921 54.3833 154.575 53.87L155.8 56.985C155.286 57.405 154.656 57.72 153.91 57.93C153.163 58.14 152.393 58.245 151.6 58.245ZM142.08 42.95V39.45H154.54V42.95H142.08ZM170.914 58V54.22L170.669 53.415V46.8C170.669 45.5167 170.284 44.525 169.514 43.825C168.744 43.1017 167.577 42.74 166.014 42.74C164.964 42.74 163.925 42.9033 162.899 43.23C161.895 43.5567 161.044 44.0117 160.344 44.595L158.629 41.41C159.632 40.64 160.822 40.0683 162.199 39.695C163.599 39.2983 165.045 39.1 166.539 39.1C169.245 39.1 171.334 39.7533 172.804 41.06C174.297 42.3433 175.044 44.3383 175.044 47.045V58H170.914ZM165.034 58.245C163.634 58.245 162.409 58.0117 161.359 57.545C160.309 57.055 159.492 56.39 158.909 55.55C158.349 54.6867 158.069 53.7183 158.069 52.645C158.069 51.595 158.314 50.65 158.804 49.81C159.317 48.97 160.145 48.305 161.289 47.815C162.432 47.325 163.949 47.08 165.839 47.08H171.264V49.985H166.154C164.66 49.985 163.657 50.23 163.144 50.72C162.63 51.1867 162.374 51.77 162.374 52.47C162.374 53.2633 162.689 53.8933 163.319 54.36C163.949 54.8267 164.824 55.06 165.944 55.06C167.017 55.06 167.974 54.815 168.814 54.325C169.677 53.835 170.295 53.1117 170.669 52.155L171.404 54.78C170.984 55.8767 170.225 56.7283 169.129 57.335C168.055 57.9417 166.69 58.245 165.034 58.245ZM189.268 58.245C187.308 58.245 185.558 57.8367 184.018 57.02C182.501 56.18 181.311 55.0367 180.448 53.59C179.584 52.1433 179.153 50.4983 179.153 48.655C179.153 46.7883 179.584 45.1433 180.448 43.72C181.311 42.2733 182.501 41.1417 184.018 40.325C185.558 39.5083 187.308 39.1 189.268 39.1C191.088 39.1 192.686 39.4733 194.063 40.22C195.463 40.9433 196.524 42.0167 197.248 43.44L193.888 45.4C193.328 44.5133 192.639 43.86 191.823 43.44C191.029 43.02 190.166 42.81 189.233 42.81C188.159 42.81 187.191 43.0433 186.328 43.51C185.464 43.9767 184.788 44.6533 184.298 45.54C183.808 46.4033 183.563 47.4417 183.563 48.655C183.563 49.8683 183.808 50.9183 184.298 51.805C184.788 52.6683 185.464 53.3333 186.328 53.8C187.191 54.2667 188.159 54.5 189.233 54.5C190.166 54.5 191.029 54.29 191.823 53.87C192.639 53.45 193.328 52.7967 193.888 51.91L197.248 53.87C196.524 55.27 195.463 56.355 194.063 57.125C192.686 57.8717 191.088 58.245 189.268 58.245ZM208.304 58.245C206.251 58.245 204.664 57.72 203.544 56.67C202.424 55.5967 201.864 54.0217 201.864 51.945V35.18H206.239V51.84C206.239 52.7267 206.461 53.415 206.904 53.905C207.371 54.395 208.012 54.64 208.829 54.64C209.809 54.64 210.626 54.3833 211.279 53.87L212.504 56.985C211.991 57.405 211.361 57.72 210.614 57.93C209.867 58.14 209.097 58.245 208.304 58.245ZM198.784 42.95V39.45H211.244V42.95H198.784ZM236.731 58.35C233.371 58.35 230.734 57.405 228.821 55.515C226.931 53.625 225.986 50.895 225.986 47.325V33.5H230.536V47.15C230.536 49.67 231.072 51.5017 232.146 52.645C233.242 53.7883 234.782 54.36 236.766 54.36C238.749 54.36 240.277 53.7883 241.351 52.645C242.424 51.5017 242.961 49.67 242.961 47.15V33.5H247.441V47.325C247.441 50.895 246.484 53.625 244.571 55.515C242.681 57.405 240.067 58.35 236.731 58.35ZM259.168 58.245C257.605 58.245 256.1 58.0467 254.653 57.65C253.23 57.23 252.098 56.7283 251.258 56.145L252.938 52.82C253.778 53.3567 254.781 53.8 255.948 54.15C257.115 54.5 258.281 54.675 259.448 54.675C260.825 54.675 261.816 54.4883 262.423 54.115C263.053 53.7417 263.368 53.24 263.368 52.61C263.368 52.0967 263.158 51.7117 262.738 51.455C262.318 51.175 261.77 50.965 261.093 50.825C260.416 50.685 259.658 50.5567 258.818 50.44C258.001 50.3233 257.173 50.1717 256.333 49.985C255.516 49.775 254.77 49.4833 254.093 49.11C253.416 48.7133 252.868 48.1883 252.448 47.535C252.028 46.8817 251.818 46.0183 251.818 44.945C251.818 43.755 252.156 42.7283 252.833 41.865C253.51 40.9783 254.455 40.3017 255.668 39.835C256.905 39.345 258.363 39.1 260.043 39.1C261.303 39.1 262.575 39.24 263.858 39.52C265.141 39.8 266.203 40.1967 267.043 40.71L265.363 44.035C264.476 43.4983 263.578 43.1367 262.668 42.95C261.781 42.74 260.895 42.635 260.008 42.635C258.678 42.635 257.686 42.8333 257.033 43.23C256.403 43.6267 256.088 44.1283 256.088 44.735C256.088 45.295 256.298 45.715 256.718 45.995C257.138 46.275 257.686 46.4967 258.363 46.66C259.04 46.8233 259.786 46.9633 260.603 47.08C261.443 47.1733 262.271 47.325 263.088 47.535C263.905 47.745 264.651 48.0367 265.328 48.41C266.028 48.76 266.588 49.2617 267.008 49.915C267.428 50.5683 267.638 51.42 267.638 52.47C267.638 53.6367 267.288 54.6517 266.588 55.515C265.911 56.3783 264.943 57.055 263.683 57.545C262.423 58.0117 260.918 58.245 259.168 58.245Z" fill="white"/>
<rect x="1" y="1" width="337" height="84" rx="42" stroke="white" stroke-width="2"/>
</svg>
