<svg width="77" height="77" viewBox="0 0 77 77" fill="none" xmlns="http://www.w3.org/2000/svg">
<path d="M35.6094 39.472C35.5473 39.4101 35.498 39.3365 35.4644 39.2555C35.4308 39.1745 35.4135 39.0877 35.4135 39C35.4135 38.9123 35.4308 38.8255 35.4644 38.7445C35.498 38.6635 35.5473 38.5899 35.6094 38.528L41.724 32.4147C42.0992 32.0396 42.3101 31.5309 42.3102 31.0005C42.3103 30.47 42.0997 29.9612 41.7247 29.586C41.3497 29.2108 40.841 28.9999 40.3105 28.9998C39.78 28.9997 39.2712 29.2103 38.896 29.5853L32.7814 35.7C31.9077 36.576 31.4171 37.7628 31.4171 39C31.4171 40.2372 31.9077 41.4239 32.7814 42.3L38.896 48.4147C39.2712 48.7897 39.78 49.0003 40.3105 49.0002C40.841 49 41.3497 48.7892 41.7247 48.414C42.0997 48.0388 42.3103 47.53 42.3102 46.9995C42.3101 46.469 42.0992 45.9603 41.724 45.5853L35.6094 39.472Z" fill="white"/>
<circle cx="38.5" cy="38.5" r="37.5" stroke="white" stroke-width="2"/>
</svg>
