<svg width="339" height="86" viewBox="0 0 339 86" fill="none" xmlns="http://www.w3.org/2000/svg">
<rect width="339" height="86" rx="43" fill="white"/>
<path d="M70.8447 56.35C68.9314 56.35 67.1697 56.035 65.5597 55.405C63.9497 54.775 62.5497 53.9 61.3597 52.78C60.1697 51.6367 59.248 50.3067 58.5947 48.79C57.9414 47.25 57.6147 45.57 57.6147 43.75C57.6147 41.93 57.9414 40.2617 58.5947 38.745C59.248 37.205 60.1697 35.875 61.3597 34.755C62.5497 33.6117 63.9497 32.725 65.5597 32.095C67.1697 31.465 68.9197 31.15 70.8097 31.15C72.723 31.15 74.473 31.465 76.0597 32.095C77.6697 32.725 79.0697 33.6117 80.2597 34.755C81.4497 35.875 82.3714 37.205 83.0247 38.745C83.678 40.2617 84.0047 41.93 84.0047 43.75C84.0047 45.57 83.678 47.25 83.0247 48.79C82.3714 50.33 81.4497 51.66 80.2597 52.78C79.0697 53.9 77.6697 54.775 76.0597 55.405C74.473 56.035 72.7347 56.35 70.8447 56.35ZM70.8097 52.36C72.0464 52.36 73.1897 52.15 74.2397 51.73C75.2897 51.31 76.1997 50.715 76.9697 49.945C77.7397 49.1517 78.3347 48.2417 78.7547 47.215C79.198 46.165 79.4197 45.01 79.4197 43.75C79.4197 42.49 79.198 41.3467 78.7547 40.32C78.3347 39.27 77.7397 38.36 76.9697 37.59C76.1997 36.7967 75.2897 36.19 74.2397 35.77C73.1897 35.35 72.0464 35.14 70.8097 35.14C69.573 35.14 68.4297 35.35 67.3797 35.77C66.353 36.19 65.443 36.7967 64.6497 37.59C63.8797 38.36 63.273 39.27 62.8297 40.32C62.4097 41.3467 62.1997 42.49 62.1997 43.75C62.1997 44.9867 62.4097 46.13 62.8297 47.18C63.273 48.23 63.8797 49.1517 64.6497 49.945C65.4197 50.715 66.3297 51.31 67.3797 51.73C68.4297 52.15 69.573 52.36 70.8097 52.36ZM96.3176 56.245C94.7309 56.245 93.3309 55.9533 92.1176 55.37C90.9043 54.7633 89.9593 53.8533 89.2826 52.64C88.6059 51.4033 88.2676 49.8517 88.2676 47.985V37.31H92.6426V47.39C92.6426 49.07 93.0159 50.33 93.7626 51.17C94.5326 51.9867 95.6176 52.395 97.0176 52.395C98.0443 52.395 98.9309 52.185 99.6776 51.765C100.448 51.345 101.043 50.715 101.463 49.875C101.906 49.035 102.128 47.9967 102.128 46.76V37.31H106.503V56H102.338V50.96L103.073 52.5C102.443 53.7133 101.521 54.6467 100.308 55.3C99.0943 55.93 97.7643 56.245 96.3176 56.245ZM112.231 56V37.31H116.396V42.455L115.906 40.95C116.466 39.69 117.341 38.7333 118.531 38.08C119.744 37.4267 121.249 37.1 123.046 37.1V41.265C122.859 41.2183 122.684 41.195 122.521 41.195C122.358 41.1717 122.194 41.16 122.031 41.16C120.374 41.16 119.056 41.65 118.076 42.63C117.096 43.5867 116.606 45.0217 116.606 46.935V56H112.231ZM144.616 56.35C142.703 56.35 140.871 56.0817 139.121 55.545C137.371 54.985 135.983 54.2733 134.956 53.41L136.531 49.875C137.511 50.645 138.724 51.2867 140.171 51.8C141.618 52.3133 143.099 52.57 144.616 52.57C145.899 52.57 146.938 52.43 147.731 52.15C148.524 51.87 149.108 51.4967 149.481 51.03C149.854 50.54 150.041 49.9917 150.041 49.385C150.041 48.6383 149.773 48.0433 149.236 47.6C148.699 47.1333 147.999 46.7717 147.136 46.515C146.296 46.235 145.351 45.9783 144.301 45.745C143.274 45.5117 142.236 45.2433 141.186 44.94C140.159 44.6133 139.214 44.205 138.351 43.715C137.511 43.2017 136.823 42.525 136.286 41.685C135.749 40.845 135.481 39.7717 135.481 38.465C135.481 37.135 135.831 35.9217 136.531 34.825C137.254 33.705 138.339 32.8183 139.786 32.165C141.256 31.4883 143.111 31.15 145.351 31.15C146.821 31.15 148.279 31.3367 149.726 31.71C151.173 32.0833 152.433 32.62 153.506 33.32L152.071 36.855C150.974 36.2017 149.843 35.7233 148.676 35.42C147.509 35.0933 146.389 34.93 145.316 34.93C144.056 34.93 143.029 35.0817 142.236 35.385C141.466 35.6883 140.894 36.085 140.521 36.575C140.171 37.065 139.996 37.625 139.996 38.255C139.996 39.0017 140.253 39.6083 140.766 40.075C141.303 40.5183 141.991 40.8683 142.831 41.125C143.694 41.3817 144.651 41.6383 145.701 41.895C146.751 42.1283 147.789 42.3967 148.816 42.7C149.866 43.0033 150.811 43.4 151.651 43.89C152.514 44.38 153.203 45.045 153.716 45.885C154.253 46.725 154.521 47.7867 154.521 49.07C154.521 50.3767 154.159 51.59 153.436 52.71C152.736 53.8067 151.651 54.6933 150.181 55.37C148.711 56.0233 146.856 56.35 144.616 56.35ZM167.398 56.245C165.321 56.245 163.501 55.8367 161.938 55.02C160.398 54.18 159.196 53.0367 158.333 51.59C157.493 50.1433 157.073 48.4983 157.073 46.655C157.073 44.7883 157.481 43.1433 158.298 41.72C159.138 40.2733 160.281 39.1417 161.728 38.325C163.198 37.5083 164.866 37.1 166.733 37.1C168.553 37.1 170.174 37.4967 171.598 38.29C173.021 39.0833 174.141 40.2033 174.958 41.65C175.774 43.0967 176.183 44.8 176.183 46.76C176.183 46.9467 176.171 47.1567 176.148 47.39C176.148 47.6233 176.136 47.845 176.113 48.055H160.538V45.15H173.803L172.088 46.06C172.111 44.9867 171.889 44.0417 171.423 43.225C170.956 42.4083 170.314 41.7667 169.498 41.3C168.704 40.8333 167.783 40.6 166.733 40.6C165.659 40.6 164.714 40.8333 163.898 41.3C163.104 41.7667 162.474 42.42 162.008 43.26C161.564 44.0767 161.343 45.045 161.343 46.165V46.865C161.343 47.985 161.599 48.9767 162.113 49.84C162.626 50.7033 163.349 51.3683 164.283 51.835C165.216 52.3017 166.289 52.535 167.503 52.535C168.553 52.535 169.498 52.3717 170.338 52.045C171.178 51.7183 171.924 51.205 172.578 50.505L174.923 53.2C174.083 54.18 173.021 54.9383 171.738 55.475C170.478 55.9883 169.031 56.245 167.398 56.245ZM180.385 56V37.31H184.55V42.455L184.06 40.95C184.62 39.69 185.495 38.7333 186.685 38.08C187.898 37.4267 189.403 37.1 191.2 37.1V41.265C191.013 41.2183 190.838 41.195 190.675 41.195C190.512 41.1717 190.348 41.16 190.185 41.16C188.528 41.16 187.21 41.65 186.23 42.63C185.25 43.5867 184.76 45.0217 184.76 46.935V56H180.385ZM200.565 56L192.55 37.31H197.1L203.995 53.795H201.755L208.895 37.31H213.095L205.08 56H200.565ZM215.829 56V37.31H220.204V56H215.829ZM218.034 34.23C217.218 34.23 216.541 33.9733 216.004 33.46C215.491 32.9467 215.234 32.3283 215.234 31.605C215.234 30.8583 215.491 30.24 216.004 29.75C216.541 29.2367 217.218 28.98 218.034 28.98C218.851 28.98 219.516 29.225 220.029 29.715C220.566 30.1817 220.834 30.7767 220.834 31.5C220.834 32.27 220.578 32.9233 220.064 33.46C219.551 33.9733 218.874 34.23 218.034 34.23ZM234.522 56.245C232.562 56.245 230.812 55.8367 229.272 55.02C227.755 54.18 226.565 53.0367 225.702 51.59C224.838 50.1433 224.407 48.4983 224.407 46.655C224.407 44.7883 224.838 43.1433 225.702 41.72C226.565 40.2733 227.755 39.1417 229.272 38.325C230.812 37.5083 232.562 37.1 234.522 37.1C236.342 37.1 237.94 37.4733 239.317 38.22C240.717 38.9433 241.778 40.0167 242.502 41.44L239.142 43.4C238.582 42.5133 237.893 41.86 237.077 41.44C236.283 41.02 235.42 40.81 234.487 40.81C233.413 40.81 232.445 41.0433 231.582 41.51C230.718 41.9767 230.042 42.6533 229.552 43.54C229.062 44.4033 228.817 45.4417 228.817 46.655C228.817 47.8683 229.062 48.9183 229.552 49.805C230.042 50.6683 230.718 51.3333 231.582 51.8C232.445 52.2667 233.413 52.5 234.487 52.5C235.42 52.5 236.283 52.29 237.077 51.87C237.893 51.45 238.582 50.7967 239.142 49.91L242.502 51.87C241.778 53.27 240.717 54.355 239.317 55.125C237.94 55.8717 236.342 56.245 234.522 56.245ZM254.795 56.245C252.718 56.245 250.898 55.8367 249.335 55.02C247.795 54.18 246.593 53.0367 245.73 51.59C244.89 50.1433 244.47 48.4983 244.47 46.655C244.47 44.7883 244.878 43.1433 245.695 41.72C246.535 40.2733 247.678 39.1417 249.125 38.325C250.595 37.5083 252.263 37.1 254.13 37.1C255.95 37.1 257.572 37.4967 258.995 38.29C260.418 39.0833 261.538 40.2033 262.355 41.65C263.172 43.0967 263.58 44.8 263.58 46.76C263.58 46.9467 263.568 47.1567 263.545 47.39C263.545 47.6233 263.533 47.845 263.51 48.055H247.935V45.15H261.2L259.485 46.06C259.508 44.9867 259.287 44.0417 258.82 43.225C258.353 42.4083 257.712 41.7667 256.895 41.3C256.102 40.8333 255.18 40.6 254.13 40.6C253.057 40.6 252.112 40.8333 251.295 41.3C250.502 41.7667 249.872 42.42 249.405 43.26C248.962 44.0767 248.74 45.045 248.74 46.165V46.865C248.74 47.985 248.997 48.9767 249.51 49.84C250.023 50.7033 250.747 51.3683 251.68 51.835C252.613 52.3017 253.687 52.535 254.9 52.535C255.95 52.535 256.895 52.3717 257.735 52.045C258.575 51.7183 259.322 51.205 259.975 50.505L262.32 53.2C261.48 54.18 260.418 54.9383 259.135 55.475C257.875 55.9883 256.428 56.245 254.795 56.245ZM273.558 56.245C271.994 56.245 270.489 56.0467 269.043 55.65C267.619 55.23 266.488 54.7283 265.648 54.145L267.328 50.82C268.168 51.3567 269.171 51.8 270.338 52.15C271.504 52.5 272.671 52.675 273.838 52.675C275.214 52.675 276.206 52.4883 276.813 52.115C277.443 51.7417 277.758 51.24 277.758 50.61C277.758 50.0967 277.548 49.7117 277.128 49.455C276.708 49.175 276.159 48.965 275.483 48.825C274.806 48.685 274.048 48.5567 273.208 48.44C272.391 48.3233 271.563 48.1717 270.723 47.985C269.906 47.775 269.159 47.4833 268.483 47.11C267.806 46.7133 267.258 46.1883 266.838 45.535C266.418 44.8817 266.208 44.0183 266.208 42.945C266.208 41.755 266.546 40.7283 267.223 39.865C267.899 38.9783 268.844 38.3017 270.058 37.835C271.294 37.345 272.753 37.1 274.433 37.1C275.693 37.1 276.964 37.24 278.248 37.52C279.531 37.8 280.593 38.1967 281.433 38.71L279.753 42.035C278.866 41.4983 277.968 41.1367 277.058 40.95C276.171 40.74 275.284 40.635 274.398 40.635C273.068 40.635 272.076 40.8333 271.423 41.23C270.793 41.6267 270.478 42.1283 270.478 42.735C270.478 43.295 270.688 43.715 271.108 43.995C271.528 44.275 272.076 44.4967 272.753 44.66C273.429 44.8233 274.176 44.9633 274.993 45.08C275.833 45.1733 276.661 45.325 277.478 45.535C278.294 45.745 279.041 46.0367 279.718 46.41C280.418 46.76 280.978 47.2617 281.398 47.915C281.818 48.5683 282.028 49.42 282.028 50.47C282.028 51.6367 281.678 52.6517 280.978 53.515C280.301 54.3783 279.333 55.055 278.073 55.545C276.813 56.0117 275.308 56.245 273.558 56.245Z" fill="#202020"/>
</svg>
