<svg width="77" height="77" viewBox="0 0 77 77" fill="none" xmlns="http://www.w3.org/2000/svg">
<path d="M44 35.7L37.8854 29.5853C37.5102 29.2103 37.0014 28.9997 36.4709 28.9998C35.9404 28.9999 35.4317 29.2108 35.0567 29.586C34.6817 29.9612 34.4711 30.47 34.4712 31.0005C34.4713 31.5309 34.6822 32.0396 35.0574 32.4147L41.172 38.528C41.2341 38.5899 41.2834 38.6635 41.317 38.7445C41.3506 38.8255 41.3679 38.9123 41.3679 39C41.3679 39.0877 41.3506 39.1745 41.317 39.2555C41.2834 39.3365 41.2341 39.4101 41.172 39.472L35.0574 45.5853C34.6822 45.9603 34.4713 46.469 34.4712 46.9995C34.4711 47.53 34.6817 48.0388 35.0567 48.414C35.4317 48.7892 35.9404 49 36.4709 49.0002C37.0014 49.0003 37.5102 48.7897 37.8854 48.4147L44 42.3C44.8737 41.4239 45.3643 40.2372 45.3643 39C45.3643 37.7628 44.8737 36.576 44 35.7V35.7Z" fill="white"/>
<circle cx="38.5" cy="38.5" r="37.5" stroke="white" stroke-width="2"/>
</svg>
