<svg width="77" height="77" viewBox="0 0 77 77" fill="none" xmlns="http://www.w3.org/2000/svg">
<path fill-rule="evenodd" clip-rule="evenodd" d="M38.5 0C17.237 0 0 17.237 0 38.5C0 59.763 17.237 77 38.5 77C59.763 77 77 59.763 77 38.5C77 17.237 59.763 0 38.5 0ZM41.5356 37.7445C41.502 37.6635 41.4527 37.5899 41.3907 37.528L35.276 31.4147C34.9008 31.0396 34.69 30.5309 34.6898 30.0005C34.6897 29.47 34.9003 28.9612 35.2753 28.586C35.6503 28.2108 36.159 27.9999 36.6895 27.9998C37.22 27.9997 37.7288 28.2103 38.104 28.5853L44.2187 34.7C45.0923 35.576 45.5829 36.7628 45.5829 38C45.5829 39.2372 45.0923 40.4239 44.2187 41.3L38.104 47.4147C37.7288 47.7897 37.22 48.0003 36.6895 48.0002C36.159 48 35.6503 47.7892 35.2753 47.414C34.9003 47.0388 34.6897 46.53 34.6898 45.9995C34.69 45.469 34.9008 44.9603 35.276 44.5853L41.3907 38.472C41.4527 38.4101 41.502 38.3365 41.5356 38.2555C41.5692 38.1745 41.5865 38.0877 41.5865 38C41.5865 37.9123 41.5692 37.8255 41.5356 37.7445Z" fill="white"/>
</svg>
