<svg width="77" height="77" viewBox="0 0 77 77" fill="none" xmlns="http://www.w3.org/2000/svg">
<path fill-rule="evenodd" clip-rule="evenodd" d="M38.5 77C59.763 77 77 59.763 77 38.5C77 17.237 59.763 0 38.5 0C17.237 0 0 17.237 0 38.5C0 59.763 17.237 77 38.5 77ZM35.4644 39.2555C35.498 39.3365 35.5473 39.4101 35.6093 39.472L41.724 45.5853C42.0992 45.9604 42.31 46.4691 42.3102 46.9995C42.3103 47.53 42.0997 48.0388 41.7247 48.414C41.3497 48.7892 40.841 49.0001 40.3105 49.0002C39.78 49.0003 39.2712 48.7897 38.896 48.4147L32.7813 42.3C31.9077 41.424 31.4171 40.2372 31.4171 39C31.4171 37.7628 31.9077 36.5761 32.7813 35.7L38.896 29.5853C39.2712 29.2103 39.78 28.9997 40.3105 28.9998C40.841 29 41.3497 29.2108 41.7247 29.586C42.0997 29.9612 42.3103 30.47 42.3102 31.0005C42.31 31.531 42.0992 32.0397 41.724 32.4147L35.6093 38.528C35.5473 38.5899 35.498 38.6635 35.4644 38.7445C35.4308 38.8255 35.4135 38.9123 35.4135 39C35.4135 39.0877 35.4308 39.1745 35.4644 39.2555Z" fill="white"/>
</svg>
