<svg width="463" height="122" viewBox="0 0 463 122" fill="none" xmlns="http://www.w3.org/2000/svg">
<rect width="463" height="122" rx="10" fill="#5E6845"/>
<path d="M58.36 75.32C56.2267 75.32 54.1867 75 52.24 74.36C50.2933 73.6933 48.76 72.84 47.64 71.8L49.12 68.68C50.1867 69.6133 51.5467 70.3867 53.2 71C54.8533 71.6133 56.5733 71.92 58.36 71.92C59.9867 71.92 61.3067 71.7333 62.32 71.36C63.3333 70.9867 64.08 70.48 64.56 69.84C65.04 69.1733 65.28 68.4267 65.28 67.6C65.28 66.64 64.96 65.8667 64.32 65.28C63.7067 64.6933 62.8933 64.2267 61.88 63.88C60.8933 63.5067 59.8 63.1867 58.6 62.92C57.4 62.6533 56.1867 62.3467 54.96 62C53.76 61.6267 52.6533 61.16 51.64 60.6C50.6533 60.04 49.8533 59.2933 49.24 58.36C48.6267 57.4 48.32 56.1733 48.32 54.68C48.32 53.24 48.6933 51.92 49.44 50.72C50.2133 49.4933 51.3867 48.52 52.96 47.8C54.56 47.0533 56.5867 46.68 59.04 46.68C60.6667 46.68 62.28 46.8933 63.88 47.32C65.48 47.7467 66.8667 48.36 68.04 49.16L66.72 52.36C65.52 51.56 64.2533 50.9867 62.92 50.64C61.5867 50.2667 60.2933 50.08 59.04 50.08C57.4667 50.08 56.1733 50.28 55.16 50.68C54.1467 51.08 53.4 51.6133 52.92 52.28C52.4667 52.9467 52.24 53.6933 52.24 54.52C52.24 55.5067 52.5467 56.2933 53.16 56.88C53.8 57.4667 54.6133 57.9333 55.6 58.28C56.6133 58.6267 57.72 58.9467 58.92 59.24C60.12 59.5067 61.32 59.8133 62.52 60.16C63.7467 60.5067 64.8533 60.96 65.84 61.52C66.8533 62.08 67.6667 62.8267 68.28 63.76C68.8933 64.6933 69.2 65.8933 69.2 67.36C69.2 68.7733 68.8133 70.0933 68.04 71.32C67.2667 72.52 66.0667 73.4933 64.44 74.24C62.84 74.96 60.8133 75.32 58.36 75.32ZM78.6838 59.08H93.0838V62.48H78.6838V59.08ZM79.0438 71.52H95.3638V75H75.0438V47H94.8038V50.48H79.0438V71.52ZM101.841 75V47H105.121L123.641 70H121.921V47H125.921V75H122.641L104.121 52H105.841V75H101.841ZM134.302 75V47H146.102C149.088 47 151.715 47.5867 153.982 48.76C156.275 49.9333 158.048 51.5733 159.302 53.68C160.582 55.7867 161.222 58.2267 161.222 61C161.222 63.7733 160.582 66.2133 159.302 68.32C158.048 70.4267 156.275 72.0667 153.982 73.24C151.715 74.4133 149.088 75 146.102 75H134.302ZM138.302 71.52H145.862C148.182 71.52 150.182 71.08 151.862 70.2C153.568 69.32 154.888 68.0933 155.822 66.52C156.755 64.92 157.222 63.08 157.222 61C157.222 58.8933 156.755 57.0533 155.822 55.48C154.888 53.9067 153.568 52.68 151.862 51.8C150.182 50.92 148.182 50.48 145.862 50.48H138.302V71.52ZM173.851 75L186.531 47H190.491L203.211 75H199.011L187.691 49.24H189.291L177.971 75H173.851ZM179.251 68L180.331 64.8H196.091L197.251 68H179.251ZM218.13 75V47H221.41L233.97 68.16H232.21L244.61 47H247.89L247.93 75H244.09L244.05 53.04H244.97L233.93 71.6H232.09L220.97 53.04H221.97V75H218.13ZM259.973 59.08H274.373V62.48H259.973V59.08ZM260.333 71.52H276.653V75H256.333V47H276.093V50.48H260.333V71.52ZM291.29 75.32C289.156 75.32 287.116 75 285.17 74.36C283.223 73.6933 281.69 72.84 280.57 71.8L282.05 68.68C283.116 69.6133 284.476 70.3867 286.13 71C287.783 71.6133 289.503 71.92 291.29 71.92C292.916 71.92 294.236 71.7333 295.25 71.36C296.263 70.9867 297.01 70.48 297.49 69.84C297.97 69.1733 298.21 68.4267 298.21 67.6C298.21 66.64 297.89 65.8667 297.25 65.28C296.636 64.6933 295.823 64.2267 294.81 63.88C293.823 63.5067 292.73 63.1867 291.53 62.92C290.33 62.6533 289.116 62.3467 287.89 62C286.69 61.6267 285.583 61.16 284.57 60.6C283.583 60.04 282.783 59.2933 282.17 58.36C281.556 57.4 281.25 56.1733 281.25 54.68C281.25 53.24 281.623 51.92 282.37 50.72C283.143 49.4933 284.316 48.52 285.89 47.8C287.49 47.0533 289.516 46.68 291.97 46.68C293.596 46.68 295.21 46.8933 296.81 47.32C298.41 47.7467 299.796 48.36 300.97 49.16L299.65 52.36C298.45 51.56 297.183 50.9867 295.85 50.64C294.516 50.2667 293.223 50.08 291.97 50.08C290.396 50.08 289.103 50.28 288.09 50.68C287.076 51.08 286.33 51.6133 285.85 52.28C285.396 52.9467 285.17 53.6933 285.17 54.52C285.17 55.5067 285.476 56.2933 286.09 56.88C286.73 57.4667 287.543 57.9333 288.53 58.28C289.543 58.6267 290.65 58.9467 291.85 59.24C293.05 59.5067 294.25 59.8133 295.45 60.16C296.676 60.5067 297.783 60.96 298.77 61.52C299.783 62.08 300.596 62.8267 301.21 63.76C301.823 64.6933 302.13 65.8933 302.13 67.36C302.13 68.7733 301.743 70.0933 300.97 71.32C300.196 72.52 298.996 73.4933 297.37 74.24C295.77 74.96 293.743 75.32 291.29 75.32ZM316.133 75.32C314 75.32 311.96 75 310.013 74.36C308.067 73.6933 306.533 72.84 305.413 71.8L306.893 68.68C307.96 69.6133 309.32 70.3867 310.973 71C312.627 71.6133 314.347 71.92 316.133 71.92C317.76 71.92 319.08 71.7333 320.093 71.36C321.107 70.9867 321.853 70.48 322.333 69.84C322.813 69.1733 323.053 68.4267 323.053 67.6C323.053 66.64 322.733 65.8667 322.093 65.28C321.48 64.6933 320.667 64.2267 319.653 63.88C318.667 63.5067 317.573 63.1867 316.373 62.92C315.173 62.6533 313.96 62.3467 312.733 62C311.533 61.6267 310.427 61.16 309.413 60.6C308.427 60.04 307.627 59.2933 307.013 58.36C306.4 57.4 306.093 56.1733 306.093 54.68C306.093 53.24 306.467 51.92 307.213 50.72C307.987 49.4933 309.16 48.52 310.733 47.8C312.333 47.0533 314.36 46.68 316.813 46.68C318.44 46.68 320.053 46.8933 321.653 47.32C323.253 47.7467 324.64 48.36 325.813 49.16L324.493 52.36C323.293 51.56 322.027 50.9867 320.693 50.64C319.36 50.2667 318.067 50.08 316.813 50.08C315.24 50.08 313.947 50.28 312.933 50.68C311.92 51.08 311.173 51.6133 310.693 52.28C310.24 52.9467 310.013 53.6933 310.013 54.52C310.013 55.5067 310.32 56.2933 310.933 56.88C311.573 57.4667 312.387 57.9333 313.373 58.28C314.387 58.6267 315.493 58.9467 316.693 59.24C317.893 59.5067 319.093 59.8133 320.293 60.16C321.52 60.5067 322.627 60.96 323.613 61.52C324.627 62.08 325.44 62.8267 326.053 63.76C326.667 64.6933 326.973 65.8933 326.973 67.36C326.973 68.7733 326.587 70.0933 325.813 71.32C325.04 72.52 323.84 73.4933 322.213 74.24C320.613 74.96 318.587 75.32 316.133 75.32ZM328.577 75L341.257 47H345.217L357.937 75H353.737L342.417 49.24H344.017L332.697 75H328.577ZM333.977 68L335.057 64.8H350.817L351.977 68H333.977ZM374.363 75.32C372.203 75.32 370.217 74.9733 368.403 74.28C366.59 73.56 365.017 72.56 363.683 71.28C362.35 69.9733 361.31 68.4533 360.563 66.72C359.817 64.9867 359.443 63.08 359.443 61C359.443 58.92 359.817 57.0133 360.563 55.28C361.31 53.5467 362.35 52.04 363.683 50.76C365.043 49.4533 366.63 48.4533 368.443 47.76C370.257 47.04 372.257 46.68 374.443 46.68C376.657 46.68 378.683 47.04 380.523 47.76C382.363 48.48 383.923 49.56 385.203 51L382.723 53.48C381.577 52.36 380.323 51.5467 378.963 51.04C377.63 50.5067 376.177 50.24 374.603 50.24C373.003 50.24 371.51 50.5067 370.123 51.04C368.763 51.5733 367.577 52.32 366.563 53.28C365.577 54.24 364.803 55.3867 364.243 56.72C363.71 58.0267 363.443 59.4533 363.443 61C363.443 62.52 363.71 63.9467 364.243 65.28C364.803 66.5867 365.577 67.7333 366.563 68.72C367.577 69.68 368.763 70.4267 370.123 70.96C371.483 71.4933 372.963 71.76 374.563 71.76C376.057 71.76 377.483 71.5333 378.843 71.08C380.23 70.6 381.51 69.8133 382.683 68.72L384.963 71.76C383.577 72.9333 381.95 73.8267 380.083 74.44C378.243 75.0267 376.337 75.32 374.363 75.32ZM381.123 71.24V60.84H384.963V71.76L381.123 71.24ZM396.262 59.08H410.662V62.48H396.262V59.08ZM396.622 71.52H412.942V75H392.622V47H412.382V50.48H396.622V71.52Z" fill="#222812"/>
</svg>
